M48
INCH,TZ
T1C0.0157
T2C0.0300
T3C0.0315
T4C0.0354
T5C0.0400
%
G90
G05
T1
X33465Y-17179
X33465Y-19500
X33465Y-21904
X33465Y-24250
X33465Y-26628
X33465Y-28990
X33465Y-31352
X35433Y-17179
X35433Y-19541
X35433Y-21904
X35433Y-24266
X35433Y-26628
X35433Y-28990
X35433Y-31352
X37385Y-24266
X37385Y-26628
X37385Y-28990
X37385Y-31352
X37402Y-17179
X37402Y-19541
X37402Y-21904
X39370Y-17179
X39370Y-19541
X39370Y-21904
X39370Y-24266
X40885Y-24266
X43701Y-9449
X43701Y-11417
X43701Y-12992
X43701Y-14961
X43701Y-16929
X43701Y-18898
X43701Y-20866
X43701Y-23228
X43701Y-25197
X43701Y-27165
X43701Y-29134
X43701Y-31102
X43701Y-33071
X44488Y-29921
X45276Y-9449
X45276Y-11417
X45276Y-12992
X45276Y-14961
X45276Y-16929
X45276Y-18898
X45276Y-20866
X45669Y-31102
X45669Y-33071
X46457Y-23228
X46457Y-25197
X46457Y-29921
X47638Y-31102
X47638Y-33071
X48425Y-26772
X48819Y-25197
X49213Y-9744
X49213Y-12992
X49213Y-15059
X49213Y-17028
X49213Y-18898
X49213Y-20768
X49606Y-33071
X50000Y-28346
X50394Y-26772
X50787Y-22047
X51575Y-8661
X51575Y-11024
X51575Y-14173
X51575Y-16929
X51575Y-19685
X51575Y-33071
X53150Y-27362
X53543Y-23917
X54528Y-23524
X55315Y-23917
X55512Y-33071
X55807Y-16142
X55906Y-10630
X55906Y-13484
X55906Y-18898
X56988Y-33071
X57480Y-31102
X58169Y-27461
X58661Y-10630
X58661Y-13386
X58661Y-16142
X58661Y-18996
X59449Y-31102
X61614Y-24606
X62992Y-18898
X63091Y-10728
X63091Y-13484
X63091Y-16142
X63386Y-25984
X64961Y-24803
X64961Y-26772
X64961Y-30709
X66929Y-24803
X66929Y-26772
X66929Y-28346
X66929Y-30709
X67717Y-9055
X67717Y-11024
X67717Y-12992
X67717Y-14961
X67717Y-16929
X67717Y-18898
X67717Y-20866
X69685Y-9055
X69685Y-11024
X69685Y-12992
X69685Y-14961
X69685Y-16929
X69685Y-18898
X69685Y-20866
T2
X67500Y-32000
X68484Y-32000
X69484Y-32000
X53526Y-33000
X58250Y-33000
X62000Y-32000
X62984Y-32000
X63984Y-32000
T3
X46260Y-18012
X50260Y-18012
X46250Y-20750
X50250Y-20750
X46260Y-15250
X50260Y-15250
X46250Y-12500
X50250Y-12500
X46250Y-9750
X50250Y-9750
T4
X65000Y-19750
X65000Y-20750
X65000Y-14250
X65000Y-15250
X54000Y-11500
X54000Y-12500
X65000Y-11500
X65000Y-12500
X56750Y-19750
X56750Y-20750
X56750Y-17000
X56750Y-18000
X62250Y-17000
X62250Y-18000
X62250Y-14250
X62250Y-15250
X62250Y-11500
X62250Y-12500
X54000Y-19750
X54000Y-20750
X59500Y-19750
X59500Y-20750
X59500Y-17000
X59500Y-18000
X59500Y-11500
X59500Y-12500
X54000Y-8750
X54000Y-9750
X65000Y-8750
X65000Y-9750
X56750Y-14250
X56750Y-15250
X56750Y-11500
X56750Y-12500
X54000Y-17000
X54000Y-18000
X65000Y-17000
X65000Y-18000
X54000Y-14250
X54000Y-15250
X59500Y-14250
X59500Y-15250
X59500Y-8750
X59500Y-9750
X62250Y-19750
X62250Y-20750
X56750Y-8750
X56750Y-9750
X62250Y-8750
X62250Y-9750
T5
X56500Y-23500
X56500Y-29500
X57500Y-23500
X57500Y-29500
X58500Y-23500
X58500Y-29500
X58950Y-28350
X59500Y-23500
X59500Y-29500
X59950Y-28350
X60500Y-23500
X60500Y-29500
X61500Y-23500
X61500Y-29500
X62500Y-23500
X62500Y-29500
X63050Y-28350
X63500Y-23500
X63500Y-29500
X64050Y-28350
X64500Y-23500
X64500Y-29500
X65500Y-23500
X65500Y-29500
X66500Y-23500
X66500Y-29500
X67500Y-23500
X67500Y-29500
X68500Y-24000
X68500Y-25000
X68500Y-26000
X68500Y-27000
X68500Y-28000
X68500Y-29000
T0
M30
