G04 #@! TF.GenerationSoftware,KiCad,Pcbnew,(5.0.2-5)-5*
G04 #@! TF.CreationDate,2022-03-24T12:02:08+00:00*
G04 #@! TF.ProjectId,bee-badge-2000,6265652d-6261-4646-9765-2d323030302e,rev?*
G04 #@! TF.SameCoordinates,Original*
G04 #@! TF.FileFunction,Copper,L2,Bot*
G04 #@! TF.FilePolarity,Positive*
%FSLAX46Y46*%
G04 Gerber Fmt 4.6, Leading zero omitted, Abs format (unit mm)*
G04 Created by KiCad (PCBNEW (5.0.2-5)-5) date Thursday, 24 March 2022 at 12:02:08*
%MOMM*%
%LPD*%
G01*
G04 APERTURE LIST*
G04 #@! TA.AperFunction,EtchedComponent*
%ADD10C,0.010000*%
G04 #@! TD*
G04 #@! TA.AperFunction,ComponentPad*
%ADD11O,1.600000X1.600000*%
G04 #@! TD*
G04 #@! TA.AperFunction,ComponentPad*
%ADD12C,1.600000*%
G04 #@! TD*
G04 #@! TA.AperFunction,ComponentPad*
%ADD13C,1.879600*%
G04 #@! TD*
G04 #@! TA.AperFunction,ComponentPad*
%ADD14C,1.800000*%
G04 #@! TD*
G04 #@! TA.AperFunction,ComponentPad*
%ADD15R,1.800000X1.800000*%
G04 #@! TD*
G04 #@! TA.AperFunction,ComponentPad*
%ADD16C,1.524000*%
G04 #@! TD*
G04 #@! TA.AperFunction,ViaPad*
%ADD17C,0.800000*%
G04 #@! TD*
G04 #@! TA.AperFunction,Conductor*
%ADD18C,1.000000*%
G04 #@! TD*
G04 #@! TA.AperFunction,Conductor*
%ADD19C,0.500000*%
G04 #@! TD*
G04 #@! TA.AperFunction,Conductor*
%ADD20C,0.250000*%
G04 #@! TD*
G04 #@! TA.AperFunction,Conductor*
%ADD21C,0.254000*%
G04 #@! TD*
%ADD22C,0.254000*%
G04 APERTURE END LIST*
D10*
G04 #@! TO.C,AE1*
G36*
X91000000Y-43135000D02*
X91000000Y-78635000D01*
X94000000Y-78635000D01*
X94000000Y-42635000D01*
X101000000Y-42635000D01*
X101000000Y-60635000D01*
X108000000Y-60635000D01*
X108500000Y-61135000D01*
X108500000Y-62135000D01*
X108000000Y-62635000D01*
X99000000Y-62635000D01*
X99000000Y-44635000D01*
X96000000Y-44635000D01*
X96000000Y-80635000D01*
X89000000Y-80635000D01*
X89000000Y-44635000D01*
X86000000Y-44635000D01*
X86000000Y-80635000D01*
X84000000Y-80635000D01*
X84000000Y-42635000D01*
X91000000Y-42635000D01*
X91000000Y-43135000D01*
G37*
X91000000Y-43135000D02*
X91000000Y-78635000D01*
X94000000Y-78635000D01*
X94000000Y-42635000D01*
X101000000Y-42635000D01*
X101000000Y-60635000D01*
X108000000Y-60635000D01*
X108500000Y-61135000D01*
X108500000Y-62135000D01*
X108000000Y-62635000D01*
X99000000Y-62635000D01*
X99000000Y-44635000D01*
X96000000Y-44635000D01*
X96000000Y-80635000D01*
X89000000Y-80635000D01*
X89000000Y-44635000D01*
X86000000Y-44635000D01*
X86000000Y-80635000D01*
X84000000Y-80635000D01*
X84000000Y-42635000D01*
X91000000Y-42635000D01*
X91000000Y-43135000D01*
G04 #@! TD*
D11*
G04 #@! TO.P,R4,2*
G04 #@! TO.N,Row_3*
X117500000Y-45750000D03*
D12*
G04 #@! TO.P,R4,1*
G04 #@! TO.N,Net-(D14-Pad1)*
X127660000Y-45750000D03*
G04 #@! TD*
D13*
G04 #@! TO.P,U1,JP1_1*
G04 #@! TO.N,N/C*
X173990000Y-73660000D03*
G04 #@! TO.P,U1,JP1_2*
X173990000Y-71120000D03*
G04 #@! TO.P,U1,JP1_3*
X173990000Y-68580000D03*
G04 #@! TO.P,U1,JP1_4*
G04 #@! TO.N,3v0*
X173990000Y-66040000D03*
G04 #@! TO.P,U1,JP1_5*
G04 #@! TO.N,GND*
X173990000Y-63500000D03*
G04 #@! TO.P,U1,JP1_6*
X173990000Y-60960000D03*
G04 #@! TO.P,U1,JP2_1*
G04 #@! TO.N,Row_0*
X160147000Y-72009000D03*
G04 #@! TO.P,U1,JP2_2*
G04 #@! TO.N,Scan*
X162687000Y-72009000D03*
G04 #@! TO.P,U1,JP3_2*
G04 #@! TO.N,N/C*
X152273000Y-72009000D03*
G04 #@! TO.P,U1,JP3_1*
X149733000Y-72009000D03*
G04 #@! TO.P,U1,JP6_1*
X171450000Y-74930000D03*
G04 #@! TO.P,U1,JP6_2*
G04 #@! TO.N,GND*
X168910000Y-74930000D03*
G04 #@! TO.P,U1,JP6_3*
G04 #@! TO.N,N/C*
X166370000Y-74930000D03*
G04 #@! TO.P,U1,JP6_4*
X163830000Y-74930000D03*
G04 #@! TO.P,U1,JP6_5*
G04 #@! TO.N,Row_1*
X161290000Y-74930000D03*
G04 #@! TO.P,U1,JP6_6*
G04 #@! TO.N,Row_2*
X158750000Y-74930000D03*
G04 #@! TO.P,U1,JP6_7*
G04 #@! TO.N,Row_3*
X156210000Y-74930000D03*
G04 #@! TO.P,U1,JP6_8*
G04 #@! TO.N,Row_4*
X153670000Y-74930000D03*
G04 #@! TO.P,U1,JP6_9*
G04 #@! TO.N,SCK*
X151130000Y-74930000D03*
G04 #@! TO.P,U1,JP6_10*
G04 #@! TO.N,MISO*
X148590000Y-74930000D03*
G04 #@! TO.P,U1,JP6_11*
G04 #@! TO.N,MOSI*
X146050000Y-74930000D03*
G04 #@! TO.P,U1,JP6_12*
G04 #@! TO.N,NSS*
X143510000Y-74930000D03*
G04 #@! TO.P,U1,JP7_1*
G04 #@! TO.N,N/C*
X143510000Y-59690000D03*
G04 #@! TO.P,U1,JP7_2*
X146050000Y-59690000D03*
G04 #@! TO.P,U1,JP7_3*
G04 #@! TO.N,Col_4*
X148590000Y-59690000D03*
G04 #@! TO.P,U1,JP7_4*
G04 #@! TO.N,Col_3*
X151130000Y-59690000D03*
G04 #@! TO.P,U1,JP7_5*
G04 #@! TO.N,Col_2*
X153670000Y-59690000D03*
G04 #@! TO.P,U1,JP7_6*
G04 #@! TO.N,Col_1*
X156210000Y-59690000D03*
G04 #@! TO.P,U1,JP7_7*
G04 #@! TO.N,Col_0*
X158750000Y-59690000D03*
G04 #@! TO.P,U1,JP7_8*
G04 #@! TO.N,INT_0*
X161290000Y-59690000D03*
G04 #@! TO.P,U1,JP7_9*
G04 #@! TO.N,GND*
X163830000Y-59690000D03*
G04 #@! TO.P,U1,JP7_10*
G04 #@! TO.N,N/C*
X166370000Y-59690000D03*
G04 #@! TO.P,U1,JP7_11*
X168910000Y-59690000D03*
G04 #@! TO.P,U1,JP7_12*
X171450000Y-59690000D03*
G04 #@! TD*
D14*
G04 #@! TO.P,D1,2*
G04 #@! TO.N,Col_4*
X137160000Y-22225000D03*
D15*
G04 #@! TO.P,D1,1*
G04 #@! TO.N,Net-(D1-Pad1)*
X137160000Y-24765000D03*
G04 #@! TD*
D14*
G04 #@! TO.P,D2,2*
G04 #@! TO.N,Col_4*
X137160000Y-29210000D03*
D15*
G04 #@! TO.P,D2,1*
G04 #@! TO.N,Net-(D12-Pad1)*
X137160000Y-31750000D03*
G04 #@! TD*
D14*
G04 #@! TO.P,D3,2*
G04 #@! TO.N,Col_4*
X137160000Y-36195000D03*
D15*
G04 #@! TO.P,D3,1*
G04 #@! TO.N,Net-(D13-Pad1)*
X137160000Y-38735000D03*
G04 #@! TD*
D14*
G04 #@! TO.P,D4,2*
G04 #@! TO.N,Col_4*
X137160000Y-43180000D03*
D15*
G04 #@! TO.P,D4,1*
G04 #@! TO.N,Net-(D14-Pad1)*
X137160000Y-45720000D03*
G04 #@! TD*
D14*
G04 #@! TO.P,D5,2*
G04 #@! TO.N,Col_4*
X137160000Y-50165000D03*
D15*
G04 #@! TO.P,D5,1*
G04 #@! TO.N,Net-(D10-Pad1)*
X137160000Y-52705000D03*
G04 #@! TD*
D14*
G04 #@! TO.P,D6,2*
G04 #@! TO.N,Col_3*
X144145000Y-22225000D03*
D15*
G04 #@! TO.P,D6,1*
G04 #@! TO.N,Net-(D1-Pad1)*
X144145000Y-24765000D03*
G04 #@! TD*
D14*
G04 #@! TO.P,D7,2*
G04 #@! TO.N,Col_3*
X144145000Y-29210000D03*
D15*
G04 #@! TO.P,D7,1*
G04 #@! TO.N,Net-(D12-Pad1)*
X144145000Y-31750000D03*
G04 #@! TD*
D14*
G04 #@! TO.P,D8,2*
G04 #@! TO.N,Col_3*
X144145000Y-36195000D03*
D15*
G04 #@! TO.P,D8,1*
G04 #@! TO.N,Net-(D13-Pad1)*
X144145000Y-38735000D03*
G04 #@! TD*
D14*
G04 #@! TO.P,D9,2*
G04 #@! TO.N,Col_3*
X144145000Y-43180000D03*
D15*
G04 #@! TO.P,D9,1*
G04 #@! TO.N,Net-(D14-Pad1)*
X144145000Y-45720000D03*
G04 #@! TD*
D14*
G04 #@! TO.P,D10,2*
G04 #@! TO.N,Col_3*
X144145000Y-50165000D03*
D15*
G04 #@! TO.P,D10,1*
G04 #@! TO.N,Net-(D10-Pad1)*
X144145000Y-52705000D03*
G04 #@! TD*
D14*
G04 #@! TO.P,D11,2*
G04 #@! TO.N,Col_2*
X151130000Y-22225000D03*
D15*
G04 #@! TO.P,D11,1*
G04 #@! TO.N,Net-(D1-Pad1)*
X151130000Y-24765000D03*
G04 #@! TD*
D14*
G04 #@! TO.P,D12,2*
G04 #@! TO.N,Col_2*
X151130000Y-29210000D03*
D15*
G04 #@! TO.P,D12,1*
G04 #@! TO.N,Net-(D12-Pad1)*
X151130000Y-31750000D03*
G04 #@! TD*
D14*
G04 #@! TO.P,D13,2*
G04 #@! TO.N,Col_2*
X151130000Y-36195000D03*
D15*
G04 #@! TO.P,D13,1*
G04 #@! TO.N,Net-(D13-Pad1)*
X151130000Y-38735000D03*
G04 #@! TD*
D14*
G04 #@! TO.P,D14,2*
G04 #@! TO.N,Col_2*
X151130000Y-43180000D03*
D15*
G04 #@! TO.P,D14,1*
G04 #@! TO.N,Net-(D14-Pad1)*
X151130000Y-45720000D03*
G04 #@! TD*
D14*
G04 #@! TO.P,D15,2*
G04 #@! TO.N,Col_2*
X151130000Y-50165000D03*
D15*
G04 #@! TO.P,D15,1*
G04 #@! TO.N,Net-(D10-Pad1)*
X151130000Y-52705000D03*
G04 #@! TD*
D14*
G04 #@! TO.P,D16,2*
G04 #@! TO.N,Col_1*
X158115000Y-22225000D03*
D15*
G04 #@! TO.P,D16,1*
G04 #@! TO.N,Net-(D1-Pad1)*
X158115000Y-24765000D03*
G04 #@! TD*
D14*
G04 #@! TO.P,D17,2*
G04 #@! TO.N,Col_1*
X158115000Y-29210000D03*
D15*
G04 #@! TO.P,D17,1*
G04 #@! TO.N,Net-(D12-Pad1)*
X158115000Y-31750000D03*
G04 #@! TD*
D14*
G04 #@! TO.P,D18,2*
G04 #@! TO.N,Col_1*
X158115000Y-36195000D03*
D15*
G04 #@! TO.P,D18,1*
G04 #@! TO.N,Net-(D13-Pad1)*
X158115000Y-38735000D03*
G04 #@! TD*
D14*
G04 #@! TO.P,D19,2*
G04 #@! TO.N,Col_1*
X158115000Y-43180000D03*
D15*
G04 #@! TO.P,D19,1*
G04 #@! TO.N,Net-(D14-Pad1)*
X158115000Y-45720000D03*
G04 #@! TD*
D14*
G04 #@! TO.P,D20,2*
G04 #@! TO.N,Col_1*
X158115000Y-50165000D03*
D15*
G04 #@! TO.P,D20,1*
G04 #@! TO.N,Net-(D10-Pad1)*
X158115000Y-52705000D03*
G04 #@! TD*
D14*
G04 #@! TO.P,D21,2*
G04 #@! TO.N,Col_0*
X165100000Y-22225000D03*
D15*
G04 #@! TO.P,D21,1*
G04 #@! TO.N,Net-(D1-Pad1)*
X165100000Y-24765000D03*
G04 #@! TD*
D14*
G04 #@! TO.P,D22,2*
G04 #@! TO.N,Col_0*
X165100000Y-29210000D03*
D15*
G04 #@! TO.P,D22,1*
G04 #@! TO.N,Net-(D12-Pad1)*
X165100000Y-31750000D03*
G04 #@! TD*
D14*
G04 #@! TO.P,D23,2*
G04 #@! TO.N,Col_0*
X165100000Y-36195000D03*
D15*
G04 #@! TO.P,D23,1*
G04 #@! TO.N,Net-(D13-Pad1)*
X165100000Y-38735000D03*
G04 #@! TD*
D14*
G04 #@! TO.P,D24,2*
G04 #@! TO.N,Col_0*
X165100000Y-43180000D03*
D15*
G04 #@! TO.P,D24,1*
G04 #@! TO.N,Net-(D14-Pad1)*
X165100000Y-45720000D03*
G04 #@! TD*
D14*
G04 #@! TO.P,D25,2*
G04 #@! TO.N,Col_0*
X165100000Y-50165000D03*
D15*
G04 #@! TO.P,D25,1*
G04 #@! TO.N,Net-(D10-Pad1)*
X165100000Y-52705000D03*
G04 #@! TD*
D11*
G04 #@! TO.P,R1,2*
G04 #@! TO.N,Row_0*
X117475000Y-24765000D03*
D12*
G04 #@! TO.P,R1,1*
G04 #@! TO.N,Net-(D1-Pad1)*
X127635000Y-24765000D03*
G04 #@! TD*
D11*
G04 #@! TO.P,R2,2*
G04 #@! TO.N,Row_1*
X117475000Y-31750000D03*
D12*
G04 #@! TO.P,R2,1*
G04 #@! TO.N,Net-(D12-Pad1)*
X127635000Y-31750000D03*
G04 #@! TD*
D11*
G04 #@! TO.P,R3,2*
G04 #@! TO.N,Row_2*
X117500000Y-38735000D03*
D12*
G04 #@! TO.P,R3,1*
G04 #@! TO.N,Net-(D13-Pad1)*
X127660000Y-38735000D03*
G04 #@! TD*
D11*
G04 #@! TO.P,R5,2*
G04 #@! TO.N,Row_4*
X117475000Y-52705000D03*
D12*
G04 #@! TO.P,R5,1*
G04 #@! TO.N,Net-(D10-Pad1)*
X127635000Y-52705000D03*
G04 #@! TD*
D16*
G04 #@! TO.P,SW1,3*
G04 #@! TO.N,N/C*
X176490000Y-81280000D03*
G04 #@! TO.P,SW1,2*
G04 #@! TO.N,3v0*
X173950000Y-81280000D03*
G04 #@! TO.P,SW1,1*
G04 #@! TO.N,Net-(BT1-Pad1)*
X171450000Y-81280000D03*
G04 #@! TD*
G04 #@! TO.P,SW2,3*
G04 #@! TO.N,GND*
X162520000Y-81280000D03*
G04 #@! TO.P,SW2,2*
G04 #@! TO.N,Scan*
X159980000Y-81280000D03*
G04 #@! TO.P,SW2,1*
G04 #@! TO.N,N/C*
X157480000Y-81280000D03*
G04 #@! TD*
G04 #@! TO.P,BT1,2*
G04 #@! TO.N,GND*
X135955000Y-83820000D03*
G04 #@! TO.P,BT1,1*
G04 #@! TO.N,Net-(BT1-Pad1)*
X147955000Y-83820000D03*
G04 #@! TD*
D17*
G04 #@! TO.N,*
X103847643Y-61635000D03*
X100000000Y-61635000D03*
X100000000Y-55635000D03*
X94957643Y-79635000D03*
X94957643Y-73635000D03*
X94957643Y-67635000D03*
X94957643Y-61635000D03*
X95000000Y-55635000D03*
X100000000Y-43635000D03*
X90000000Y-43635000D03*
X85000000Y-43635000D03*
X85000000Y-49530000D03*
X90000000Y-49635000D03*
X90000000Y-55635000D03*
X85000000Y-55635000D03*
X85000000Y-61595000D03*
X90000000Y-61635000D03*
X90000000Y-67635000D03*
X85000000Y-67635000D03*
X90000000Y-73635000D03*
X85000000Y-73635000D03*
X85000000Y-79635000D03*
X90000000Y-79635000D03*
X100000000Y-49635000D03*
X95000000Y-43635000D03*
X95000000Y-49635000D03*
G04 #@! TO.N,GND*
X111000000Y-64000000D03*
X111000000Y-69000000D03*
X111000000Y-74000000D03*
X111000000Y-79000000D03*
X111000000Y-84000000D03*
X116000000Y-84000000D03*
X116000000Y-79000000D03*
X131000000Y-84000000D03*
X121000000Y-84000000D03*
X121000000Y-79000000D03*
X126000000Y-84000000D03*
X141000000Y-84000000D03*
X144750000Y-84000000D03*
X146000000Y-79000000D03*
X151000000Y-79000000D03*
X165000000Y-78000000D03*
X170000000Y-78000000D03*
X111000000Y-59000000D03*
X111000000Y-53000000D03*
X124000000Y-64000000D03*
X123000000Y-68000000D03*
X128000000Y-68000000D03*
X127000000Y-72000000D03*
X118000000Y-59000000D03*
X118000000Y-64000000D03*
X129000000Y-56000000D03*
X165000000Y-63000000D03*
X170000000Y-63000000D03*
X165000000Y-68000000D03*
X170000000Y-68000000D03*
X170000000Y-72000000D03*
X161000000Y-66000000D03*
X111000000Y-48000000D03*
X111000000Y-43000000D03*
X111000000Y-38000000D03*
X111000000Y-33000000D03*
X111000000Y-29000000D03*
X111000000Y-24000000D03*
X115000000Y-24000000D03*
X115000000Y-29000000D03*
X115000000Y-33000000D03*
X115000000Y-38000000D03*
X115000000Y-43000000D03*
X115000000Y-48000000D03*
X115000000Y-53000000D03*
X131000000Y-50000000D03*
X131000000Y-43000000D03*
X131000000Y-36000000D03*
X131000000Y-28000000D03*
X131000000Y-22000000D03*
X172000000Y-53000000D03*
X177000000Y-53000000D03*
X177000000Y-48000000D03*
X172000000Y-48000000D03*
X172000000Y-43000000D03*
X172000000Y-38000000D03*
X172000000Y-33000000D03*
X177000000Y-33000000D03*
X177000000Y-38000000D03*
X177000000Y-43000000D03*
X177000000Y-28000000D03*
X172000000Y-28000000D03*
X172000000Y-23000000D03*
X177000000Y-23000000D03*
X147750000Y-69750000D03*
X138500000Y-59750000D03*
X156500000Y-62500000D03*
X136000000Y-60750000D03*
X140500000Y-60750000D03*
X125000000Y-52750000D03*
X125000000Y-48000000D03*
X125000000Y-43250000D03*
X125000000Y-38250000D03*
X125000000Y-33000000D03*
X125000000Y-24750000D03*
X142000000Y-34250000D03*
X142000000Y-27000000D03*
X149000000Y-27000000D03*
X160250000Y-27250000D03*
X160250000Y-34250000D03*
X160250000Y-41000000D03*
X160000000Y-48000000D03*
X149000000Y-48250000D03*
X149000000Y-41000000D03*
X149000000Y-34000000D03*
X141750000Y-41000000D03*
X142000000Y-48000000D03*
X118000000Y-76000000D03*
X113000000Y-76000000D03*
X135000000Y-69500000D03*
G04 #@! TD*
D18*
G04 #@! TO.N,Col_1*
X156210000Y-56515000D02*
X156210000Y-59690000D01*
X156210000Y-22225000D02*
X156210000Y-56515000D01*
X156210000Y-50165000D02*
X158115000Y-50165000D01*
X156210000Y-43180000D02*
X158115000Y-43180000D01*
X158115000Y-36195000D02*
X156210000Y-36195000D01*
X158115000Y-29210000D02*
X156210000Y-29210000D01*
X158115000Y-22225000D02*
X156210000Y-22225000D01*
D19*
G04 #@! TO.N,Row_1*
X158750000Y-73025000D02*
X161290000Y-74930000D01*
X158750000Y-69850000D02*
X158750000Y-73025000D01*
X153035000Y-64135000D02*
X158750000Y-69850000D01*
X130810000Y-64135000D02*
X153035000Y-64135000D01*
X121920000Y-55245000D02*
X130810000Y-64135000D01*
X121920000Y-36195000D02*
X121920000Y-55245000D01*
X117475000Y-31750000D02*
X121920000Y-36195000D01*
G04 #@! TO.N,Row_2*
X157810201Y-73990201D02*
X158750000Y-74930000D01*
X157480000Y-73660000D02*
X157810201Y-73990201D01*
X157480000Y-71120000D02*
X157480000Y-73660000D01*
X151765000Y-65405000D02*
X157480000Y-71120000D01*
X130810000Y-65405000D02*
X151765000Y-65405000D01*
X120650000Y-55245000D02*
X130810000Y-65405000D01*
X120650000Y-41910000D02*
X120650000Y-55245000D01*
X117590000Y-38750000D02*
X120650000Y-41910000D01*
G04 #@! TO.N,Row_3*
X117475000Y-45720000D02*
X119380000Y-47625000D01*
X156210000Y-71755000D02*
X156210000Y-74930000D01*
X119380000Y-47625000D02*
X119380000Y-55245000D01*
X130810000Y-66675000D02*
X151130000Y-66675000D01*
X151130000Y-66675000D02*
X156210000Y-71755000D01*
X119380000Y-55245000D02*
X130810000Y-66675000D01*
G04 #@! TO.N,Row_4*
X117475000Y-52705000D02*
X117475000Y-54610000D01*
X130810000Y-67945000D02*
X150495000Y-67945000D01*
X150495000Y-67945000D02*
X154305000Y-71755000D01*
X154305000Y-71755000D02*
X154305000Y-73025000D01*
X117475000Y-54610000D02*
X130810000Y-67945000D01*
X154305000Y-73025000D02*
X153670000Y-73660000D01*
X153670000Y-73660000D02*
X153670000Y-74930000D01*
D18*
G04 #@! TO.N,Col_2*
X151130000Y-29210000D02*
X153670000Y-29210000D01*
X153670000Y-36195000D02*
X151130000Y-36195000D01*
X151130000Y-43180000D02*
X153670000Y-43180000D01*
X151130000Y-50165000D02*
X153670000Y-50165000D01*
X153670000Y-22225000D02*
X153670000Y-50165000D01*
X151130000Y-22225000D02*
X153670000Y-22225000D01*
X153670000Y-55880000D02*
X153670000Y-59690000D01*
X153670000Y-50165000D02*
X153670000Y-55880000D01*
G04 #@! TO.N,Col_3*
X144145000Y-43180000D02*
X146685000Y-43180000D01*
X144145000Y-36195000D02*
X146685000Y-36195000D01*
X146685000Y-29210000D02*
X144145000Y-29210000D01*
X146685000Y-50165000D02*
X144780000Y-50165000D01*
X151130000Y-57785000D02*
X151130000Y-59690000D01*
X149860000Y-56515000D02*
X151130000Y-57785000D01*
X146685000Y-53340000D02*
X149860000Y-56515000D01*
X146685000Y-22225000D02*
X146685000Y-53340000D01*
X144145000Y-22225000D02*
X146685000Y-22225000D01*
G04 #@! TO.N,Col_4*
X137160000Y-50165000D02*
X139700000Y-50165000D01*
X137160000Y-43180000D02*
X139700000Y-43180000D01*
X137160000Y-29210000D02*
X139700000Y-29210000D01*
X139700000Y-36195000D02*
X137160000Y-36195000D01*
X148590000Y-58420000D02*
X148590000Y-59690000D01*
X146685000Y-56515000D02*
X148590000Y-58420000D01*
X143510000Y-56515000D02*
X146685000Y-56515000D01*
X139700000Y-52705000D02*
X143510000Y-56515000D01*
X139700000Y-22225000D02*
X139700000Y-52705000D01*
X137160000Y-22225000D02*
X139700000Y-22225000D01*
G04 #@! TO.N,Col_0*
X162560000Y-29210000D02*
X165100000Y-29210000D01*
X162560000Y-36195000D02*
X165100000Y-36195000D01*
X162560000Y-43180000D02*
X165100000Y-43180000D01*
X165100000Y-50165000D02*
X162560000Y-50165000D01*
X162560000Y-22225000D02*
X165100000Y-22225000D01*
X162560000Y-54610000D02*
X162560000Y-22225000D01*
X158750000Y-58420000D02*
X162560000Y-54610000D01*
X158750000Y-59690000D02*
X158750000Y-58420000D01*
D19*
G04 #@! TO.N,Row_0*
X160147000Y-69342000D02*
X160147000Y-72009000D01*
X153670000Y-62865000D02*
X160147000Y-69342000D01*
X130810000Y-62865000D02*
X153670000Y-62865000D01*
X123190000Y-55245000D02*
X130810000Y-62865000D01*
X123190000Y-30480000D02*
X123190000Y-55245000D01*
X117475000Y-24765000D02*
X123190000Y-30480000D01*
D20*
G04 #@! TO.N,Scan*
X162560000Y-74295000D02*
X162560000Y-75565000D01*
D19*
X159980000Y-78780000D02*
X159980000Y-81280000D01*
X162560000Y-76200000D02*
X159980000Y-78780000D01*
X162560000Y-75565000D02*
X162560000Y-76200000D01*
X162560000Y-73025000D02*
X162687000Y-72009000D01*
X162560000Y-74295000D02*
X162560000Y-73025000D01*
G04 #@! TD*
D21*
G04 #@! TO.N,GND*
X109347000Y-20132000D02*
X179868000Y-20132000D01*
X109347000Y-20373300D02*
X136333595Y-20373300D01*
X137986406Y-20373300D02*
X143318595Y-20373300D01*
X144971406Y-20373300D02*
X150303595Y-20373300D01*
X151956406Y-20373300D02*
X157288595Y-20373300D01*
X158941406Y-20373300D02*
X164273595Y-20373300D01*
X165926406Y-20373300D02*
X179868000Y-20373300D01*
X109347000Y-20614600D02*
X135903790Y-20614600D01*
X139943697Y-20614600D02*
X142888790Y-20614600D01*
X146928697Y-20614600D02*
X149873790Y-20614600D01*
X153913697Y-20614600D02*
X155966304Y-20614600D01*
X159371210Y-20614600D02*
X162316304Y-20614600D01*
X166356210Y-20614600D02*
X179868000Y-20614600D01*
X109347000Y-20855900D02*
X135662490Y-20855900D01*
X140579519Y-20855900D02*
X142647490Y-20855900D01*
X147564519Y-20855900D02*
X149632490Y-20855900D01*
X154549519Y-20855900D02*
X155330482Y-20855900D01*
X159612510Y-20855900D02*
X161680482Y-20855900D01*
X166597510Y-20855900D02*
X179868000Y-20855900D01*
X109347000Y-21097200D02*
X135433142Y-21097200D01*
X140903204Y-21097200D02*
X142418142Y-21097200D01*
X147888204Y-21097200D02*
X149403142Y-21097200D01*
X154873204Y-21097200D02*
X155006797Y-21097200D01*
X159841859Y-21097200D02*
X161356797Y-21097200D01*
X166826859Y-21097200D02*
X179868000Y-21097200D01*
X109347000Y-21338500D02*
X135333192Y-21338500D01*
X141064436Y-21338500D02*
X142318192Y-21338500D01*
X148049436Y-21338500D02*
X149303192Y-21338500D01*
X159941809Y-21338500D02*
X161195565Y-21338500D01*
X166926809Y-21338500D02*
X179868000Y-21338500D01*
X109347000Y-21579800D02*
X135233242Y-21579800D01*
X141225667Y-21579800D02*
X142218242Y-21579800D01*
X148210667Y-21579800D02*
X149203242Y-21579800D01*
X160041759Y-21579800D02*
X161034334Y-21579800D01*
X167026759Y-21579800D02*
X179868000Y-21579800D01*
X109347000Y-21821100D02*
X135133293Y-21821100D01*
X141278534Y-21821100D02*
X142118293Y-21821100D01*
X148263534Y-21821100D02*
X149103293Y-21821100D01*
X160141708Y-21821100D02*
X160981467Y-21821100D01*
X167126708Y-21821100D02*
X179868000Y-21821100D01*
X109347000Y-22062400D02*
X135133000Y-22062400D01*
X141326531Y-22062400D02*
X142118000Y-22062400D01*
X148311531Y-22062400D02*
X149103000Y-22062400D01*
X160142000Y-22062400D02*
X160933470Y-22062400D01*
X167127000Y-22062400D02*
X179868000Y-22062400D01*
X109347000Y-22303700D02*
X135133000Y-22303700D01*
X141343219Y-22303700D02*
X142118000Y-22303700D01*
X148328219Y-22303700D02*
X149103000Y-22303700D01*
X160142000Y-22303700D02*
X160916780Y-22303700D01*
X167127000Y-22303700D02*
X179868000Y-22303700D01*
X109347000Y-22545000D02*
X135133000Y-22545000D01*
X141327000Y-22545000D02*
X142118000Y-22545000D01*
X148312000Y-22545000D02*
X149103000Y-22545000D01*
X160142000Y-22545000D02*
X160933001Y-22545000D01*
X167127000Y-22545000D02*
X179868000Y-22545000D01*
X109347000Y-22786300D02*
X135198489Y-22786300D01*
X141327000Y-22786300D02*
X142183489Y-22786300D01*
X148312000Y-22786300D02*
X149168489Y-22786300D01*
X160076510Y-22786300D02*
X160933001Y-22786300D01*
X167061510Y-22786300D02*
X179868000Y-22786300D01*
X109347000Y-23027600D02*
X116606696Y-23027600D01*
X118343305Y-23027600D02*
X126793961Y-23027600D01*
X128476040Y-23027600D02*
X135298438Y-23027600D01*
X141327000Y-23027600D02*
X142283438Y-23027600D01*
X148312000Y-23027600D02*
X149268438Y-23027600D01*
X159976561Y-23027600D02*
X160933001Y-23027600D01*
X166961561Y-23027600D02*
X179868000Y-23027600D01*
X109347000Y-23268900D02*
X116245565Y-23268900D01*
X118704436Y-23268900D02*
X126405910Y-23268900D01*
X128864090Y-23268900D02*
X135302870Y-23268900D01*
X141327000Y-23268900D02*
X142287870Y-23268900D01*
X148312000Y-23268900D02*
X149272870Y-23268900D01*
X159972131Y-23268900D02*
X160933001Y-23268900D01*
X166957131Y-23268900D02*
X179868000Y-23268900D01*
X109347000Y-23510200D02*
X115995849Y-23510200D01*
X118954152Y-23510200D02*
X126164610Y-23510200D01*
X129105390Y-23510200D02*
X135181495Y-23510200D01*
X141327000Y-23510200D02*
X142166495Y-23510200D01*
X148312000Y-23510200D02*
X149151495Y-23510200D01*
X160093506Y-23510200D02*
X160933001Y-23510200D01*
X167078506Y-23510200D02*
X179868000Y-23510200D01*
X109347000Y-23751500D02*
X115834617Y-23751500D01*
X119115384Y-23751500D02*
X125969036Y-23751500D01*
X129300965Y-23751500D02*
X135133498Y-23751500D01*
X141327000Y-23751500D02*
X142118498Y-23751500D01*
X148312000Y-23751500D02*
X149103498Y-23751500D01*
X160141503Y-23751500D02*
X160933001Y-23751500D01*
X167126503Y-23751500D02*
X179868000Y-23751500D01*
X109347000Y-23992800D02*
X115673385Y-23992800D01*
X119276616Y-23992800D02*
X125869086Y-23992800D01*
X129400915Y-23992800D02*
X135110921Y-23992800D01*
X141327000Y-23992800D02*
X142095921Y-23992800D01*
X148312000Y-23992800D02*
X149080921Y-23992800D01*
X160164079Y-23992800D02*
X160933001Y-23992800D01*
X167149079Y-23992800D02*
X179868000Y-23992800D01*
X109347000Y-24234100D02*
X115615851Y-24234100D01*
X119334150Y-24234100D02*
X125769137Y-24234100D01*
X129500864Y-24234100D02*
X135110921Y-24234100D01*
X141327000Y-24234100D02*
X142095921Y-24234100D01*
X148312000Y-24234100D02*
X149080921Y-24234100D01*
X160164079Y-24234100D02*
X160933001Y-24234100D01*
X167149079Y-24234100D02*
X179868000Y-24234100D01*
X109347000Y-24475400D02*
X115567854Y-24475400D01*
X119382148Y-24475400D02*
X125708000Y-24475400D01*
X129562000Y-24475400D02*
X135110921Y-24475400D01*
X141327000Y-24475400D02*
X142095921Y-24475400D01*
X148312000Y-24475400D02*
X149080921Y-24475400D01*
X160164079Y-24475400D02*
X160933001Y-24475400D01*
X167149079Y-24475400D02*
X179868000Y-24475400D01*
X109347000Y-24716700D02*
X115519856Y-24716700D01*
X119430145Y-24716700D02*
X125708000Y-24716700D01*
X129562000Y-24716700D02*
X135110921Y-24716700D01*
X141327000Y-24716700D02*
X142095921Y-24716700D01*
X148312000Y-24716700D02*
X149080921Y-24716700D01*
X160164079Y-24716700D02*
X160933001Y-24716700D01*
X167149079Y-24716700D02*
X179868000Y-24716700D01*
X109347000Y-24958000D02*
X115548638Y-24958000D01*
X119615372Y-24958000D02*
X125708000Y-24958000D01*
X129562000Y-24958000D02*
X135110921Y-24958000D01*
X141327000Y-24958000D02*
X142095921Y-24958000D01*
X148312000Y-24958000D02*
X149080921Y-24958000D01*
X160164079Y-24958000D02*
X160933001Y-24958000D01*
X167149079Y-24958000D02*
X179868000Y-24958000D01*
X109347000Y-25199300D02*
X115596635Y-25199300D01*
X119856672Y-25199300D02*
X125729123Y-25199300D01*
X129540876Y-25199300D02*
X135110921Y-25199300D01*
X141327000Y-25199300D02*
X142095921Y-25199300D01*
X148312000Y-25199300D02*
X149080921Y-25199300D01*
X160164079Y-25199300D02*
X160933001Y-25199300D01*
X167149079Y-25199300D02*
X179868000Y-25199300D01*
X109347000Y-25440600D02*
X115644633Y-25440600D01*
X120097972Y-25440600D02*
X125829072Y-25440600D01*
X129440927Y-25440600D02*
X135110921Y-25440600D01*
X141327000Y-25440600D02*
X142095921Y-25440600D01*
X148312000Y-25440600D02*
X149080921Y-25440600D01*
X160164079Y-25440600D02*
X160933001Y-25440600D01*
X167149079Y-25440600D02*
X179868000Y-25440600D01*
X109347000Y-25681900D02*
X115770070Y-25681900D01*
X120339272Y-25681900D02*
X125929022Y-25681900D01*
X129340977Y-25681900D02*
X135114282Y-25681900D01*
X141327000Y-25681900D02*
X142099282Y-25681900D01*
X148312000Y-25681900D02*
X149084282Y-25681900D01*
X160160717Y-25681900D02*
X160933001Y-25681900D01*
X167145717Y-25681900D02*
X179868000Y-25681900D01*
X109347000Y-25923200D02*
X115931302Y-25923200D01*
X120580572Y-25923200D02*
X126068010Y-25923200D01*
X129201990Y-25923200D02*
X135162279Y-25923200D01*
X141327000Y-25923200D02*
X142147279Y-25923200D01*
X148312000Y-25923200D02*
X149132279Y-25923200D01*
X160112720Y-25923200D02*
X160933001Y-25923200D01*
X167097720Y-25923200D02*
X179868000Y-25923200D01*
X109347000Y-26164500D02*
X116100992Y-26164500D01*
X120821872Y-26164500D02*
X126309310Y-26164500D01*
X128960690Y-26164500D02*
X135238323Y-26164500D01*
X141327000Y-26164500D02*
X142223323Y-26164500D01*
X148312000Y-26164500D02*
X149208323Y-26164500D01*
X160036676Y-26164500D02*
X160933001Y-26164500D01*
X167021676Y-26164500D02*
X179868000Y-26164500D01*
X109347000Y-26405800D02*
X116462123Y-26405800D01*
X121063172Y-26405800D02*
X126560747Y-26405800D01*
X128709252Y-26405800D02*
X135399555Y-26405800D01*
X141327000Y-26405800D02*
X142384555Y-26405800D01*
X148312000Y-26405800D02*
X149369555Y-26405800D01*
X159875444Y-26405800D02*
X160933001Y-26405800D01*
X166860444Y-26405800D02*
X179868000Y-26405800D01*
X109347000Y-26647100D02*
X117059480Y-26647100D01*
X121304472Y-26647100D02*
X127143297Y-26647100D01*
X128126702Y-26647100D02*
X135701270Y-26647100D01*
X141327000Y-26647100D02*
X142686270Y-26647100D01*
X148312000Y-26647100D02*
X149671270Y-26647100D01*
X159573729Y-26647100D02*
X160933001Y-26647100D01*
X166558729Y-26647100D02*
X179868000Y-26647100D01*
X109347000Y-26888400D02*
X117651028Y-26888400D01*
X121545772Y-26888400D02*
X138073000Y-26888400D01*
X141327000Y-26888400D02*
X145058000Y-26888400D01*
X148312000Y-26888400D02*
X152043000Y-26888400D01*
X157837000Y-26888400D02*
X160933001Y-26888400D01*
X164187000Y-26888400D02*
X179868000Y-26888400D01*
X109347000Y-27129700D02*
X117892328Y-27129700D01*
X121787072Y-27129700D02*
X138073000Y-27129700D01*
X141327000Y-27129700D02*
X145058000Y-27129700D01*
X148312000Y-27129700D02*
X152043000Y-27129700D01*
X157837000Y-27129700D02*
X160933001Y-27129700D01*
X164187000Y-27129700D02*
X179868000Y-27129700D01*
X109347000Y-27371000D02*
X118133628Y-27371000D01*
X122028372Y-27371000D02*
X136302934Y-27371000D01*
X138017066Y-27371000D02*
X138073000Y-27371000D01*
X141327000Y-27371000D02*
X143287934Y-27371000D01*
X145002066Y-27371000D02*
X145058000Y-27371000D01*
X148312000Y-27371000D02*
X150272934Y-27371000D01*
X151987066Y-27371000D02*
X152043000Y-27371000D01*
X158972067Y-27371000D02*
X160933001Y-27371000D01*
X164187000Y-27371000D02*
X164242935Y-27371000D01*
X165957067Y-27371000D02*
X179868000Y-27371000D01*
X109347000Y-27612300D02*
X118374928Y-27612300D01*
X122269672Y-27612300D02*
X135891090Y-27612300D01*
X141327000Y-27612300D02*
X142876090Y-27612300D01*
X148312000Y-27612300D02*
X149861090Y-27612300D01*
X159383910Y-27612300D02*
X160933001Y-27612300D01*
X166368910Y-27612300D02*
X179868000Y-27612300D01*
X109347000Y-27853600D02*
X118616228Y-27853600D01*
X122510972Y-27853600D02*
X135649790Y-27853600D01*
X141327000Y-27853600D02*
X142634790Y-27853600D01*
X148312000Y-27853600D02*
X149619790Y-27853600D01*
X159625210Y-27853600D02*
X160933001Y-27853600D01*
X166610210Y-27853600D02*
X179868000Y-27853600D01*
X109347000Y-28094900D02*
X118857528Y-28094900D01*
X122752272Y-28094900D02*
X135427882Y-28094900D01*
X141327000Y-28094900D02*
X142412882Y-28094900D01*
X148312000Y-28094900D02*
X149397882Y-28094900D01*
X159847119Y-28094900D02*
X160933001Y-28094900D01*
X166832119Y-28094900D02*
X179868000Y-28094900D01*
X109347000Y-28336200D02*
X119098828Y-28336200D01*
X122993572Y-28336200D02*
X135327932Y-28336200D01*
X141327000Y-28336200D02*
X142312932Y-28336200D01*
X148312000Y-28336200D02*
X149297932Y-28336200D01*
X159947069Y-28336200D02*
X160933001Y-28336200D01*
X166932069Y-28336200D02*
X179868000Y-28336200D01*
X109347000Y-28577500D02*
X119340128Y-28577500D01*
X123234872Y-28577500D02*
X135227982Y-28577500D01*
X141327000Y-28577500D02*
X142212982Y-28577500D01*
X148312000Y-28577500D02*
X149197982Y-28577500D01*
X160047019Y-28577500D02*
X160933001Y-28577500D01*
X167032019Y-28577500D02*
X179868000Y-28577500D01*
X109347000Y-28818800D02*
X119581428Y-28818800D01*
X123476172Y-28818800D02*
X135133000Y-28818800D01*
X141327000Y-28818800D02*
X142118000Y-28818800D01*
X148312000Y-28818800D02*
X149103000Y-28818800D01*
X160142000Y-28818800D02*
X160933001Y-28818800D01*
X167127000Y-28818800D02*
X179868000Y-28818800D01*
X109347000Y-29060100D02*
X119822728Y-29060100D01*
X123717472Y-29060100D02*
X135133000Y-29060100D01*
X141329058Y-29060100D02*
X142118000Y-29060100D01*
X148314058Y-29060100D02*
X149103000Y-29060100D01*
X160142000Y-29060100D02*
X160930944Y-29060100D01*
X167127000Y-29060100D02*
X179868000Y-29060100D01*
X109347000Y-29301400D02*
X120064028Y-29301400D01*
X123958772Y-29301400D02*
X135133000Y-29301400D01*
X141340693Y-29301400D02*
X142118000Y-29301400D01*
X148325693Y-29301400D02*
X149103000Y-29301400D01*
X160142000Y-29301400D02*
X160919306Y-29301400D01*
X167127000Y-29301400D02*
X179868000Y-29301400D01*
X109347000Y-29542700D02*
X120305328Y-29542700D01*
X124219820Y-29542700D02*
X135133000Y-29542700D01*
X141327000Y-29542700D02*
X142118000Y-29542700D01*
X148312000Y-29542700D02*
X149103000Y-29542700D01*
X160142000Y-29542700D02*
X160933001Y-29542700D01*
X167127000Y-29542700D02*
X179868000Y-29542700D01*
X109347000Y-29784000D02*
X120546628Y-29784000D01*
X124381052Y-29784000D02*
X135203749Y-29784000D01*
X141327000Y-29784000D02*
X142188749Y-29784000D01*
X148312000Y-29784000D02*
X149173749Y-29784000D01*
X160071250Y-29784000D02*
X160933001Y-29784000D01*
X167056250Y-29784000D02*
X179868000Y-29784000D01*
X109347000Y-30025300D02*
X116587689Y-30025300D01*
X118362312Y-30025300D02*
X120787928Y-30025300D01*
X124503532Y-30025300D02*
X126763300Y-30025300D01*
X128506701Y-30025300D02*
X135303699Y-30025300D01*
X141327000Y-30025300D02*
X142288699Y-30025300D01*
X148312000Y-30025300D02*
X149273699Y-30025300D01*
X159971300Y-30025300D02*
X160933001Y-30025300D01*
X166956300Y-30025300D02*
X179868000Y-30025300D01*
X109347000Y-30266600D02*
X116226558Y-30266600D01*
X118723443Y-30266600D02*
X121029228Y-30266600D01*
X124551530Y-30266600D02*
X126393210Y-30266600D01*
X128876790Y-30266600D02*
X135294384Y-30266600D01*
X141327000Y-30266600D02*
X142279384Y-30266600D01*
X148312000Y-30266600D02*
X149264384Y-30266600D01*
X159980617Y-30266600D02*
X160933001Y-30266600D01*
X166965617Y-30266600D02*
X179868000Y-30266600D01*
X109347000Y-30507900D02*
X115987363Y-30507900D01*
X118962638Y-30507900D02*
X121270528Y-30507900D01*
X124588427Y-30507900D02*
X126151910Y-30507900D01*
X129118090Y-30507900D02*
X135178969Y-30507900D01*
X141327000Y-30507900D02*
X142163969Y-30507900D01*
X148312000Y-30507900D02*
X149148969Y-30507900D01*
X160096032Y-30507900D02*
X160933001Y-30507900D01*
X167081032Y-30507900D02*
X179868000Y-30507900D01*
X109347000Y-30749200D02*
X115826131Y-30749200D01*
X119123870Y-30749200D02*
X121511828Y-30749200D01*
X124567000Y-30749200D02*
X125963775Y-30749200D01*
X129306226Y-30749200D02*
X135130972Y-30749200D01*
X141327000Y-30749200D02*
X142115972Y-30749200D01*
X148312000Y-30749200D02*
X149100972Y-30749200D01*
X160144029Y-30749200D02*
X160933001Y-30749200D01*
X167129029Y-30749200D02*
X179868000Y-30749200D01*
X109347000Y-30990500D02*
X115664899Y-30990500D01*
X119285102Y-30990500D02*
X121753128Y-30990500D01*
X124567000Y-30990500D02*
X125863826Y-30990500D01*
X129406175Y-30990500D02*
X135110921Y-30990500D01*
X141327000Y-30990500D02*
X142095921Y-30990500D01*
X148312000Y-30990500D02*
X149080921Y-30990500D01*
X160164079Y-30990500D02*
X160933001Y-30990500D01*
X167149079Y-30990500D02*
X179868000Y-30990500D01*
X109347000Y-31231800D02*
X115613325Y-31231800D01*
X119336676Y-31231800D02*
X121813000Y-31231800D01*
X124567000Y-31231800D02*
X125763876Y-31231800D01*
X129506125Y-31231800D02*
X135110921Y-31231800D01*
X141327000Y-31231800D02*
X142095921Y-31231800D01*
X148312000Y-31231800D02*
X149080921Y-31231800D01*
X160164079Y-31231800D02*
X160933001Y-31231800D01*
X167149079Y-31231800D02*
X179868000Y-31231800D01*
X109347000Y-31473100D02*
X115565327Y-31473100D01*
X119384674Y-31473100D02*
X121813000Y-31473100D01*
X124567000Y-31473100D02*
X125708000Y-31473100D01*
X129562000Y-31473100D02*
X135110921Y-31473100D01*
X141327000Y-31473100D02*
X142095921Y-31473100D01*
X148312000Y-31473100D02*
X149080921Y-31473100D01*
X160164079Y-31473100D02*
X160933001Y-31473100D01*
X167149079Y-31473100D02*
X179868000Y-31473100D01*
X109347000Y-31714400D02*
X115517330Y-31714400D01*
X119432671Y-31714400D02*
X121813000Y-31714400D01*
X124567000Y-31714400D02*
X125708000Y-31714400D01*
X129562000Y-31714400D02*
X135110921Y-31714400D01*
X141327000Y-31714400D02*
X142095921Y-31714400D01*
X148312000Y-31714400D02*
X149080921Y-31714400D01*
X160164079Y-31714400D02*
X160933001Y-31714400D01*
X167149079Y-31714400D02*
X179868000Y-31714400D01*
X109347000Y-31955700D02*
X115551164Y-31955700D01*
X119628072Y-31955700D02*
X121813000Y-31955700D01*
X124567000Y-31955700D02*
X125708000Y-31955700D01*
X129562000Y-31955700D02*
X135110921Y-31955700D01*
X141327000Y-31955700D02*
X142095921Y-31955700D01*
X148312000Y-31955700D02*
X149080921Y-31955700D01*
X160164079Y-31955700D02*
X160933001Y-31955700D01*
X167149079Y-31955700D02*
X179868000Y-31955700D01*
X109347000Y-32197000D02*
X115599161Y-32197000D01*
X119869372Y-32197000D02*
X121813000Y-32197000D01*
X124567000Y-32197000D02*
X125734383Y-32197000D01*
X129535616Y-32197000D02*
X135110921Y-32197000D01*
X141327000Y-32197000D02*
X142095921Y-32197000D01*
X148312000Y-32197000D02*
X149080921Y-32197000D01*
X160164079Y-32197000D02*
X160933001Y-32197000D01*
X167149079Y-32197000D02*
X179868000Y-32197000D01*
X109347000Y-32438300D02*
X115647159Y-32438300D01*
X120110672Y-32438300D02*
X121813000Y-32438300D01*
X124567000Y-32438300D02*
X125834333Y-32438300D01*
X129435666Y-32438300D02*
X135110921Y-32438300D01*
X141327000Y-32438300D02*
X142095921Y-32438300D01*
X148312000Y-32438300D02*
X149080921Y-32438300D01*
X160164079Y-32438300D02*
X160933001Y-32438300D01*
X167149079Y-32438300D02*
X179868000Y-32438300D01*
X109347000Y-32679600D02*
X115778556Y-32679600D01*
X120351972Y-32679600D02*
X121813000Y-32679600D01*
X124567000Y-32679600D02*
X125934282Y-32679600D01*
X129335717Y-32679600D02*
X135116808Y-32679600D01*
X141327000Y-32679600D02*
X142101808Y-32679600D01*
X148312000Y-32679600D02*
X149086808Y-32679600D01*
X160158191Y-32679600D02*
X160933001Y-32679600D01*
X167143191Y-32679600D02*
X179868000Y-32679600D01*
X109347000Y-32920900D02*
X115939787Y-32920900D01*
X120593272Y-32920900D02*
X121813000Y-32920900D01*
X124567000Y-32920900D02*
X126080710Y-32920900D01*
X129189290Y-32920900D02*
X135164806Y-32920900D01*
X141327000Y-32920900D02*
X142149806Y-32920900D01*
X148312000Y-32920900D02*
X149134806Y-32920900D01*
X160110193Y-32920900D02*
X160933001Y-32920900D01*
X167095193Y-32920900D02*
X179868000Y-32920900D01*
X109347000Y-33162200D02*
X116119999Y-33162200D01*
X120834572Y-33162200D02*
X121813000Y-33162200D01*
X124567000Y-33162200D02*
X126322010Y-33162200D01*
X128947990Y-33162200D02*
X135246809Y-33162200D01*
X141327000Y-33162200D02*
X142231809Y-33162200D01*
X148312000Y-33162200D02*
X149216809Y-33162200D01*
X160028190Y-33162200D02*
X160933001Y-33162200D01*
X167013190Y-33162200D02*
X179868000Y-33162200D01*
X109347000Y-33403500D02*
X116481130Y-33403500D01*
X121075872Y-33403500D02*
X121813000Y-33403500D01*
X124567000Y-33403500D02*
X126591407Y-33403500D01*
X128678592Y-33403500D02*
X135408040Y-33403500D01*
X141327000Y-33403500D02*
X142393040Y-33403500D01*
X148312000Y-33403500D02*
X149378040Y-33403500D01*
X159866959Y-33403500D02*
X160933001Y-33403500D01*
X166851959Y-33403500D02*
X179868000Y-33403500D01*
X109347000Y-33644800D02*
X117123327Y-33644800D01*
X121317172Y-33644800D02*
X121813000Y-33644800D01*
X124567000Y-33644800D02*
X127173958Y-33644800D01*
X128096041Y-33644800D02*
X135720277Y-33644800D01*
X141327000Y-33644800D02*
X142705277Y-33644800D01*
X148312000Y-33644800D02*
X149690277Y-33644800D01*
X159554722Y-33644800D02*
X160933001Y-33644800D01*
X166539722Y-33644800D02*
X179868000Y-33644800D01*
X109347000Y-33886100D02*
X117663728Y-33886100D01*
X121558472Y-33886100D02*
X121813000Y-33886100D01*
X124567000Y-33886100D02*
X138073000Y-33886100D01*
X141327000Y-33886100D02*
X145058000Y-33886100D01*
X148312000Y-33886100D02*
X152043000Y-33886100D01*
X157837000Y-33886100D02*
X160933001Y-33886100D01*
X164187000Y-33886100D02*
X179868000Y-33886100D01*
X109347000Y-34127400D02*
X117905028Y-34127400D01*
X121799772Y-34127400D02*
X121813000Y-34127400D01*
X124567000Y-34127400D02*
X138073000Y-34127400D01*
X141327000Y-34127400D02*
X145058000Y-34127400D01*
X148312000Y-34127400D02*
X152043000Y-34127400D01*
X157837000Y-34127400D02*
X160933001Y-34127400D01*
X164187000Y-34127400D02*
X179868000Y-34127400D01*
X109347000Y-34368700D02*
X118146328Y-34368700D01*
X124567000Y-34368700D02*
X136272274Y-34368700D01*
X138047726Y-34368700D02*
X138073000Y-34368700D01*
X141327000Y-34368700D02*
X143257274Y-34368700D01*
X145032726Y-34368700D02*
X145058000Y-34368700D01*
X148312000Y-34368700D02*
X150242274Y-34368700D01*
X152017726Y-34368700D02*
X152043000Y-34368700D01*
X159002727Y-34368700D02*
X160933001Y-34368700D01*
X164187000Y-34368700D02*
X164212275Y-34368700D01*
X165987727Y-34368700D02*
X179868000Y-34368700D01*
X109347000Y-34610000D02*
X118387628Y-34610000D01*
X124567000Y-34610000D02*
X135878390Y-34610000D01*
X141327000Y-34610000D02*
X142863390Y-34610000D01*
X148312000Y-34610000D02*
X149848390Y-34610000D01*
X159396610Y-34610000D02*
X160933001Y-34610000D01*
X166381610Y-34610000D02*
X179868000Y-34610000D01*
X109347000Y-34851300D02*
X118628928Y-34851300D01*
X124567000Y-34851300D02*
X135637090Y-34851300D01*
X141327000Y-34851300D02*
X142622090Y-34851300D01*
X148312000Y-34851300D02*
X149607090Y-34851300D01*
X159637910Y-34851300D02*
X160933001Y-34851300D01*
X166622910Y-34851300D02*
X179868000Y-34851300D01*
X109347000Y-35092600D02*
X118870228Y-35092600D01*
X124567000Y-35092600D02*
X135422621Y-35092600D01*
X141327000Y-35092600D02*
X142407621Y-35092600D01*
X148312000Y-35092600D02*
X149392621Y-35092600D01*
X159852380Y-35092600D02*
X160933001Y-35092600D01*
X166837380Y-35092600D02*
X179868000Y-35092600D01*
X109347000Y-35333900D02*
X119111528Y-35333900D01*
X124567000Y-35333900D02*
X135322671Y-35333900D01*
X141327000Y-35333900D02*
X142307671Y-35333900D01*
X148312000Y-35333900D02*
X149292671Y-35333900D01*
X159952330Y-35333900D02*
X160933001Y-35333900D01*
X166937330Y-35333900D02*
X179868000Y-35333900D01*
X109347000Y-35575200D02*
X119352828Y-35575200D01*
X124567000Y-35575200D02*
X135222721Y-35575200D01*
X141327000Y-35575200D02*
X142207721Y-35575200D01*
X148312000Y-35575200D02*
X149192721Y-35575200D01*
X160052280Y-35575200D02*
X160933001Y-35575200D01*
X167037280Y-35575200D02*
X179868000Y-35575200D01*
X109347000Y-35816500D02*
X119594128Y-35816500D01*
X124567000Y-35816500D02*
X135133000Y-35816500D01*
X141327000Y-35816500D02*
X142118000Y-35816500D01*
X148312000Y-35816500D02*
X149103000Y-35816500D01*
X160142000Y-35816500D02*
X160933001Y-35816500D01*
X167127000Y-35816500D02*
X179868000Y-35816500D01*
X109347000Y-36057800D02*
X119835428Y-36057800D01*
X124567000Y-36057800D02*
X135133000Y-36057800D01*
X141331584Y-36057800D02*
X142118000Y-36057800D01*
X148316584Y-36057800D02*
X149103000Y-36057800D01*
X160142000Y-36057800D02*
X160928418Y-36057800D01*
X167127000Y-36057800D02*
X179868000Y-36057800D01*
X109347000Y-36299100D02*
X120076728Y-36299100D01*
X124567000Y-36299100D02*
X135133000Y-36299100D01*
X141338167Y-36299100D02*
X142118000Y-36299100D01*
X148323167Y-36299100D02*
X149103000Y-36299100D01*
X160142000Y-36299100D02*
X160921832Y-36299100D01*
X167127000Y-36299100D02*
X179868000Y-36299100D01*
X109347000Y-36540400D02*
X120318028Y-36540400D01*
X124567000Y-36540400D02*
X135133000Y-36540400D01*
X141327000Y-36540400D02*
X142118000Y-36540400D01*
X148312000Y-36540400D02*
X149103000Y-36540400D01*
X160142000Y-36540400D02*
X160933001Y-36540400D01*
X167127000Y-36540400D02*
X179868000Y-36540400D01*
X109347000Y-36781700D02*
X120543000Y-36781700D01*
X124567000Y-36781700D02*
X135209010Y-36781700D01*
X141327000Y-36781700D02*
X142194010Y-36781700D01*
X148312000Y-36781700D02*
X149179010Y-36781700D01*
X160065989Y-36781700D02*
X160933001Y-36781700D01*
X167050989Y-36781700D02*
X179868000Y-36781700D01*
X109347000Y-37023000D02*
X116593682Y-37023000D01*
X118406319Y-37023000D02*
X120543000Y-37023000D01*
X124567000Y-37023000D02*
X126757640Y-37023000D01*
X128562361Y-37023000D02*
X135308959Y-37023000D01*
X141327000Y-37023000D02*
X142293959Y-37023000D01*
X148312000Y-37023000D02*
X149278959Y-37023000D01*
X159966040Y-37023000D02*
X160933001Y-37023000D01*
X166951040Y-37023000D02*
X179868000Y-37023000D01*
X109347000Y-37264300D02*
X116232552Y-37264300D01*
X118767449Y-37264300D02*
X120543000Y-37264300D01*
X124567000Y-37264300D02*
X126405510Y-37264300D01*
X128914490Y-37264300D02*
X135285899Y-37264300D01*
X141327000Y-37264300D02*
X142270899Y-37264300D01*
X148312000Y-37264300D02*
X149255899Y-37264300D01*
X159989102Y-37264300D02*
X160933001Y-37264300D01*
X166974102Y-37264300D02*
X179868000Y-37264300D01*
X109347000Y-37505600D02*
X116003877Y-37505600D01*
X118996124Y-37505600D02*
X120543000Y-37505600D01*
X124567000Y-37505600D02*
X126164210Y-37505600D01*
X129155790Y-37505600D02*
X135176443Y-37505600D01*
X141327000Y-37505600D02*
X142161443Y-37505600D01*
X148312000Y-37505600D02*
X149146443Y-37505600D01*
X160098558Y-37505600D02*
X160933001Y-37505600D01*
X167083558Y-37505600D02*
X179868000Y-37505600D01*
X109347000Y-37746900D02*
X115842645Y-37746900D01*
X119157356Y-37746900D02*
X120543000Y-37746900D01*
X124567000Y-37746900D02*
X125983515Y-37746900D01*
X129336486Y-37746900D02*
X135128446Y-37746900D01*
X141327000Y-37746900D02*
X142113446Y-37746900D01*
X148312000Y-37746900D02*
X149098446Y-37746900D01*
X160146555Y-37746900D02*
X160933001Y-37746900D01*
X167131555Y-37746900D02*
X179868000Y-37746900D01*
X109347000Y-37988200D02*
X115683796Y-37988200D01*
X119316205Y-37988200D02*
X120543000Y-37988200D01*
X124567000Y-37988200D02*
X125883565Y-37988200D01*
X129436436Y-37988200D02*
X135110921Y-37988200D01*
X141327000Y-37988200D02*
X142095921Y-37988200D01*
X148312000Y-37988200D02*
X149080921Y-37988200D01*
X160164079Y-37988200D02*
X160933001Y-37988200D01*
X167149079Y-37988200D02*
X179868000Y-37988200D01*
X109347000Y-38229500D02*
X115635799Y-38229500D01*
X119364202Y-38229500D02*
X120543000Y-38229500D01*
X124567000Y-38229500D02*
X125783616Y-38229500D01*
X129536385Y-38229500D02*
X135110921Y-38229500D01*
X141327000Y-38229500D02*
X142095921Y-38229500D01*
X148312000Y-38229500D02*
X149080921Y-38229500D01*
X160164079Y-38229500D02*
X160933001Y-38229500D01*
X167149079Y-38229500D02*
X179868000Y-38229500D01*
X109347000Y-38470800D02*
X115587801Y-38470800D01*
X119412200Y-38470800D02*
X120543000Y-38470800D01*
X124567000Y-38470800D02*
X125733000Y-38470800D01*
X129587000Y-38470800D02*
X135110921Y-38470800D01*
X141327000Y-38470800D02*
X142095921Y-38470800D01*
X148312000Y-38470800D02*
X149080921Y-38470800D01*
X160164079Y-38470800D02*
X160933001Y-38470800D01*
X167149079Y-38470800D02*
X179868000Y-38470800D01*
X109347000Y-38712100D02*
X115539804Y-38712100D01*
X119470106Y-38712100D02*
X120543000Y-38712100D01*
X124567000Y-38712100D02*
X125733000Y-38712100D01*
X129587000Y-38712100D02*
X135110921Y-38712100D01*
X141327000Y-38712100D02*
X142095921Y-38712100D01*
X148312000Y-38712100D02*
X149080921Y-38712100D01*
X160164079Y-38712100D02*
X160933001Y-38712100D01*
X167149079Y-38712100D02*
X179868000Y-38712100D01*
X109347000Y-38953400D02*
X115578690Y-38953400D01*
X119703770Y-38953400D02*
X120543000Y-38953400D01*
X124567000Y-38953400D02*
X125733000Y-38953400D01*
X129587000Y-38953400D02*
X135110921Y-38953400D01*
X141327000Y-38953400D02*
X142095921Y-38953400D01*
X148312000Y-38953400D02*
X149080921Y-38953400D01*
X160164079Y-38953400D02*
X160933001Y-38953400D01*
X167149079Y-38953400D02*
X179868000Y-38953400D01*
X109347000Y-39194700D02*
X115626688Y-39194700D01*
X119937434Y-39194700D02*
X120543000Y-39194700D01*
X124567000Y-39194700D02*
X125764644Y-39194700D01*
X129555355Y-39194700D02*
X135110921Y-39194700D01*
X141327000Y-39194700D02*
X142095921Y-39194700D01*
X148312000Y-39194700D02*
X149080921Y-39194700D01*
X160164079Y-39194700D02*
X160933001Y-39194700D01*
X167149079Y-39194700D02*
X179868000Y-39194700D01*
X109347000Y-39436000D02*
X115674685Y-39436000D01*
X120171098Y-39436000D02*
X120543000Y-39436000D01*
X124567000Y-39436000D02*
X125864593Y-39436000D01*
X129455406Y-39436000D02*
X135110921Y-39436000D01*
X141327000Y-39436000D02*
X142095921Y-39436000D01*
X148312000Y-39436000D02*
X149080921Y-39436000D01*
X160164079Y-39436000D02*
X160933001Y-39436000D01*
X167149079Y-39436000D02*
X179868000Y-39436000D01*
X109347000Y-39677300D02*
X115812042Y-39677300D01*
X120404762Y-39677300D02*
X120543000Y-39677300D01*
X124567000Y-39677300D02*
X125964543Y-39677300D01*
X129355456Y-39677300D02*
X135119334Y-39677300D01*
X141327000Y-39677300D02*
X142104334Y-39677300D01*
X148312000Y-39677300D02*
X149089334Y-39677300D01*
X160155665Y-39677300D02*
X160933001Y-39677300D01*
X167140665Y-39677300D02*
X179868000Y-39677300D01*
X109347000Y-39918600D02*
X115973273Y-39918600D01*
X124567000Y-39918600D02*
X126118410Y-39918600D01*
X129201590Y-39918600D02*
X135167332Y-39918600D01*
X141327000Y-39918600D02*
X142152332Y-39918600D01*
X148312000Y-39918600D02*
X149137332Y-39918600D01*
X160107667Y-39918600D02*
X160933001Y-39918600D01*
X167092667Y-39918600D02*
X179868000Y-39918600D01*
X109347000Y-40159900D02*
X116164006Y-40159900D01*
X124567000Y-40159900D02*
X126359710Y-40159900D01*
X128960290Y-40159900D02*
X135255295Y-40159900D01*
X141327000Y-40159900D02*
X142240295Y-40159900D01*
X148312000Y-40159900D02*
X149225295Y-40159900D01*
X160019704Y-40159900D02*
X160933001Y-40159900D01*
X167004704Y-40159900D02*
X179868000Y-40159900D01*
X109347000Y-40401200D02*
X116525137Y-40401200D01*
X124567000Y-40401200D02*
X126647068Y-40401200D01*
X128672931Y-40401200D02*
X135416526Y-40401200D01*
X141327000Y-40401200D02*
X142401526Y-40401200D01*
X148312000Y-40401200D02*
X149386526Y-40401200D01*
X159858473Y-40401200D02*
X160933001Y-40401200D01*
X166843473Y-40401200D02*
X179868000Y-40401200D01*
X109347000Y-40642500D02*
X117212175Y-40642500D01*
X124567000Y-40642500D02*
X127229618Y-40642500D01*
X128090381Y-40642500D02*
X135739283Y-40642500D01*
X141327000Y-40642500D02*
X142724283Y-40642500D01*
X148312000Y-40642500D02*
X149709283Y-40642500D01*
X159535716Y-40642500D02*
X160933001Y-40642500D01*
X166520716Y-40642500D02*
X179868000Y-40642500D01*
X109347000Y-40883800D02*
X117739467Y-40883800D01*
X124567000Y-40883800D02*
X138073001Y-40883800D01*
X141327000Y-40883800D02*
X145058001Y-40883800D01*
X148312000Y-40883800D02*
X152043001Y-40883800D01*
X157837000Y-40883800D02*
X160933001Y-40883800D01*
X164187000Y-40883800D02*
X179868000Y-40883800D01*
X109347000Y-41125100D02*
X117973131Y-41125100D01*
X124567000Y-41125100D02*
X138073001Y-41125100D01*
X141327000Y-41125100D02*
X145058001Y-41125100D01*
X148312000Y-41125100D02*
X152043001Y-41125100D01*
X157837000Y-41125100D02*
X160933001Y-41125100D01*
X164187000Y-41125100D02*
X179868000Y-41125100D01*
X109347000Y-41366400D02*
X118206795Y-41366400D01*
X124567000Y-41366400D02*
X136241613Y-41366400D01*
X141327000Y-41366400D02*
X143226613Y-41366400D01*
X148312000Y-41366400D02*
X150211613Y-41366400D01*
X159033388Y-41366400D02*
X160933001Y-41366400D01*
X166018388Y-41366400D02*
X179868000Y-41366400D01*
X109347000Y-41607700D02*
X118440459Y-41607700D01*
X124567000Y-41607700D02*
X135865690Y-41607700D01*
X141327000Y-41607700D02*
X142850690Y-41607700D01*
X148312000Y-41607700D02*
X149835690Y-41607700D01*
X159409310Y-41607700D02*
X160933001Y-41607700D01*
X166394310Y-41607700D02*
X179868000Y-41607700D01*
X109347000Y-41849000D02*
X118674123Y-41849000D01*
X124567000Y-41849000D02*
X135624390Y-41849000D01*
X141327000Y-41849000D02*
X142609390Y-41849000D01*
X148312000Y-41849000D02*
X149594390Y-41849000D01*
X159650610Y-41849000D02*
X160933001Y-41849000D01*
X166635610Y-41849000D02*
X179868000Y-41849000D01*
X109347000Y-42090300D02*
X118907787Y-42090300D01*
X124567000Y-42090300D02*
X135417361Y-42090300D01*
X141327000Y-42090300D02*
X142402361Y-42090300D01*
X148312000Y-42090300D02*
X149387361Y-42090300D01*
X159857640Y-42090300D02*
X160933001Y-42090300D01*
X166842640Y-42090300D02*
X179868000Y-42090300D01*
X109347000Y-42331600D02*
X119141451Y-42331600D01*
X124567000Y-42331600D02*
X135317411Y-42331600D01*
X141327000Y-42331600D02*
X142302411Y-42331600D01*
X148312000Y-42331600D02*
X149287411Y-42331600D01*
X159957590Y-42331600D02*
X160933001Y-42331600D01*
X166942590Y-42331600D02*
X179868000Y-42331600D01*
X109347000Y-42572900D02*
X119273000Y-42572900D01*
X124567000Y-42572900D02*
X135217461Y-42572900D01*
X141327000Y-42572900D02*
X142202461Y-42572900D01*
X148312000Y-42572900D02*
X149187461Y-42572900D01*
X160057540Y-42572900D02*
X160933001Y-42572900D01*
X167042540Y-42572900D02*
X179868000Y-42572900D01*
X109347000Y-42814200D02*
X119273000Y-42814200D01*
X124567000Y-42814200D02*
X135133000Y-42814200D01*
X141327000Y-42814200D02*
X142118000Y-42814200D01*
X148312000Y-42814200D02*
X149103000Y-42814200D01*
X160142000Y-42814200D02*
X160933001Y-42814200D01*
X167127000Y-42814200D02*
X179868000Y-42814200D01*
X109347000Y-43055500D02*
X119273000Y-43055500D01*
X124567000Y-43055500D02*
X135133000Y-43055500D01*
X141334110Y-43055500D02*
X142118000Y-43055500D01*
X148319110Y-43055500D02*
X149103000Y-43055500D01*
X160142000Y-43055500D02*
X160925891Y-43055500D01*
X167127000Y-43055500D02*
X179868000Y-43055500D01*
X109347000Y-43296800D02*
X119273000Y-43296800D01*
X124567000Y-43296800D02*
X135133000Y-43296800D01*
X141335641Y-43296800D02*
X142118000Y-43296800D01*
X148320641Y-43296800D02*
X149103000Y-43296800D01*
X160142000Y-43296800D02*
X160924358Y-43296800D01*
X167127000Y-43296800D02*
X179868000Y-43296800D01*
X109347000Y-43538100D02*
X119273000Y-43538100D01*
X124567000Y-43538100D02*
X135133000Y-43538100D01*
X141327000Y-43538100D02*
X142118000Y-43538100D01*
X148312000Y-43538100D02*
X149103000Y-43538100D01*
X160142000Y-43538100D02*
X160933000Y-43538100D01*
X167127000Y-43538100D02*
X179868000Y-43538100D01*
X109347000Y-43779400D02*
X119273000Y-43779400D01*
X124567000Y-43779400D02*
X135214270Y-43779400D01*
X141327000Y-43779400D02*
X142199270Y-43779400D01*
X148312000Y-43779400D02*
X149184270Y-43779400D01*
X160060729Y-43779400D02*
X160933000Y-43779400D01*
X167045729Y-43779400D02*
X179868000Y-43779400D01*
X109347000Y-44020700D02*
X116619573Y-44020700D01*
X118380428Y-44020700D02*
X119273000Y-44020700D01*
X124567000Y-44020700D02*
X126799406Y-44020700D01*
X128520595Y-44020700D02*
X135314220Y-44020700D01*
X141327000Y-44020700D02*
X142299220Y-44020700D01*
X148312000Y-44020700D02*
X149284220Y-44020700D01*
X159960779Y-44020700D02*
X160933000Y-44020700D01*
X166945779Y-44020700D02*
X179868000Y-44020700D01*
X109347000Y-44262000D02*
X116258443Y-44262000D01*
X118741558Y-44262000D02*
X119273000Y-44262000D01*
X124567000Y-44262000D02*
X126422810Y-44262000D01*
X128897190Y-44262000D02*
X135277413Y-44262000D01*
X141327000Y-44262000D02*
X142262413Y-44262000D01*
X148312000Y-44262000D02*
X149247413Y-44262000D01*
X159997588Y-44262000D02*
X160933000Y-44262000D01*
X166982588Y-44262000D02*
X179868000Y-44262000D01*
X109347000Y-44503300D02*
X116015436Y-44503300D01*
X118984564Y-44503300D02*
X119273000Y-44503300D01*
X124567000Y-44503300D02*
X126181510Y-44503300D01*
X129138490Y-44503300D02*
X135173917Y-44503300D01*
X141327000Y-44503300D02*
X142158917Y-44503300D01*
X148312000Y-44503300D02*
X149143917Y-44503300D01*
X160101084Y-44503300D02*
X160933000Y-44503300D01*
X167086084Y-44503300D02*
X179868000Y-44503300D01*
X109347000Y-44744600D02*
X115854205Y-44744600D01*
X119145796Y-44744600D02*
X119273000Y-44744600D01*
X124567000Y-44744600D02*
X125990681Y-44744600D01*
X129329320Y-44744600D02*
X135125919Y-44744600D01*
X141327000Y-44744600D02*
X142110919Y-44744600D01*
X148312000Y-44744600D02*
X149095919Y-44744600D01*
X160149082Y-44744600D02*
X160933000Y-44744600D01*
X167134082Y-44744600D02*
X179868000Y-44744600D01*
X109347000Y-44985900D02*
X115692973Y-44985900D01*
X124567000Y-44985900D02*
X125890731Y-44985900D01*
X129429270Y-44985900D02*
X135110921Y-44985900D01*
X141327000Y-44985900D02*
X142095921Y-44985900D01*
X148312000Y-44985900D02*
X149080921Y-44985900D01*
X160164079Y-44985900D02*
X160933000Y-44985900D01*
X167149079Y-44985900D02*
X179868000Y-44985900D01*
X109347000Y-45227200D02*
X115639240Y-45227200D01*
X124567000Y-45227200D02*
X125790782Y-45227200D01*
X129529219Y-45227200D02*
X135110921Y-45227200D01*
X141327000Y-45227200D02*
X142095921Y-45227200D01*
X148312000Y-45227200D02*
X149080921Y-45227200D01*
X160164079Y-45227200D02*
X160933000Y-45227200D01*
X167149079Y-45227200D02*
X179868000Y-45227200D01*
X109347000Y-45468500D02*
X115591242Y-45468500D01*
X124567000Y-45468500D02*
X125733000Y-45468500D01*
X129587000Y-45468500D02*
X135110921Y-45468500D01*
X141327000Y-45468500D02*
X142095921Y-45468500D01*
X148312000Y-45468500D02*
X149080921Y-45468500D01*
X160164079Y-45468500D02*
X160933000Y-45468500D01*
X167149079Y-45468500D02*
X179868000Y-45468500D01*
X109347000Y-45709800D02*
X115543245Y-45709800D01*
X124567000Y-45709800D02*
X125733000Y-45709800D01*
X129587000Y-45709800D02*
X135110921Y-45709800D01*
X141327000Y-45709800D02*
X142095921Y-45709800D01*
X148312000Y-45709800D02*
X149080921Y-45709800D01*
X160164079Y-45709800D02*
X160933000Y-45709800D01*
X167149079Y-45709800D02*
X179868000Y-45709800D01*
X109347000Y-45951100D02*
X115575249Y-45951100D01*
X124567000Y-45951100D02*
X125733000Y-45951100D01*
X129587000Y-45951100D02*
X135110921Y-45951100D01*
X141327000Y-45951100D02*
X142095921Y-45951100D01*
X148312000Y-45951100D02*
X149080921Y-45951100D01*
X160164079Y-45951100D02*
X160933000Y-45951100D01*
X167149079Y-45951100D02*
X179868000Y-45951100D01*
X109347000Y-46192400D02*
X115623246Y-46192400D01*
X124567000Y-46192400D02*
X125757478Y-46192400D01*
X129562521Y-46192400D02*
X135110921Y-46192400D01*
X141327000Y-46192400D02*
X142095921Y-46192400D01*
X148312000Y-46192400D02*
X149080921Y-46192400D01*
X160164079Y-46192400D02*
X160933000Y-46192400D01*
X167149079Y-46192400D02*
X179868000Y-46192400D01*
X109347000Y-46433700D02*
X115671244Y-46433700D01*
X124567000Y-46433700D02*
X125857427Y-46433700D01*
X129462572Y-46433700D02*
X135110921Y-46433700D01*
X141327000Y-46433700D02*
X142095921Y-46433700D01*
X148312000Y-46433700D02*
X149080921Y-46433700D01*
X160164079Y-46433700D02*
X160933000Y-46433700D01*
X167149079Y-46433700D02*
X179868000Y-46433700D01*
X109347000Y-46675000D02*
X115800482Y-46675000D01*
X124567000Y-46675000D02*
X125957377Y-46675000D01*
X129362622Y-46675000D02*
X135121861Y-46675000D01*
X141327000Y-46675000D02*
X142106861Y-46675000D01*
X148312000Y-46675000D02*
X149091861Y-46675000D01*
X160153138Y-46675000D02*
X160933000Y-46675000D01*
X167138138Y-46675000D02*
X179868000Y-46675000D01*
X109347000Y-46916300D02*
X115961714Y-46916300D01*
X124567000Y-46916300D02*
X126101110Y-46916300D01*
X129218890Y-46916300D02*
X135169858Y-46916300D01*
X141327000Y-46916300D02*
X142154858Y-46916300D01*
X148312000Y-46916300D02*
X149139858Y-46916300D01*
X160105141Y-46916300D02*
X160933000Y-46916300D01*
X167090141Y-46916300D02*
X179868000Y-46916300D01*
X109347000Y-47157600D02*
X116138115Y-47157600D01*
X124567000Y-47157600D02*
X126342410Y-47157600D01*
X128977590Y-47157600D02*
X135263781Y-47157600D01*
X141327000Y-47157600D02*
X142248781Y-47157600D01*
X148312000Y-47157600D02*
X149233781Y-47157600D01*
X160011218Y-47157600D02*
X160933000Y-47157600D01*
X166996218Y-47157600D02*
X179868000Y-47157600D01*
X109347000Y-47398900D02*
X116499245Y-47398900D01*
X124567000Y-47398900D02*
X126605302Y-47398900D01*
X128714697Y-47398900D02*
X135425012Y-47398900D01*
X141327000Y-47398900D02*
X142410012Y-47398900D01*
X148312000Y-47398900D02*
X149395012Y-47398900D01*
X159849987Y-47398900D02*
X160933000Y-47398900D01*
X166834987Y-47398900D02*
X179868000Y-47398900D01*
X109347000Y-47640200D02*
X117125202Y-47640200D01*
X124567000Y-47640200D02*
X127187852Y-47640200D01*
X128132147Y-47640200D02*
X135758290Y-47640200D01*
X141327000Y-47640200D02*
X142743290Y-47640200D01*
X148312000Y-47640200D02*
X149728290Y-47640200D01*
X159516709Y-47640200D02*
X160933000Y-47640200D01*
X166501709Y-47640200D02*
X179868000Y-47640200D01*
X109347000Y-47881500D02*
X117689128Y-47881500D01*
X124567000Y-47881500D02*
X138073001Y-47881500D01*
X141327000Y-47881500D02*
X145058001Y-47881500D01*
X148312000Y-47881500D02*
X152043001Y-47881500D01*
X157837000Y-47881500D02*
X160933000Y-47881500D01*
X164187000Y-47881500D02*
X179868000Y-47881500D01*
X109347000Y-48122800D02*
X117930428Y-48122800D01*
X124567000Y-48122800D02*
X138073001Y-48122800D01*
X141327000Y-48122800D02*
X145058001Y-48122800D01*
X148312000Y-48122800D02*
X152043001Y-48122800D01*
X157837000Y-48122800D02*
X160933000Y-48122800D01*
X164187000Y-48122800D02*
X179868000Y-48122800D01*
X109347000Y-48364100D02*
X118003000Y-48364100D01*
X124567000Y-48364100D02*
X136210953Y-48364100D01*
X141327000Y-48364100D02*
X143195953Y-48364100D01*
X148312000Y-48364100D02*
X150180953Y-48364100D01*
X159064048Y-48364100D02*
X160933000Y-48364100D01*
X166049048Y-48364100D02*
X179868000Y-48364100D01*
X109347000Y-48605400D02*
X118003000Y-48605400D01*
X124567000Y-48605400D02*
X135852990Y-48605400D01*
X141327000Y-48605400D02*
X142837990Y-48605400D01*
X148312000Y-48605400D02*
X149822990Y-48605400D01*
X159422010Y-48605400D02*
X160933000Y-48605400D01*
X166407010Y-48605400D02*
X179868000Y-48605400D01*
X109347000Y-48846700D02*
X118003000Y-48846700D01*
X124567000Y-48846700D02*
X135611690Y-48846700D01*
X141327000Y-48846700D02*
X142596690Y-48846700D01*
X148312000Y-48846700D02*
X149581690Y-48846700D01*
X159663310Y-48846700D02*
X160933000Y-48846700D01*
X166648310Y-48846700D02*
X179868000Y-48846700D01*
X109347000Y-49088000D02*
X118003000Y-49088000D01*
X124567000Y-49088000D02*
X135412100Y-49088000D01*
X141327000Y-49088000D02*
X142397100Y-49088000D01*
X148312000Y-49088000D02*
X149382100Y-49088000D01*
X159862901Y-49088000D02*
X160933000Y-49088000D01*
X166847901Y-49088000D02*
X179868000Y-49088000D01*
X109347000Y-49329300D02*
X118003000Y-49329300D01*
X124567000Y-49329300D02*
X135312150Y-49329300D01*
X141327000Y-49329300D02*
X142297150Y-49329300D01*
X148312000Y-49329300D02*
X149282150Y-49329300D01*
X159962851Y-49329300D02*
X160933000Y-49329300D01*
X166947851Y-49329300D02*
X179868000Y-49329300D01*
X109347000Y-49570600D02*
X118003000Y-49570600D01*
X124567000Y-49570600D02*
X135212200Y-49570600D01*
X141327000Y-49570600D02*
X142197200Y-49570600D01*
X148312000Y-49570600D02*
X149182200Y-49570600D01*
X160062801Y-49570600D02*
X160933000Y-49570600D01*
X167047801Y-49570600D02*
X179868000Y-49570600D01*
X109347000Y-49811900D02*
X118003000Y-49811900D01*
X124567000Y-49811900D02*
X135133000Y-49811900D01*
X141327000Y-49811900D02*
X142118000Y-49811900D01*
X148312000Y-49811900D02*
X149103000Y-49811900D01*
X160142000Y-49811900D02*
X160933000Y-49811900D01*
X167127000Y-49811900D02*
X179868000Y-49811900D01*
X109347000Y-50053200D02*
X118003000Y-50053200D01*
X124567000Y-50053200D02*
X135133000Y-50053200D01*
X141336636Y-50053200D02*
X142118000Y-50053200D01*
X148321636Y-50053200D02*
X149103000Y-50053200D01*
X160142000Y-50053200D02*
X160923365Y-50053200D01*
X167127000Y-50053200D02*
X179868000Y-50053200D01*
X109347000Y-50294500D02*
X118003000Y-50294500D01*
X124567000Y-50294500D02*
X135133000Y-50294500D01*
X141333114Y-50294500D02*
X142118000Y-50294500D01*
X148318114Y-50294500D02*
X149103000Y-50294500D01*
X160142000Y-50294500D02*
X160926885Y-50294500D01*
X167127000Y-50294500D02*
X179868000Y-50294500D01*
X109347000Y-50535800D02*
X118003000Y-50535800D01*
X124567000Y-50535800D02*
X135133000Y-50535800D01*
X141327000Y-50535800D02*
X142118000Y-50535800D01*
X148312000Y-50535800D02*
X149103000Y-50535800D01*
X160142000Y-50535800D02*
X160933000Y-50535800D01*
X167127000Y-50535800D02*
X179868000Y-50535800D01*
X109347000Y-50777100D02*
X118003000Y-50777100D01*
X124567000Y-50777100D02*
X135219531Y-50777100D01*
X141327000Y-50777100D02*
X142204531Y-50777100D01*
X148312000Y-50777100D02*
X149189531Y-50777100D01*
X160055468Y-50777100D02*
X160933000Y-50777100D01*
X167040468Y-50777100D02*
X179868000Y-50777100D01*
X109347000Y-51018400D02*
X116530668Y-51018400D01*
X124567000Y-51018400D02*
X126671319Y-51018400D01*
X128598682Y-51018400D02*
X135319480Y-51018400D01*
X141327000Y-51018400D02*
X142304480Y-51018400D01*
X148312000Y-51018400D02*
X149289480Y-51018400D01*
X159955519Y-51018400D02*
X160933000Y-51018400D01*
X166940519Y-51018400D02*
X179868000Y-51018400D01*
X109347000Y-51259700D02*
X116169538Y-51259700D01*
X124567000Y-51259700D02*
X126355110Y-51259700D01*
X128914890Y-51259700D02*
X135268927Y-51259700D01*
X141327000Y-51259700D02*
X142253927Y-51259700D01*
X148312000Y-51259700D02*
X149238927Y-51259700D01*
X160006074Y-51259700D02*
X160933000Y-51259700D01*
X166991074Y-51259700D02*
X179868000Y-51259700D01*
X109347000Y-51501000D02*
X115961905Y-51501000D01*
X124567000Y-51501000D02*
X126113810Y-51501000D01*
X129156190Y-51501000D02*
X135171391Y-51501000D01*
X141327000Y-51501000D02*
X142156391Y-51501000D01*
X148312000Y-51501000D02*
X149141391Y-51501000D01*
X160103610Y-51501000D02*
X160933000Y-51501000D01*
X167088610Y-51501000D02*
X179868000Y-51501000D01*
X109347000Y-51742300D02*
X115800673Y-51742300D01*
X124567000Y-51742300D02*
X125947994Y-51742300D01*
X129322007Y-51742300D02*
X135123393Y-51742300D01*
X141327000Y-51742300D02*
X142108393Y-51742300D01*
X148312000Y-51742300D02*
X149093393Y-51742300D01*
X160151608Y-51742300D02*
X160933000Y-51742300D01*
X167136608Y-51742300D02*
X179868000Y-51742300D01*
X109347000Y-51983600D02*
X115653744Y-51983600D01*
X124567000Y-51983600D02*
X125848044Y-51983600D01*
X129421957Y-51983600D02*
X135110921Y-51983600D01*
X141327000Y-51983600D02*
X142095921Y-51983600D01*
X148312000Y-51983600D02*
X149080921Y-51983600D01*
X160164079Y-51983600D02*
X160933000Y-51983600D01*
X167149079Y-51983600D02*
X179868000Y-51983600D01*
X109347000Y-52224900D02*
X115605746Y-52224900D01*
X124567000Y-52224900D02*
X125748095Y-52224900D01*
X129521906Y-52224900D02*
X135110921Y-52224900D01*
X141520825Y-52224900D02*
X142095921Y-52224900D01*
X148312000Y-52224900D02*
X149080921Y-52224900D01*
X160164079Y-52224900D02*
X160933000Y-52224900D01*
X167149079Y-52224900D02*
X179868000Y-52224900D01*
X109347000Y-52466200D02*
X115557749Y-52466200D01*
X124567000Y-52466200D02*
X125708000Y-52466200D01*
X129562000Y-52466200D02*
X135110921Y-52466200D01*
X141762125Y-52466200D02*
X142095921Y-52466200D01*
X148312000Y-52466200D02*
X149080921Y-52466200D01*
X160164079Y-52466200D02*
X160933000Y-52466200D01*
X167149079Y-52466200D02*
X179868000Y-52466200D01*
X109347000Y-52707500D02*
X115510745Y-52707500D01*
X124567000Y-52707500D02*
X125708000Y-52707500D01*
X129562000Y-52707500D02*
X135110921Y-52707500D01*
X142003425Y-52707500D02*
X142095921Y-52707500D01*
X148353424Y-52707500D02*
X149080921Y-52707500D01*
X160164079Y-52707500D02*
X160933000Y-52707500D01*
X167149079Y-52707500D02*
X179868000Y-52707500D01*
X109347000Y-52948800D02*
X115558742Y-52948800D01*
X124567000Y-52948800D02*
X125708000Y-52948800D01*
X129562000Y-52948800D02*
X135110921Y-52948800D01*
X148594724Y-52948800D02*
X149080921Y-52948800D01*
X160164079Y-52948800D02*
X160933000Y-52948800D01*
X167149079Y-52948800D02*
X179868000Y-52948800D01*
X109347000Y-53190100D02*
X115606740Y-53190100D01*
X124567000Y-53190100D02*
X125750165Y-53190100D01*
X129519834Y-53190100D02*
X135110921Y-53190100D01*
X148836024Y-53190100D02*
X149080921Y-53190100D01*
X160164079Y-53190100D02*
X160933000Y-53190100D01*
X167149079Y-53190100D02*
X179868000Y-53190100D01*
X109347000Y-53431400D02*
X115654738Y-53431400D01*
X124567000Y-53431400D02*
X125850114Y-53431400D01*
X129419885Y-53431400D02*
X135110921Y-53431400D01*
X149077324Y-53431400D02*
X149080921Y-53431400D01*
X160164079Y-53431400D02*
X160933000Y-53431400D01*
X167149079Y-53431400D02*
X179868000Y-53431400D01*
X109347000Y-53672700D02*
X115804013Y-53672700D01*
X124567000Y-53672700D02*
X125950064Y-53672700D01*
X129319935Y-53672700D02*
X135124387Y-53672700D01*
X160150612Y-53672700D02*
X160933000Y-53672700D01*
X167135612Y-53672700D02*
X179868000Y-53672700D01*
X109347000Y-53914000D02*
X115965245Y-53914000D01*
X124567000Y-53914000D02*
X126118810Y-53914000D01*
X129151190Y-53914000D02*
X135172384Y-53914000D01*
X160102615Y-53914000D02*
X160933000Y-53914000D01*
X167087615Y-53914000D02*
X179868000Y-53914000D01*
X109347000Y-54155300D02*
X116098001Y-54155300D01*
X124567000Y-54155300D02*
X126360110Y-54155300D01*
X128909890Y-54155300D02*
X135272267Y-54155300D01*
X160002732Y-54155300D02*
X160713775Y-54155300D01*
X166987732Y-54155300D02*
X179868000Y-54155300D01*
X109347000Y-54396600D02*
X116098001Y-54396600D01*
X124567000Y-54396600D02*
X126683389Y-54396600D01*
X128586610Y-54396600D02*
X135433498Y-54396600D01*
X138886501Y-54396600D02*
X139090675Y-54396600D01*
X159841501Y-54396600D02*
X160472475Y-54396600D01*
X166826501Y-54396600D02*
X179868000Y-54396600D01*
X109347000Y-54637900D02*
X116076572Y-54637900D01*
X124567000Y-54637900D02*
X135777297Y-54637900D01*
X138542702Y-54637900D02*
X139331975Y-54637900D01*
X159497702Y-54637900D02*
X160231175Y-54637900D01*
X166482702Y-54637900D02*
X179868000Y-54637900D01*
X109347000Y-54879200D02*
X116124570Y-54879200D01*
X124771572Y-54879200D02*
X139573275Y-54879200D01*
X157837000Y-54879200D02*
X159989875Y-54879200D01*
X164165326Y-54879200D02*
X179868000Y-54879200D01*
X109347000Y-55120500D02*
X116172567Y-55120500D01*
X125012872Y-55120500D02*
X139814575Y-55120500D01*
X157837000Y-55120500D02*
X159748575Y-55120500D01*
X164117329Y-55120500D02*
X179868000Y-55120500D01*
X109347000Y-55361800D02*
X116321233Y-55361800D01*
X125254172Y-55361800D02*
X140055875Y-55361800D01*
X157837000Y-55361800D02*
X159507275Y-55361800D01*
X164014438Y-55361800D02*
X179868000Y-55361800D01*
X109347000Y-55603100D02*
X116482744Y-55603100D01*
X125495472Y-55603100D02*
X140297175Y-55603100D01*
X157837000Y-55603100D02*
X159265976Y-55603100D01*
X163853207Y-55603100D02*
X179868000Y-55603100D01*
X109347000Y-55844400D02*
X116762028Y-55844400D01*
X125736772Y-55844400D02*
X140538475Y-55844400D01*
X157837000Y-55844400D02*
X159024676Y-55844400D01*
X163641110Y-55844400D02*
X179868000Y-55844400D01*
X109347000Y-56085700D02*
X117003328Y-56085700D01*
X125978072Y-56085700D02*
X140779774Y-56085700D01*
X157837000Y-56085700D02*
X158783376Y-56085700D01*
X163385225Y-56085700D02*
X179868000Y-56085700D01*
X109347000Y-56327000D02*
X117244628Y-56327000D01*
X126219372Y-56327000D02*
X141021074Y-56327000D01*
X157837000Y-56327000D02*
X158542076Y-56327000D01*
X163143925Y-56327000D02*
X179868000Y-56327000D01*
X109347000Y-56568300D02*
X117485928Y-56568300D01*
X126460672Y-56568300D02*
X141262374Y-56568300D01*
X157837000Y-56568300D02*
X158300776Y-56568300D01*
X162902625Y-56568300D02*
X179868000Y-56568300D01*
X109347000Y-56809600D02*
X117727228Y-56809600D01*
X126701972Y-56809600D02*
X141503674Y-56809600D01*
X157837000Y-56809600D02*
X158059476Y-56809600D01*
X162661325Y-56809600D02*
X179868000Y-56809600D01*
X109347000Y-57050900D02*
X117968528Y-57050900D01*
X126943272Y-57050900D02*
X141744974Y-57050900D01*
X162420025Y-57050900D02*
X179868000Y-57050900D01*
X109347000Y-57292200D02*
X118209828Y-57292200D01*
X127184572Y-57292200D02*
X141986274Y-57292200D01*
X162178725Y-57292200D02*
X179868000Y-57292200D01*
X109347000Y-57533500D02*
X118451128Y-57533500D01*
X127425872Y-57533500D02*
X142227574Y-57533500D01*
X161937425Y-57533500D02*
X179868000Y-57533500D01*
X109347000Y-57774800D02*
X118692428Y-57774800D01*
X127667172Y-57774800D02*
X142466902Y-57774800D01*
X162067107Y-57774800D02*
X165592894Y-57774800D01*
X167147107Y-57774800D02*
X168132894Y-57774800D01*
X169687107Y-57774800D02*
X170672894Y-57774800D01*
X172227107Y-57774800D02*
X179868000Y-57774800D01*
X109347000Y-58016100D02*
X118933728Y-58016100D01*
X127908472Y-58016100D02*
X142261004Y-58016100D01*
X162538996Y-58016100D02*
X165121004Y-58016100D01*
X167618996Y-58016100D02*
X167661004Y-58016100D01*
X170158996Y-58016100D02*
X170201004Y-58016100D01*
X172698996Y-58016100D02*
X179868000Y-58016100D01*
X109347000Y-58257400D02*
X119175028Y-58257400D01*
X128149772Y-58257400D02*
X142019704Y-58257400D01*
X162780296Y-58257400D02*
X164879704Y-58257400D01*
X172940296Y-58257400D02*
X179868000Y-58257400D01*
X109347000Y-58498700D02*
X119416328Y-58498700D01*
X128391072Y-58498700D02*
X141778404Y-58498700D01*
X163021596Y-58498700D02*
X164638404Y-58498700D01*
X173181596Y-58498700D02*
X179868000Y-58498700D01*
X109347000Y-58740000D02*
X119657628Y-58740000D01*
X128632372Y-58740000D02*
X141666416Y-58740000D01*
X163133585Y-58740000D02*
X164526416Y-58740000D01*
X173293585Y-58740000D02*
X179868000Y-58740000D01*
X109347000Y-58981300D02*
X119898928Y-58981300D01*
X128873672Y-58981300D02*
X141566466Y-58981300D01*
X163233535Y-58981300D02*
X164426466Y-58981300D01*
X173393535Y-58981300D02*
X179868000Y-58981300D01*
X109347000Y-59222600D02*
X120140228Y-59222600D01*
X129114972Y-59222600D02*
X141466516Y-59222600D01*
X163333485Y-59222600D02*
X164326516Y-59222600D01*
X173493485Y-59222600D02*
X179868000Y-59222600D01*
X109347000Y-59463900D02*
X120381528Y-59463900D01*
X129356272Y-59463900D02*
X141443200Y-59463900D01*
X163356800Y-59463900D02*
X164303200Y-59463900D01*
X173516800Y-59463900D02*
X179868000Y-59463900D01*
X109347000Y-59705200D02*
X120622828Y-59705200D01*
X129597572Y-59705200D02*
X141443200Y-59705200D01*
X163356800Y-59705200D02*
X164303200Y-59705200D01*
X173516800Y-59705200D02*
X179868000Y-59705200D01*
X109347000Y-59946500D02*
X120864128Y-59946500D01*
X129838872Y-59946500D02*
X141443200Y-59946500D01*
X163356800Y-59946500D02*
X164303200Y-59946500D01*
X173516800Y-59946500D02*
X179868000Y-59946500D01*
X116583972Y-60187800D02*
X121105428Y-60187800D01*
X130080172Y-60187800D02*
X141479107Y-60187800D01*
X163320892Y-60187800D02*
X164339107Y-60187800D01*
X173480892Y-60187800D02*
X179868000Y-60187800D01*
X116586000Y-60429100D02*
X121346728Y-60429100D01*
X130321472Y-60429100D02*
X141579057Y-60429100D01*
X163220942Y-60429100D02*
X164439057Y-60429100D01*
X173380942Y-60429100D02*
X179868000Y-60429100D01*
X116586000Y-60670400D02*
X121588028Y-60670400D01*
X130562772Y-60670400D02*
X141679007Y-60670400D01*
X163120992Y-60670400D02*
X164539007Y-60670400D01*
X173280992Y-60670400D02*
X179868000Y-60670400D01*
X116586000Y-60911700D02*
X121829328Y-60911700D01*
X130804072Y-60911700D02*
X141808804Y-60911700D01*
X162991196Y-60911700D02*
X164668804Y-60911700D01*
X173151196Y-60911700D02*
X179868000Y-60911700D01*
X116586000Y-61153000D02*
X122070628Y-61153000D01*
X131045372Y-61153000D02*
X142050104Y-61153000D01*
X162749896Y-61153000D02*
X164910104Y-61153000D01*
X172909896Y-61153000D02*
X179868000Y-61153000D01*
X116586000Y-61394300D02*
X122311928Y-61394300D01*
X131286672Y-61394300D02*
X142291404Y-61394300D01*
X154888596Y-61394300D02*
X154991404Y-61394300D01*
X157428596Y-61394300D02*
X157531404Y-61394300D01*
X159968596Y-61394300D02*
X160071404Y-61394300D01*
X162508596Y-61394300D02*
X165151404Y-61394300D01*
X167588596Y-61394300D02*
X167691404Y-61394300D01*
X170128596Y-61394300D02*
X170231404Y-61394300D01*
X172668596Y-61394300D02*
X179868000Y-61394300D01*
X116586000Y-61635600D02*
X122553228Y-61635600D01*
X154373714Y-61635600D02*
X155506285Y-61635600D01*
X156913714Y-61635600D02*
X158046285Y-61635600D01*
X159453714Y-61635600D02*
X160586285Y-61635600D01*
X161993714Y-61635600D02*
X165666285Y-61635600D01*
X167073714Y-61635600D02*
X168206285Y-61635600D01*
X169613714Y-61635600D02*
X170746285Y-61635600D01*
X172153714Y-61635600D02*
X179868000Y-61635600D01*
X116586000Y-61876900D02*
X122794528Y-61876900D01*
X154665878Y-61876900D02*
X179868000Y-61876900D01*
X116586000Y-62118200D02*
X123035828Y-62118200D01*
X154870572Y-62118200D02*
X179868000Y-62118200D01*
X116586000Y-62359500D02*
X123277128Y-62359500D01*
X155111872Y-62359500D02*
X179868000Y-62359500D01*
X116586000Y-62600800D02*
X123518428Y-62600800D01*
X155353172Y-62600800D02*
X179868000Y-62600800D01*
X116586000Y-62842100D02*
X123759728Y-62842100D01*
X155594472Y-62842100D02*
X179868000Y-62842100D01*
X116586000Y-63083400D02*
X124001028Y-63083400D01*
X155835772Y-63083400D02*
X179868000Y-63083400D01*
X109347000Y-63324700D02*
X124242328Y-63324700D01*
X156077072Y-63324700D02*
X179868000Y-63324700D01*
X109347000Y-63566000D02*
X124483628Y-63566000D01*
X156318372Y-63566000D02*
X179868000Y-63566000D01*
X109347000Y-63807300D02*
X124724928Y-63807300D01*
X156559672Y-63807300D02*
X179868000Y-63807300D01*
X109347000Y-64048600D02*
X124966228Y-64048600D01*
X156800972Y-64048600D02*
X173396857Y-64048600D01*
X174583144Y-64048600D02*
X179868000Y-64048600D01*
X109347000Y-64289900D02*
X125207528Y-64289900D01*
X157042272Y-64289900D02*
X172817204Y-64289900D01*
X175162796Y-64289900D02*
X179868000Y-64289900D01*
X109347000Y-64531200D02*
X125448828Y-64531200D01*
X157283572Y-64531200D02*
X172575904Y-64531200D01*
X175404096Y-64531200D02*
X179868000Y-64531200D01*
X109347000Y-64772500D02*
X125690128Y-64772500D01*
X157524872Y-64772500D02*
X172334604Y-64772500D01*
X175645396Y-64772500D02*
X179868000Y-64772500D01*
X109347000Y-65013800D02*
X125931428Y-65013800D01*
X157766172Y-65013800D02*
X172177979Y-65013800D01*
X175802022Y-65013800D02*
X179868000Y-65013800D01*
X109347000Y-65255100D02*
X126172728Y-65255100D01*
X158007472Y-65255100D02*
X172078029Y-65255100D01*
X175901972Y-65255100D02*
X179868000Y-65255100D01*
X109347000Y-65496400D02*
X126414028Y-65496400D01*
X158248772Y-65496400D02*
X171978079Y-65496400D01*
X176001922Y-65496400D02*
X179868000Y-65496400D01*
X109347000Y-65737700D02*
X126655328Y-65737700D01*
X158490072Y-65737700D02*
X171923200Y-65737700D01*
X176056800Y-65737700D02*
X179868000Y-65737700D01*
X109347000Y-65979000D02*
X126896628Y-65979000D01*
X158731372Y-65979000D02*
X171923200Y-65979000D01*
X176056800Y-65979000D02*
X179868000Y-65979000D01*
X109347000Y-66220300D02*
X127137928Y-66220300D01*
X158972672Y-66220300D02*
X171923200Y-66220300D01*
X176056800Y-66220300D02*
X179868000Y-66220300D01*
X109347000Y-66461600D02*
X127379228Y-66461600D01*
X159213972Y-66461600D02*
X171927544Y-66461600D01*
X176052455Y-66461600D02*
X179868000Y-66461600D01*
X109347000Y-66702900D02*
X127620528Y-66702900D01*
X159455272Y-66702900D02*
X172027494Y-66702900D01*
X175952505Y-66702900D02*
X179868000Y-66702900D01*
X109347000Y-66944200D02*
X127861828Y-66944200D01*
X159696572Y-66944200D02*
X172127444Y-66944200D01*
X175852555Y-66944200D02*
X179868000Y-66944200D01*
X109347000Y-67185500D02*
X128103128Y-67185500D01*
X159937872Y-67185500D02*
X172227393Y-67185500D01*
X175752606Y-67185500D02*
X179868000Y-67185500D01*
X109347000Y-67426800D02*
X128344428Y-67426800D01*
X160179172Y-67426800D02*
X172230584Y-67426800D01*
X175749417Y-67426800D02*
X179868000Y-67426800D01*
X109347000Y-67668100D02*
X128585728Y-67668100D01*
X160420472Y-67668100D02*
X172130634Y-67668100D01*
X175849367Y-67668100D02*
X179868000Y-67668100D01*
X109347000Y-67909400D02*
X128827028Y-67909400D01*
X160661772Y-67909400D02*
X172030684Y-67909400D01*
X175949317Y-67909400D02*
X179868000Y-67909400D01*
X109347000Y-68150700D02*
X129068328Y-68150700D01*
X160903072Y-68150700D02*
X171930734Y-68150700D01*
X176049267Y-68150700D02*
X179868000Y-68150700D01*
X109347000Y-68392000D02*
X129309628Y-68392000D01*
X161168334Y-68392000D02*
X171923200Y-68392000D01*
X176056800Y-68392000D02*
X179868000Y-68392000D01*
X109347000Y-68633300D02*
X129550928Y-68633300D01*
X161329566Y-68633300D02*
X171923200Y-68633300D01*
X176056800Y-68633300D02*
X179868000Y-68633300D01*
X109347000Y-68874600D02*
X129775034Y-68874600D01*
X161458006Y-68874600D02*
X171923200Y-68874600D01*
X176056800Y-68874600D02*
X179868000Y-68874600D01*
X109347000Y-69115900D02*
X130083840Y-69115900D01*
X161506003Y-69115900D02*
X171974888Y-69115900D01*
X176005111Y-69115900D02*
X179868000Y-69115900D01*
X109347000Y-69357200D02*
X149959829Y-69357200D01*
X161547953Y-69357200D02*
X172074838Y-69357200D01*
X175905161Y-69357200D02*
X179868000Y-69357200D01*
X109347000Y-69598500D02*
X150201129Y-69598500D01*
X161524000Y-69598500D02*
X172174788Y-69598500D01*
X175805211Y-69598500D02*
X179868000Y-69598500D01*
X109347000Y-69839800D02*
X150442429Y-69839800D01*
X161524000Y-69839800D02*
X172326904Y-69839800D01*
X175653096Y-69839800D02*
X179868000Y-69839800D01*
X109347000Y-70081100D02*
X148986555Y-70081100D01*
X150479447Y-70081100D02*
X150683729Y-70081100D01*
X161524000Y-70081100D02*
X161940555Y-70081100D01*
X163433446Y-70081100D02*
X172183239Y-70081100D01*
X175796762Y-70081100D02*
X179868000Y-70081100D01*
X109347000Y-70322400D02*
X148496704Y-70322400D01*
X163923296Y-70322400D02*
X172083289Y-70322400D01*
X175896712Y-70322400D02*
X179868000Y-70322400D01*
X109347000Y-70563700D02*
X148255404Y-70563700D01*
X164164596Y-70563700D02*
X171983339Y-70563700D01*
X175996662Y-70563700D02*
X179868000Y-70563700D01*
X109347000Y-70805000D02*
X148014104Y-70805000D01*
X164405896Y-70805000D02*
X171923200Y-70805000D01*
X176056800Y-70805000D02*
X179868000Y-70805000D01*
X109347000Y-71046300D02*
X147894676Y-71046300D01*
X164525325Y-71046300D02*
X171923200Y-71046300D01*
X176056800Y-71046300D02*
X179868000Y-71046300D01*
X109347000Y-71287600D02*
X147794726Y-71287600D01*
X164625275Y-71287600D02*
X171923200Y-71287600D01*
X176056800Y-71287600D02*
X179868000Y-71287600D01*
X109347000Y-71528900D02*
X147694776Y-71528900D01*
X164725225Y-71528900D02*
X171923200Y-71528900D01*
X176056800Y-71528900D02*
X179868000Y-71528900D01*
X109347000Y-71770200D02*
X147666200Y-71770200D01*
X164753800Y-71770200D02*
X172022233Y-71770200D01*
X175957766Y-71770200D02*
X179868000Y-71770200D01*
X109347000Y-72011500D02*
X147666200Y-72011500D01*
X164753800Y-72011500D02*
X172122183Y-72011500D01*
X175857816Y-72011500D02*
X179868000Y-72011500D01*
X109347000Y-72252800D02*
X147666200Y-72252800D01*
X164753800Y-72252800D02*
X172222133Y-72252800D01*
X175757866Y-72252800D02*
X179868000Y-72252800D01*
X109347000Y-72494100D02*
X147696846Y-72494100D01*
X164723153Y-72494100D02*
X172235844Y-72494100D01*
X175744157Y-72494100D02*
X179868000Y-72494100D01*
X109347000Y-72735400D02*
X147796796Y-72735400D01*
X164623203Y-72735400D02*
X172135895Y-72735400D01*
X175844106Y-72735400D02*
X179868000Y-72735400D01*
X109347000Y-72976700D02*
X142824876Y-72976700D01*
X144195125Y-72976700D02*
X145364876Y-72976700D01*
X146735125Y-72976700D02*
X147896746Y-72976700D01*
X164523253Y-72976700D02*
X165684876Y-72976700D01*
X167055125Y-72976700D02*
X170764876Y-72976700D01*
X175944056Y-72976700D02*
X179868000Y-72976700D01*
X109347000Y-73218000D02*
X142299104Y-73218000D01*
X144720896Y-73218000D02*
X144839104Y-73218000D01*
X147260896Y-73218000D02*
X147379104Y-73218000D01*
X165040896Y-73218000D02*
X165159104Y-73218000D01*
X167580896Y-73218000D02*
X170239104Y-73218000D01*
X176044006Y-73218000D02*
X179868000Y-73218000D01*
X109347000Y-73459300D02*
X142057804Y-73459300D01*
X167822196Y-73459300D02*
X169997804Y-73459300D01*
X176056800Y-73459300D02*
X179868000Y-73459300D01*
X109347000Y-73700600D02*
X141816504Y-73700600D01*
X168063496Y-73700600D02*
X169756504Y-73700600D01*
X176056800Y-73700600D02*
X179868000Y-73700600D01*
X109347000Y-73941900D02*
X141682197Y-73941900D01*
X168197804Y-73941900D02*
X169622197Y-73941900D01*
X176056800Y-73941900D02*
X179868000Y-73941900D01*
X109347000Y-74183200D02*
X141582247Y-74183200D01*
X168297754Y-74183200D02*
X169522247Y-74183200D01*
X176010371Y-74183200D02*
X179868000Y-74183200D01*
X109347000Y-74424500D02*
X141482297Y-74424500D01*
X168397704Y-74424500D02*
X169422297Y-74424500D01*
X175910421Y-74424500D02*
X179868000Y-74424500D01*
X109347000Y-74665800D02*
X141443200Y-74665800D01*
X168436800Y-74665800D02*
X169383200Y-74665800D01*
X175810471Y-74665800D02*
X179868000Y-74665800D01*
X109347000Y-74907100D02*
X141443200Y-74907100D01*
X168436800Y-74907100D02*
X169383200Y-74907100D01*
X175665796Y-74907100D02*
X179868000Y-74907100D01*
X109347000Y-75148400D02*
X141443200Y-75148400D01*
X168436800Y-75148400D02*
X169383200Y-75148400D01*
X175424496Y-75148400D02*
X179868000Y-75148400D01*
X109347000Y-75389700D02*
X141463325Y-75389700D01*
X168416674Y-75389700D02*
X169403325Y-75389700D01*
X175183196Y-75389700D02*
X179868000Y-75389700D01*
X109347000Y-75631000D02*
X141563275Y-75631000D01*
X168316724Y-75631000D02*
X169503275Y-75631000D01*
X174632393Y-75631000D02*
X179868000Y-75631000D01*
X109347000Y-75872300D02*
X141663225Y-75872300D01*
X168216774Y-75872300D02*
X169603225Y-75872300D01*
X173296774Y-75872300D02*
X179868000Y-75872300D01*
X109347000Y-76113600D02*
X141770704Y-76113600D01*
X168109296Y-76113600D02*
X169710704Y-76113600D01*
X173189296Y-76113600D02*
X179868000Y-76113600D01*
X109347000Y-76354900D02*
X142012004Y-76354900D01*
X167867996Y-76354900D02*
X169952004Y-76354900D01*
X172947996Y-76354900D02*
X179868000Y-76354900D01*
X109347000Y-76596200D02*
X142253304Y-76596200D01*
X144766696Y-76596200D02*
X144793304Y-76596200D01*
X147306696Y-76596200D02*
X147333304Y-76596200D01*
X149846696Y-76596200D02*
X149873304Y-76596200D01*
X152386696Y-76596200D02*
X152413304Y-76596200D01*
X154926696Y-76596200D02*
X154953304Y-76596200D01*
X157466696Y-76596200D02*
X157493304Y-76596200D01*
X160006696Y-76596200D02*
X160033304Y-76596200D01*
X165086696Y-76596200D02*
X165113304Y-76596200D01*
X167626696Y-76596200D02*
X170193304Y-76596200D01*
X172706696Y-76596200D02*
X179868000Y-76596200D01*
X109347000Y-76837500D02*
X142714304Y-76837500D01*
X144305695Y-76837500D02*
X145254304Y-76837500D01*
X146845695Y-76837500D02*
X147794304Y-76837500D01*
X149385695Y-76837500D02*
X150334304Y-76837500D01*
X151925695Y-76837500D02*
X152874304Y-76837500D01*
X154465695Y-76837500D02*
X155414304Y-76837500D01*
X157005695Y-76837500D02*
X157954304Y-76837500D01*
X159545695Y-76837500D02*
X159975129Y-76837500D01*
X164625695Y-76837500D02*
X165574304Y-76837500D01*
X167165695Y-76837500D02*
X170654304Y-76837500D01*
X172245695Y-76837500D02*
X179868000Y-76837500D01*
X109347000Y-77078800D02*
X159733829Y-77078800D01*
X163628909Y-77078800D02*
X179868000Y-77078800D01*
X109347000Y-77320100D02*
X159492529Y-77320100D01*
X163387271Y-77320100D02*
X179868000Y-77320100D01*
X109347000Y-77561400D02*
X159251229Y-77561400D01*
X163145971Y-77561400D02*
X179868000Y-77561400D01*
X109347000Y-77802700D02*
X158976908Y-77802700D01*
X162904671Y-77802700D02*
X179868000Y-77802700D01*
X109347000Y-78044000D02*
X158815676Y-78044000D01*
X162663371Y-78044000D02*
X179868000Y-78044000D01*
X109347000Y-78285300D02*
X158674425Y-78285300D01*
X162422071Y-78285300D02*
X179868000Y-78285300D01*
X109347000Y-78526600D02*
X158626428Y-78526600D01*
X162180771Y-78526600D02*
X179868000Y-78526600D01*
X109347000Y-78767900D02*
X158578430Y-78767900D01*
X161939471Y-78767900D02*
X179868000Y-78767900D01*
X109347000Y-79009200D02*
X158603000Y-79009200D01*
X161698171Y-79009200D02*
X179868000Y-79009200D01*
X109347000Y-79250500D02*
X158603000Y-79250500D01*
X161456871Y-79250500D02*
X179868000Y-79250500D01*
X109347000Y-79491800D02*
X156860902Y-79491800D01*
X158099099Y-79491800D02*
X158603000Y-79491800D01*
X161357000Y-79491800D02*
X170830902Y-79491800D01*
X172069099Y-79491800D02*
X173330902Y-79491800D01*
X174569099Y-79491800D02*
X175870902Y-79491800D01*
X177109099Y-79491800D02*
X179868000Y-79491800D01*
X109347000Y-79733100D02*
X156355450Y-79733100D01*
X161357000Y-79733100D02*
X170325450Y-79733100D01*
X172574550Y-79733100D02*
X172825450Y-79733100D01*
X175074550Y-79733100D02*
X175365450Y-79733100D01*
X177614550Y-79733100D02*
X179868000Y-79733100D01*
X109347000Y-79974400D02*
X156114150Y-79974400D01*
X161357000Y-79974400D02*
X170084150Y-79974400D01*
X177855850Y-79974400D02*
X179868000Y-79974400D01*
X109347000Y-80215700D02*
X155876209Y-80215700D01*
X161583792Y-80215700D02*
X169846209Y-80215700D01*
X178093792Y-80215700D02*
X179868000Y-80215700D01*
X109347000Y-80457000D02*
X155776259Y-80457000D01*
X161683742Y-80457000D02*
X169746259Y-80457000D01*
X178193742Y-80457000D02*
X179868000Y-80457000D01*
X109347000Y-80698300D02*
X155676309Y-80698300D01*
X161783692Y-80698300D02*
X169646309Y-80698300D01*
X178293692Y-80698300D02*
X179868000Y-80698300D01*
X109347000Y-80939600D02*
X155591000Y-80939600D01*
X161869000Y-80939600D02*
X169561000Y-80939600D01*
X178379000Y-80939600D02*
X179868000Y-80939600D01*
X109347000Y-81180900D02*
X155591000Y-81180900D01*
X161869000Y-81180900D02*
X169561000Y-81180900D01*
X178379000Y-81180900D02*
X179868000Y-81180900D01*
X109347000Y-81422200D02*
X155591000Y-81422200D01*
X161869000Y-81422200D02*
X169561000Y-81422200D01*
X178379000Y-81422200D02*
X179868000Y-81422200D01*
X109347000Y-81663500D02*
X155594211Y-81663500D01*
X161865788Y-81663500D02*
X169564211Y-81663500D01*
X178375788Y-81663500D02*
X179868000Y-81663500D01*
X109347000Y-81904800D02*
X155694161Y-81904800D01*
X161765838Y-81904800D02*
X169664161Y-81904800D01*
X178275838Y-81904800D02*
X179868000Y-81904800D01*
X109347000Y-82146100D02*
X147059957Y-82146100D01*
X148850044Y-82146100D02*
X155794111Y-82146100D01*
X161665888Y-82146100D02*
X169764111Y-82146100D01*
X178175888Y-82146100D02*
X179868000Y-82146100D01*
X109347000Y-82387400D02*
X146716150Y-82387400D01*
X149193850Y-82387400D02*
X155915950Y-82387400D01*
X161544050Y-82387400D02*
X169885950Y-82387400D01*
X178054050Y-82387400D02*
X179868000Y-82387400D01*
X109347000Y-82628700D02*
X146474850Y-82628700D01*
X149435150Y-82628700D02*
X156157250Y-82628700D01*
X161302750Y-82628700D02*
X170127250Y-82628700D01*
X177812750Y-82628700D02*
X179868000Y-82628700D01*
X109347000Y-82870000D02*
X146303864Y-82870000D01*
X149606137Y-82870000D02*
X156398550Y-82870000D01*
X158561450Y-82870000D02*
X158898550Y-82870000D01*
X161061450Y-82870000D02*
X170368550Y-82870000D01*
X172531450Y-82870000D02*
X172868550Y-82870000D01*
X175031450Y-82870000D02*
X175408550Y-82870000D01*
X177571450Y-82870000D02*
X179868000Y-82870000D01*
X109347000Y-83111300D02*
X146203915Y-83111300D01*
X149706086Y-83111300D02*
X156964953Y-83111300D01*
X157995046Y-83111300D02*
X159464953Y-83111300D01*
X160495046Y-83111300D02*
X170934953Y-83111300D01*
X171965046Y-83111300D02*
X173434953Y-83111300D01*
X174465046Y-83111300D02*
X175974953Y-83111300D01*
X177005046Y-83111300D02*
X179868000Y-83111300D01*
X109347000Y-83352600D02*
X146103965Y-83352600D01*
X149806036Y-83352600D02*
X179868000Y-83352600D01*
X109347000Y-83593900D02*
X146066000Y-83593900D01*
X149844000Y-83593900D02*
X179868000Y-83593900D01*
X109347000Y-83835200D02*
X146066000Y-83835200D01*
X149844000Y-83835200D02*
X179868000Y-83835200D01*
X109347000Y-84076500D02*
X146066000Y-84076500D01*
X149844000Y-84076500D02*
X179868000Y-84076500D01*
X109347000Y-84317800D02*
X146116556Y-84317800D01*
X149793443Y-84317800D02*
X179868000Y-84317800D01*
X109347000Y-84559100D02*
X146216506Y-84559100D01*
X149693493Y-84559100D02*
X179868000Y-84559100D01*
X109347000Y-84800400D02*
X146316456Y-84800400D01*
X149593543Y-84800400D02*
X179868000Y-84800400D01*
X179868001Y-84868000D02*
X179868001Y-84868000D01*
X179626701Y-20132000D02*
X179626701Y-84868000D01*
X179385401Y-20132000D02*
X179385401Y-84868000D01*
X179144101Y-20132000D02*
X179144101Y-84868000D01*
X178902801Y-20132000D02*
X178902801Y-84868000D01*
X178661501Y-20132000D02*
X178661501Y-84868000D01*
X178420201Y-20132000D02*
X178420201Y-84868000D01*
X178178901Y-20132000D02*
X178178901Y-80421173D01*
X178178901Y-82138828D02*
X178178901Y-84868000D01*
X177937601Y-20132000D02*
X177937601Y-80056151D01*
X177937601Y-82503849D02*
X177937601Y-84868000D01*
X177696301Y-20132000D02*
X177696301Y-79814851D01*
X177696301Y-82745149D02*
X177696301Y-84868000D01*
X177455001Y-20132000D02*
X177455001Y-79635078D01*
X177455001Y-82924923D02*
X177455001Y-84868000D01*
X177213701Y-20132000D02*
X177213701Y-79535128D01*
X177213701Y-83024873D02*
X177213701Y-84868000D01*
X176972401Y-20132000D02*
X176972401Y-79435178D01*
X176972401Y-83124823D02*
X176972401Y-84868000D01*
X176731101Y-20132000D02*
X176731101Y-79391000D01*
X176731101Y-83169000D02*
X176731101Y-84868000D01*
X176489801Y-20132000D02*
X176489801Y-79391000D01*
X176489801Y-83169000D02*
X176489801Y-84868000D01*
X176248501Y-20132000D02*
X176248501Y-79391000D01*
X176248501Y-83169000D02*
X176248501Y-84868000D01*
X176007201Y-20132000D02*
X176007201Y-65509146D01*
X176007201Y-66570855D02*
X176007201Y-68049146D01*
X176007201Y-69110855D02*
X176007201Y-70589146D01*
X176007201Y-71650855D02*
X176007201Y-73129146D01*
X176007201Y-74190855D02*
X176007201Y-79435342D01*
X176007201Y-83124657D02*
X176007201Y-84868000D01*
X175765901Y-20132000D02*
X175765901Y-64926597D01*
X175765901Y-67153404D02*
X175765901Y-67466597D01*
X175765901Y-69693404D02*
X175765901Y-70006597D01*
X175765901Y-72233404D02*
X175765901Y-72546597D01*
X175765901Y-74773404D02*
X175765901Y-79535292D01*
X175765901Y-83024707D02*
X175765901Y-84868000D01*
X175524601Y-20132000D02*
X175524601Y-64651705D01*
X175524601Y-75048295D02*
X175524601Y-79635242D01*
X175524601Y-82924757D02*
X175524601Y-84868000D01*
X175283301Y-20132000D02*
X175283301Y-64410405D01*
X175283301Y-75289595D02*
X175283301Y-79815249D01*
X175283301Y-82744751D02*
X175283301Y-84868000D01*
X175042001Y-20132000D02*
X175042001Y-64238666D01*
X175042001Y-75461335D02*
X175042001Y-79700551D01*
X175042001Y-82859449D02*
X175042001Y-84868000D01*
X174800701Y-20132000D02*
X174800701Y-64138716D01*
X174800701Y-75561285D02*
X174800701Y-79587733D01*
X174800701Y-82972268D02*
X174800701Y-84868000D01*
X174559401Y-20132000D02*
X174559401Y-64038766D01*
X174559401Y-75661235D02*
X174559401Y-79487784D01*
X174559401Y-83072217D02*
X174559401Y-84868000D01*
X174318101Y-20132000D02*
X174318101Y-63973200D01*
X174318101Y-75726800D02*
X174318101Y-79391000D01*
X174318101Y-83169000D02*
X174318101Y-84868000D01*
X174076801Y-20132000D02*
X174076801Y-63973200D01*
X174076801Y-75726800D02*
X174076801Y-79391000D01*
X174076801Y-83169000D02*
X174076801Y-84868000D01*
X173835501Y-20132000D02*
X173835501Y-63973200D01*
X173835501Y-75726800D02*
X173835501Y-79391000D01*
X173835501Y-83169000D02*
X173835501Y-84868000D01*
X173594201Y-20132000D02*
X173594201Y-63973200D01*
X173594201Y-75726800D02*
X173594201Y-79391000D01*
X173594201Y-83169000D02*
X173594201Y-84868000D01*
X173352901Y-20132000D02*
X173352901Y-58883202D01*
X173352901Y-60496799D02*
X173352901Y-64066807D01*
X173352901Y-75736799D02*
X173352901Y-79482687D01*
X173352901Y-83077312D02*
X173352901Y-84868000D01*
X173111601Y-20132000D02*
X173111601Y-58428705D01*
X173111601Y-60951295D02*
X173111601Y-64166756D01*
X173111601Y-76191295D02*
X173111601Y-79582637D01*
X173111601Y-82977362D02*
X173111601Y-84868000D01*
X172870301Y-20132000D02*
X172870301Y-58187405D01*
X172870301Y-61192595D02*
X172870301Y-64266706D01*
X172870301Y-76432595D02*
X172870301Y-79688249D01*
X172870301Y-82871751D02*
X172870301Y-84868000D01*
X172629001Y-20132000D02*
X172629001Y-57946105D01*
X172629001Y-61433895D02*
X172629001Y-64478103D01*
X172629001Y-76673895D02*
X172629001Y-79787551D01*
X172629001Y-82772449D02*
X172629001Y-84868000D01*
X172387701Y-20132000D02*
X172387701Y-57841321D01*
X172387701Y-61538680D02*
X172387701Y-64719403D01*
X172387701Y-76778680D02*
X172387701Y-79623770D01*
X172387701Y-82936231D02*
X172387701Y-84868000D01*
X172146401Y-20132000D02*
X172146401Y-57741371D01*
X172146401Y-61638630D02*
X172146401Y-65090033D01*
X172146401Y-66989966D02*
X172146401Y-67630033D01*
X172146401Y-69529966D02*
X172146401Y-70170033D01*
X172146401Y-72069966D02*
X172146401Y-72710033D01*
X172146401Y-76878630D02*
X172146401Y-79523820D01*
X172146401Y-83036181D02*
X172146401Y-84868000D01*
X171905101Y-20132000D02*
X171905101Y-57641421D01*
X171905101Y-61738580D02*
X171905101Y-72881421D01*
X171905101Y-76978580D02*
X171905101Y-79423870D01*
X171905101Y-83136131D02*
X171905101Y-84868000D01*
X171663801Y-20132000D02*
X171663801Y-57623200D01*
X171663801Y-61756800D02*
X171663801Y-72863200D01*
X171663801Y-76996800D02*
X171663801Y-79391000D01*
X171663801Y-83169000D02*
X171663801Y-84868000D01*
X171422501Y-20132000D02*
X171422501Y-57623200D01*
X171422501Y-61756800D02*
X171422501Y-72863200D01*
X171422501Y-76996800D02*
X171422501Y-79391000D01*
X171422501Y-83169000D02*
X171422501Y-84868000D01*
X171181201Y-20132000D02*
X171181201Y-57623200D01*
X171181201Y-61756800D02*
X171181201Y-72863200D01*
X171181201Y-76996800D02*
X171181201Y-79391000D01*
X171181201Y-83169000D02*
X171181201Y-84868000D01*
X170939901Y-20132000D02*
X170939901Y-57664201D01*
X170939901Y-61715798D02*
X170939901Y-72904201D01*
X170939901Y-76955798D02*
X170939901Y-79446650D01*
X170939901Y-83113349D02*
X170939901Y-84868000D01*
X170698601Y-20132000D02*
X170698601Y-57764151D01*
X170698601Y-61615848D02*
X170698601Y-73004151D01*
X170698601Y-76855848D02*
X170698601Y-79546600D01*
X170698601Y-83013399D02*
X170698601Y-84868000D01*
X170457301Y-20132000D02*
X170457301Y-57864101D01*
X170457301Y-61515898D02*
X170457301Y-73104101D01*
X170457301Y-76755898D02*
X170457301Y-79646550D01*
X170457301Y-82913449D02*
X170457301Y-84868000D01*
X170216001Y-20132000D02*
X170216001Y-58001103D01*
X170216001Y-61378897D02*
X170216001Y-73241103D01*
X170216001Y-76618897D02*
X170216001Y-79842549D01*
X170216001Y-82717451D02*
X170216001Y-84868000D01*
X169974701Y-20132000D02*
X169974701Y-57893926D01*
X169974701Y-61486075D02*
X169974701Y-73482403D01*
X169974701Y-76377597D02*
X169974701Y-80083849D01*
X169974701Y-82476151D02*
X169974701Y-84868000D01*
X169733401Y-20132000D02*
X169733401Y-57793976D01*
X169733401Y-61586025D02*
X169733401Y-73723703D01*
X169733401Y-76136297D02*
X169733401Y-80488041D01*
X169733401Y-82071958D02*
X169733401Y-84868000D01*
X169492101Y-20132000D02*
X169492101Y-57694027D01*
X169492101Y-61685974D02*
X169492101Y-74255978D01*
X169492101Y-75604021D02*
X169492101Y-80904254D01*
X169492101Y-80904254D02*
X169492101Y-84868000D01*
X169250801Y-20132000D02*
X169250801Y-57623200D01*
X169250801Y-61756800D02*
X169250801Y-74518888D01*
X169250801Y-74518888D02*
X169250801Y-80904254D01*
X169250801Y-80904254D02*
X169250801Y-84868000D01*
X169009501Y-20132000D02*
X169009501Y-57623200D01*
X169009501Y-61756800D02*
X169009501Y-74518888D01*
X169009501Y-74518888D02*
X169009501Y-80904254D01*
X169009501Y-80904254D02*
X169009501Y-84868000D01*
X168768201Y-20132000D02*
X168768201Y-57623200D01*
X168768201Y-61756800D02*
X168768201Y-74518888D01*
X168768201Y-74518888D02*
X168768201Y-80904254D01*
X168768201Y-80904254D02*
X168768201Y-84868000D01*
X168526901Y-20132000D02*
X168526901Y-57623200D01*
X168526901Y-61756800D02*
X168526901Y-74518888D01*
X168526901Y-74518888D02*
X168526901Y-80904254D01*
X168526901Y-80904254D02*
X168526901Y-84868000D01*
X168285601Y-20132000D02*
X168285601Y-57711546D01*
X168285601Y-61668453D02*
X168285601Y-74153862D01*
X168285601Y-75706139D02*
X168285601Y-80904254D01*
X168285601Y-80904254D02*
X168285601Y-84868000D01*
X168044301Y-20132000D02*
X168044301Y-57811496D01*
X168044301Y-61568503D02*
X168044301Y-73681405D01*
X168044301Y-76178595D02*
X168044301Y-80904254D01*
X168044301Y-80904254D02*
X168044301Y-84868000D01*
X167803001Y-20132000D02*
X167803001Y-57911446D01*
X167803001Y-61468553D02*
X167803001Y-73440105D01*
X167803001Y-76419895D02*
X167803001Y-80904254D01*
X167803001Y-80904254D02*
X167803001Y-84868000D01*
X167561701Y-20132000D02*
X167561701Y-57958805D01*
X167561701Y-61421195D02*
X167561701Y-73198805D01*
X167561701Y-76661195D02*
X167561701Y-80904254D01*
X167561701Y-80904254D02*
X167561701Y-84868000D01*
X167320401Y-20132000D02*
X167320401Y-57846582D01*
X167320401Y-61533419D02*
X167320401Y-73086582D01*
X167320401Y-76773419D02*
X167320401Y-80904254D01*
X167320401Y-80904254D02*
X167320401Y-84868000D01*
X167079101Y-20132000D02*
X167079101Y-21706167D01*
X167079101Y-22743834D02*
X167079101Y-23513196D01*
X167079101Y-26016805D02*
X167079101Y-28691167D01*
X167079101Y-29728834D02*
X167079101Y-30498196D01*
X167079101Y-33001805D02*
X167079101Y-35676167D01*
X167079101Y-36713834D02*
X167079101Y-37483196D01*
X167079101Y-39986805D02*
X167079101Y-42661167D01*
X167079101Y-43698834D02*
X167079101Y-44468196D01*
X167079101Y-46971805D02*
X167079101Y-49646167D01*
X167079101Y-50683834D02*
X167079101Y-51453196D01*
X167079101Y-53956805D02*
X167079101Y-57746632D01*
X167079101Y-61633369D02*
X167079101Y-72986632D01*
X167079101Y-76873369D02*
X167079101Y-80904254D01*
X167079101Y-80904254D02*
X167079101Y-84868000D01*
X166837801Y-20132000D02*
X166837801Y-21123619D01*
X166837801Y-26439690D02*
X166837801Y-28108619D01*
X166837801Y-33424690D02*
X166837801Y-35093619D01*
X166837801Y-40409690D02*
X166837801Y-42078619D01*
X166837801Y-47394690D02*
X166837801Y-49063619D01*
X166837801Y-54379690D02*
X166837801Y-57646682D01*
X166837801Y-61733319D02*
X166837801Y-72886682D01*
X166837801Y-76973319D02*
X166837801Y-80904254D01*
X166837801Y-80904254D02*
X166837801Y-84868000D01*
X166596501Y-20132000D02*
X166596501Y-20854891D01*
X166596501Y-26621863D02*
X166596501Y-27839891D01*
X166596501Y-33606863D02*
X166596501Y-34824891D01*
X166596501Y-40591863D02*
X166596501Y-41809891D01*
X166596501Y-47576863D02*
X166596501Y-48794891D01*
X166596501Y-54561863D02*
X166596501Y-57623200D01*
X166596501Y-61756800D02*
X166596501Y-72863200D01*
X166596501Y-76996800D02*
X166596501Y-80904254D01*
X166596501Y-80904254D02*
X166596501Y-84868000D01*
X166355201Y-20132000D02*
X166355201Y-20613591D01*
X166355201Y-26743426D02*
X166355201Y-27598591D01*
X166355201Y-33728426D02*
X166355201Y-34583591D01*
X166355201Y-40713426D02*
X166355201Y-41568591D01*
X166355201Y-47698426D02*
X166355201Y-48553591D01*
X166355201Y-54683426D02*
X166355201Y-57623200D01*
X166355201Y-61756800D02*
X166355201Y-72863200D01*
X166355201Y-76996800D02*
X166355201Y-80904254D01*
X166355201Y-80904254D02*
X166355201Y-84868000D01*
X166113901Y-20132000D02*
X166113901Y-20450964D01*
X166113901Y-26791423D02*
X166113901Y-27435964D01*
X166113901Y-33776423D02*
X166113901Y-34420964D01*
X166113901Y-40761423D02*
X166113901Y-41405964D01*
X166113901Y-47746423D02*
X166113901Y-48390964D01*
X166113901Y-54731423D02*
X166113901Y-57623200D01*
X166113901Y-61756800D02*
X166113901Y-72863200D01*
X166113901Y-76996800D02*
X166113901Y-80904254D01*
X166113901Y-80904254D02*
X166113901Y-84868000D01*
X165872601Y-20132000D02*
X165872601Y-20351014D01*
X165872601Y-26814079D02*
X165872601Y-27336014D01*
X165872601Y-33799079D02*
X165872601Y-34321014D01*
X165872601Y-40784079D02*
X165872601Y-41306014D01*
X165872601Y-47769079D02*
X165872601Y-48291014D01*
X165872601Y-54754079D02*
X165872601Y-57658941D01*
X165872601Y-61721058D02*
X165872601Y-72898941D01*
X165872601Y-76961058D02*
X165872601Y-80904254D01*
X165872601Y-80904254D02*
X165872601Y-84868000D01*
X165631301Y-20132000D02*
X165631301Y-20251064D01*
X165631301Y-26814079D02*
X165631301Y-27236064D01*
X165631301Y-33799079D02*
X165631301Y-34221064D01*
X165631301Y-40784079D02*
X165631301Y-41206064D01*
X165631301Y-47769079D02*
X165631301Y-48191064D01*
X165631301Y-54754079D02*
X165631301Y-57758891D01*
X165631301Y-61621108D02*
X165631301Y-72998891D01*
X165631301Y-76861108D02*
X165631301Y-80904254D01*
X165631301Y-80904254D02*
X165631301Y-84868000D01*
X165390001Y-20132000D02*
X165390001Y-20198000D01*
X165390001Y-26814079D02*
X165390001Y-27183000D01*
X165390001Y-33799079D02*
X165390001Y-34168000D01*
X165390001Y-40784079D02*
X165390001Y-41153000D01*
X165390001Y-47769079D02*
X165390001Y-48138000D01*
X165390001Y-54754079D02*
X165390001Y-57858841D01*
X165390001Y-61521158D02*
X165390001Y-73098841D01*
X165390001Y-76761158D02*
X165390001Y-80904254D01*
X165390001Y-80904254D02*
X165390001Y-84868000D01*
X165148701Y-20132000D02*
X165148701Y-20198000D01*
X165148701Y-26814079D02*
X165148701Y-27183000D01*
X165148701Y-33799079D02*
X165148701Y-34168000D01*
X165148701Y-40784079D02*
X165148701Y-41153000D01*
X165148701Y-47769079D02*
X165148701Y-48138000D01*
X165148701Y-54754079D02*
X165148701Y-57988403D01*
X165148701Y-61391597D02*
X165148701Y-73228403D01*
X165148701Y-76631597D02*
X165148701Y-80904254D01*
X165148701Y-80904254D02*
X165148701Y-84868000D01*
X164907401Y-20132000D02*
X164907401Y-20198000D01*
X164907401Y-26814079D02*
X164907401Y-27183000D01*
X164907401Y-33799079D02*
X164907401Y-34168000D01*
X164907401Y-40784079D02*
X164907401Y-41153000D01*
X164907401Y-47769079D02*
X164907401Y-48138000D01*
X164907401Y-54754079D02*
X164907401Y-58229703D01*
X164907401Y-61150297D02*
X164907401Y-73139187D01*
X164907401Y-76720814D02*
X164907401Y-80904254D01*
X164907401Y-80904254D02*
X164907401Y-84868000D01*
X164666101Y-20132000D02*
X164666101Y-20210718D01*
X164666101Y-26814079D02*
X164666101Y-27195718D01*
X164666101Y-33799079D02*
X164666101Y-34180718D01*
X164666101Y-40784079D02*
X164666101Y-41165718D01*
X164666101Y-47769079D02*
X164666101Y-48150718D01*
X164666101Y-54754079D02*
X164666101Y-58471003D01*
X164666101Y-60908997D02*
X164666101Y-71386165D01*
X164666101Y-72631836D02*
X164666101Y-73039237D01*
X164666101Y-76820764D02*
X164666101Y-80904254D01*
X164666101Y-80904254D02*
X164666101Y-84868000D01*
X164424801Y-20132000D02*
X164424801Y-20310667D01*
X164424801Y-26814079D02*
X164424801Y-27295668D01*
X164424801Y-33799079D02*
X164424801Y-34280668D01*
X164424801Y-40784079D02*
X164424801Y-41265668D01*
X164424801Y-47769079D02*
X164424801Y-48250668D01*
X164424801Y-54754079D02*
X164424801Y-58985317D01*
X164424801Y-60394682D02*
X164424801Y-70823905D01*
X164424801Y-76920714D02*
X164424801Y-80904254D01*
X164424801Y-80904254D02*
X164424801Y-84868000D01*
X164183501Y-20132000D02*
X164183501Y-20410617D01*
X164183501Y-54787833D02*
X164183501Y-59278888D01*
X164183501Y-59278888D02*
X164183501Y-70582605D01*
X164183501Y-76996800D02*
X164183501Y-80904254D01*
X164183501Y-80904254D02*
X164183501Y-84868000D01*
X163942201Y-20132000D02*
X163942201Y-20516189D01*
X163942201Y-55469912D02*
X163942201Y-59278888D01*
X163942201Y-59278888D02*
X163942201Y-70341305D01*
X163942201Y-76996800D02*
X163942201Y-80904254D01*
X163942201Y-80904254D02*
X163942201Y-84868000D01*
X163700901Y-20132000D02*
X163700901Y-20598000D01*
X163700901Y-55804450D02*
X163700901Y-59278888D01*
X163700901Y-59278888D02*
X163700901Y-70191884D01*
X163700901Y-76996800D02*
X163700901Y-80904254D01*
X163700901Y-80904254D02*
X163700901Y-84868000D01*
X163459601Y-20132000D02*
X163459601Y-20598000D01*
X163459601Y-56011325D02*
X163459601Y-59278888D01*
X163459601Y-59278888D02*
X163459601Y-70091934D01*
X163459601Y-77255011D02*
X163459601Y-80904254D01*
X163459601Y-80904254D02*
X163459601Y-84868000D01*
X163218301Y-20132000D02*
X163218301Y-20598000D01*
X163218301Y-56252625D02*
X163218301Y-58944523D01*
X163218301Y-60435478D02*
X163218301Y-69991984D01*
X163218301Y-77489071D02*
X163218301Y-80904254D01*
X163218301Y-80904254D02*
X163218301Y-84868000D01*
X162977001Y-20132000D02*
X162977001Y-20598000D01*
X162977001Y-56493925D02*
X162977001Y-58454105D01*
X162977001Y-60925895D02*
X162977001Y-69942200D01*
X162977001Y-77730371D02*
X162977001Y-80904254D01*
X162977001Y-80904254D02*
X162977001Y-84868000D01*
X162735701Y-20132000D02*
X162735701Y-20598000D01*
X162735701Y-56735225D02*
X162735701Y-58212805D01*
X162735701Y-61167195D02*
X162735701Y-69942200D01*
X162735701Y-77971671D02*
X162735701Y-80904254D01*
X162735701Y-80904254D02*
X162735701Y-84868000D01*
X162494401Y-20132000D02*
X162494401Y-20579174D01*
X162494401Y-56976525D02*
X162494401Y-57971505D01*
X162494401Y-61408495D02*
X162494401Y-69942200D01*
X162494401Y-78212971D02*
X162494401Y-80904254D01*
X162494401Y-80904254D02*
X162494401Y-84868000D01*
X162253101Y-20132000D02*
X162253101Y-20627171D01*
X162253101Y-57217825D02*
X162253101Y-57851842D01*
X162253101Y-61528159D02*
X162253101Y-69951638D01*
X162253101Y-78454271D02*
X162253101Y-80904254D01*
X162253101Y-80904254D02*
X162253101Y-84868000D01*
X162011801Y-20132000D02*
X162011801Y-20675169D01*
X162011801Y-57459125D02*
X162011801Y-57751892D01*
X162011801Y-61628109D02*
X162011801Y-70051588D01*
X162011801Y-78695571D02*
X162011801Y-80904254D01*
X162011801Y-80904254D02*
X162011801Y-84868000D01*
X161770501Y-20132000D02*
X161770501Y-20795750D01*
X161770501Y-61728059D02*
X161770501Y-70151538D01*
X161770501Y-78936871D02*
X161770501Y-80666457D01*
X161770501Y-81893544D02*
X161770501Y-84868000D01*
X161529201Y-20132000D02*
X161529201Y-20956982D01*
X161529201Y-61756800D02*
X161529201Y-69232525D01*
X161529201Y-69451474D02*
X161529201Y-70251488D01*
X161529201Y-79178171D02*
X161529201Y-80157751D01*
X161529201Y-82402249D02*
X161529201Y-84868000D01*
X161287901Y-20132000D02*
X161287901Y-21200309D01*
X161287901Y-61756800D02*
X161287901Y-68570945D01*
X161287901Y-82643549D02*
X161287901Y-84868000D01*
X161046601Y-20132000D02*
X161046601Y-21561439D01*
X161046601Y-61756800D02*
X161046601Y-68286991D01*
X161046601Y-82882839D02*
X161046601Y-84868000D01*
X160805301Y-20132000D02*
X160805301Y-54063773D01*
X160805301Y-61726319D02*
X160805301Y-68052930D01*
X160805301Y-82982789D02*
X160805301Y-84868000D01*
X160564001Y-20132000D02*
X160564001Y-54305073D01*
X160564001Y-61626369D02*
X160564001Y-67811630D01*
X160564001Y-83082738D02*
X160564001Y-84868000D01*
X160322701Y-20132000D02*
X160322701Y-54546373D01*
X160322701Y-61526419D02*
X160322701Y-67570330D01*
X160322701Y-83169000D02*
X160322701Y-84868000D01*
X160081401Y-20132000D02*
X160081401Y-21675507D01*
X160081401Y-22774495D02*
X160081401Y-23449349D01*
X160081401Y-26080652D02*
X160081401Y-28660507D01*
X160081401Y-29759495D02*
X160081401Y-30434349D01*
X160081401Y-33065652D02*
X160081401Y-35645507D01*
X160081401Y-36744495D02*
X160081401Y-37419349D01*
X160081401Y-40050652D02*
X160081401Y-42630507D01*
X160081401Y-43729495D02*
X160081401Y-44404349D01*
X160081401Y-47035652D02*
X160081401Y-49615507D01*
X160081401Y-50714495D02*
X160081401Y-51389349D01*
X160081401Y-54020652D02*
X160081401Y-54787673D01*
X160081401Y-61404297D02*
X160081401Y-67329030D01*
X160081401Y-76644297D02*
X160081401Y-76731228D01*
X160081401Y-83169000D02*
X160081401Y-84868000D01*
X159840101Y-20132000D02*
X159840101Y-21092958D01*
X159840101Y-26458697D02*
X159840101Y-28077958D01*
X159840101Y-33443697D02*
X159840101Y-35062958D01*
X159840101Y-40428697D02*
X159840101Y-42047958D01*
X159840101Y-47413697D02*
X159840101Y-49032958D01*
X159840101Y-54398697D02*
X159840101Y-55028973D01*
X159840101Y-61475554D02*
X159840101Y-67087730D01*
X159840101Y-76715554D02*
X159840101Y-76972528D01*
X159840101Y-83169000D02*
X159840101Y-84868000D01*
X159598801Y-20132000D02*
X159598801Y-20842191D01*
X159598801Y-26630349D02*
X159598801Y-27827191D01*
X159598801Y-33615349D02*
X159598801Y-34812191D01*
X159598801Y-40600349D02*
X159598801Y-41797191D01*
X159598801Y-47585349D02*
X159598801Y-48782191D01*
X159598801Y-54570349D02*
X159598801Y-55270273D01*
X159598801Y-61575504D02*
X159598801Y-66846430D01*
X159598801Y-76815504D02*
X159598801Y-77213828D01*
X159598801Y-83166741D02*
X159598801Y-84868000D01*
X159357501Y-20132000D02*
X159357501Y-20600891D01*
X159357501Y-26745952D02*
X159357501Y-27585891D01*
X159357501Y-33730952D02*
X159357501Y-34570891D01*
X159357501Y-40715952D02*
X159357501Y-41555891D01*
X159357501Y-47700952D02*
X159357501Y-48540891D01*
X159357501Y-54685952D02*
X159357501Y-55511574D01*
X159357501Y-61675453D02*
X159357501Y-66605130D01*
X159357501Y-76915453D02*
X159357501Y-77455128D01*
X159357501Y-83066791D02*
X159357501Y-84868000D01*
X159116201Y-20132000D02*
X159116201Y-20445703D01*
X159116201Y-26793949D02*
X159116201Y-27430703D01*
X159116201Y-33778949D02*
X159116201Y-34415703D01*
X159116201Y-40763949D02*
X159116201Y-41400703D01*
X159116201Y-47748949D02*
X159116201Y-48385703D01*
X159116201Y-54733949D02*
X159116201Y-55752874D01*
X159116201Y-61756800D02*
X159116201Y-66363830D01*
X159116201Y-76996800D02*
X159116201Y-77696428D01*
X159116201Y-82966841D02*
X159116201Y-84868000D01*
X158874901Y-20132000D02*
X158874901Y-20345753D01*
X158874901Y-26814079D02*
X158874901Y-27330753D01*
X158874901Y-33799079D02*
X158874901Y-34315753D01*
X158874901Y-40784079D02*
X158874901Y-41300753D01*
X158874901Y-47769079D02*
X158874901Y-48285753D01*
X158874901Y-54754079D02*
X158874901Y-55994174D01*
X158874901Y-61756800D02*
X158874901Y-66122530D01*
X158874901Y-76996800D02*
X158874901Y-77955363D01*
X158874901Y-82846351D02*
X158874901Y-84868000D01*
X158633601Y-20132000D02*
X158633601Y-20245803D01*
X158633601Y-26814079D02*
X158633601Y-27230803D01*
X158633601Y-33799079D02*
X158633601Y-34215803D01*
X158633601Y-40784079D02*
X158633601Y-41200803D01*
X158633601Y-47769079D02*
X158633601Y-48185803D01*
X158633601Y-54754079D02*
X158633601Y-56235474D01*
X158633601Y-61756800D02*
X158633601Y-65881230D01*
X158633601Y-76996800D02*
X158633601Y-78490535D01*
X158633601Y-82797849D02*
X158633601Y-84868000D01*
X158392301Y-20132000D02*
X158392301Y-20198000D01*
X158392301Y-26814079D02*
X158392301Y-27183000D01*
X158392301Y-33799079D02*
X158392301Y-34168000D01*
X158392301Y-40784079D02*
X158392301Y-41153000D01*
X158392301Y-47769079D02*
X158392301Y-48138000D01*
X158392301Y-54754079D02*
X158392301Y-56476774D01*
X158392301Y-61756800D02*
X158392301Y-65639930D01*
X158392301Y-76996800D02*
X158392301Y-79613249D01*
X158392301Y-82946752D02*
X158392301Y-84868000D01*
X158151001Y-20132000D02*
X158151001Y-20198000D01*
X158151001Y-26814079D02*
X158151001Y-27183000D01*
X158151001Y-33799079D02*
X158151001Y-34168000D01*
X158151001Y-40784079D02*
X158151001Y-41153000D01*
X158151001Y-47769079D02*
X158151001Y-48138000D01*
X158151001Y-54754079D02*
X158151001Y-56718074D01*
X158151001Y-61678974D02*
X158151001Y-65398630D01*
X158151001Y-76918974D02*
X158151001Y-79513299D01*
X158151001Y-83046702D02*
X158151001Y-84868000D01*
X157909701Y-20132000D02*
X157909701Y-20198000D01*
X157909701Y-26814079D02*
X157909701Y-27183000D01*
X157909701Y-33799079D02*
X157909701Y-34168000D01*
X157909701Y-40784079D02*
X157909701Y-41153000D01*
X157909701Y-47769079D02*
X157909701Y-48138000D01*
X157909701Y-54754079D02*
X157909701Y-56959374D01*
X157909701Y-61579024D02*
X157909701Y-65157330D01*
X157909701Y-76819024D02*
X157909701Y-79413349D01*
X157909701Y-83146652D02*
X157909701Y-84868000D01*
X157668401Y-20132000D02*
X157668401Y-20215978D01*
X157668401Y-61479074D02*
X157668401Y-64916030D01*
X157668401Y-76719074D02*
X157668401Y-79391000D01*
X157668401Y-83169000D02*
X157668401Y-84868000D01*
X157427101Y-20132000D02*
X157427101Y-20315928D01*
X157427101Y-61395795D02*
X157427101Y-64674730D01*
X157427101Y-76635795D02*
X157427101Y-79391000D01*
X157427101Y-83169000D02*
X157427101Y-84868000D01*
X157185801Y-20132000D02*
X157185801Y-20415878D01*
X157185801Y-61522898D02*
X157185801Y-64433430D01*
X157185801Y-76762898D02*
X157185801Y-79391000D01*
X157185801Y-83169000D02*
X157185801Y-84868000D01*
X156944501Y-20132000D02*
X156944501Y-20528889D01*
X156944501Y-61622848D02*
X156944501Y-64192130D01*
X156944501Y-76862848D02*
X156944501Y-79457171D01*
X156944501Y-83102828D02*
X156944501Y-84868000D01*
X156703201Y-20132000D02*
X156703201Y-20598000D01*
X156703201Y-61722798D02*
X156703201Y-63950830D01*
X156703201Y-76962798D02*
X156703201Y-79557121D01*
X156703201Y-83002878D02*
X156703201Y-84868000D01*
X156461901Y-20132000D02*
X156461901Y-20598000D01*
X156461901Y-61756800D02*
X156461901Y-63709530D01*
X156461901Y-76996800D02*
X156461901Y-79657071D01*
X156461901Y-82902928D02*
X156461901Y-84868000D01*
X156220601Y-20132000D02*
X156220601Y-20568235D01*
X156220601Y-61756800D02*
X156220601Y-63468230D01*
X156220601Y-76996800D02*
X156220601Y-79867949D01*
X156220601Y-82692051D02*
X156220601Y-84868000D01*
X155979301Y-20132000D02*
X155979301Y-20612014D01*
X155979301Y-61756800D02*
X155979301Y-63226930D01*
X155979301Y-76996800D02*
X155979301Y-80109249D01*
X155979301Y-82450751D02*
X155979301Y-84868000D01*
X155738001Y-20132000D02*
X155738001Y-20660012D01*
X155738001Y-61731579D02*
X155738001Y-62985630D01*
X155738001Y-76971579D02*
X155738001Y-80549362D01*
X155738001Y-82010637D02*
X155738001Y-84868000D01*
X155496701Y-20132000D02*
X155496701Y-20744835D01*
X155496701Y-61631629D02*
X155496701Y-62744330D01*
X155496701Y-76871629D02*
X155496701Y-84868000D01*
X155255401Y-20132000D02*
X155255401Y-20906067D01*
X155255401Y-61531679D02*
X155255401Y-62503030D01*
X155255401Y-76771679D02*
X155255401Y-84868000D01*
X155014101Y-20132000D02*
X155014101Y-21086268D01*
X155014101Y-61416997D02*
X155014101Y-62261730D01*
X155014101Y-76656997D02*
X155014101Y-84868000D01*
X154772801Y-20132000D02*
X154772801Y-21005093D01*
X154772801Y-61470293D02*
X154772801Y-62020430D01*
X154772801Y-76710293D02*
X154772801Y-84868000D01*
X154531501Y-20132000D02*
X154531501Y-20843861D01*
X154531501Y-61570243D02*
X154531501Y-61784533D01*
X154531501Y-76810243D02*
X154531501Y-84868000D01*
X154290201Y-20132000D02*
X154290201Y-20689492D01*
X154290201Y-76910193D02*
X154290201Y-84868000D01*
X154048901Y-20132000D02*
X154048901Y-20641494D01*
X154048901Y-76996800D02*
X154048901Y-84868000D01*
X153807601Y-20132000D02*
X153807601Y-20593497D01*
X153807601Y-76996800D02*
X153807601Y-84868000D01*
X153566301Y-20132000D02*
X153566301Y-20586752D01*
X153566301Y-76996800D02*
X153566301Y-84868000D01*
X153325001Y-20132000D02*
X153325001Y-20598000D01*
X153325001Y-76996800D02*
X153325001Y-84868000D01*
X153083701Y-20132000D02*
X153083701Y-20598000D01*
X153083701Y-76924235D02*
X153083701Y-84868000D01*
X152842401Y-20132000D02*
X152842401Y-20598000D01*
X152842401Y-76824285D02*
X152842401Y-84868000D01*
X152601101Y-20132000D02*
X152601101Y-20598000D01*
X152601101Y-76724335D02*
X152601101Y-84868000D01*
X152359801Y-20132000D02*
X152359801Y-20588191D01*
X152359801Y-76623095D02*
X152359801Y-84868000D01*
X152118501Y-20132000D02*
X152118501Y-20440443D01*
X152118501Y-76757638D02*
X152118501Y-84868000D01*
X151877201Y-20132000D02*
X151877201Y-20340493D01*
X151877201Y-26814079D02*
X151877201Y-27325493D01*
X151877201Y-33799079D02*
X151877201Y-34310493D01*
X151877201Y-40784079D02*
X151877201Y-41295493D01*
X151877201Y-47769079D02*
X151877201Y-48280493D01*
X151877201Y-76857588D02*
X151877201Y-84868000D01*
X151635901Y-20132000D02*
X151635901Y-20240543D01*
X151635901Y-26814079D02*
X151635901Y-27225543D01*
X151635901Y-33799079D02*
X151635901Y-34210543D01*
X151635901Y-40784079D02*
X151635901Y-41195543D01*
X151635901Y-47769079D02*
X151635901Y-48180543D01*
X151635901Y-76957538D02*
X151635901Y-84868000D01*
X151394601Y-20132000D02*
X151394601Y-20198000D01*
X151394601Y-26814079D02*
X151394601Y-27183000D01*
X151394601Y-33799079D02*
X151394601Y-34168000D01*
X151394601Y-40784079D02*
X151394601Y-41153000D01*
X151394601Y-47769079D02*
X151394601Y-48138000D01*
X151394601Y-76996800D02*
X151394601Y-84868000D01*
X151153301Y-20132000D02*
X151153301Y-20198000D01*
X151153301Y-26814079D02*
X151153301Y-27183000D01*
X151153301Y-33799079D02*
X151153301Y-34168000D01*
X151153301Y-40784079D02*
X151153301Y-41153000D01*
X151153301Y-47769079D02*
X151153301Y-48138000D01*
X151153301Y-76996800D02*
X151153301Y-84868000D01*
X150912001Y-20132000D02*
X150912001Y-20198000D01*
X150912001Y-26814079D02*
X150912001Y-27183000D01*
X150912001Y-33799079D02*
X150912001Y-34168000D01*
X150912001Y-40784079D02*
X150912001Y-41153000D01*
X150912001Y-47769079D02*
X150912001Y-48138000D01*
X150912001Y-76996800D02*
X150912001Y-84868000D01*
X150670701Y-20132000D02*
X150670701Y-20221239D01*
X150670701Y-26814079D02*
X150670701Y-27206239D01*
X150670701Y-33799079D02*
X150670701Y-34191239D01*
X150670701Y-40784079D02*
X150670701Y-41176239D01*
X150670701Y-47769079D02*
X150670701Y-48161239D01*
X150670701Y-70068072D02*
X150670701Y-70160321D01*
X150670701Y-76976840D02*
X150670701Y-84868000D01*
X150429401Y-20132000D02*
X150429401Y-20321189D01*
X150429401Y-26814079D02*
X150429401Y-27306189D01*
X150429401Y-33799079D02*
X150429401Y-34291189D01*
X150429401Y-40784079D02*
X150429401Y-41276189D01*
X150429401Y-47769079D02*
X150429401Y-48261189D01*
X150429401Y-69826772D02*
X150429401Y-70060371D01*
X150429401Y-76876890D02*
X150429401Y-84868000D01*
X150188101Y-20132000D02*
X150188101Y-20421138D01*
X150188101Y-26805744D02*
X150188101Y-27406138D01*
X150188101Y-33790744D02*
X150188101Y-34391138D01*
X150188101Y-40775744D02*
X150188101Y-41376138D01*
X150188101Y-47760744D02*
X150188101Y-48361138D01*
X150188101Y-69585472D02*
X150188101Y-69960421D01*
X150188101Y-76776940D02*
X150188101Y-84868000D01*
X149946801Y-20132000D02*
X149946801Y-20541589D01*
X149946801Y-26757747D02*
X149946801Y-27526589D01*
X149946801Y-33742747D02*
X149946801Y-34511589D01*
X149946801Y-40727747D02*
X149946801Y-41496589D01*
X149946801Y-47712747D02*
X149946801Y-48481589D01*
X149946801Y-69344172D02*
X149946801Y-69942200D01*
X149946801Y-76669697D02*
X149946801Y-84868000D01*
X149705501Y-20132000D02*
X149705501Y-20782889D01*
X149705501Y-26669972D02*
X149705501Y-27767889D01*
X149705501Y-33654972D02*
X149705501Y-34752889D01*
X149705501Y-40639972D02*
X149705501Y-41737889D01*
X149705501Y-47624972D02*
X149705501Y-48722889D01*
X149705501Y-69322000D02*
X149705501Y-69942200D01*
X149705501Y-76705033D02*
X149705501Y-83109888D01*
X149705501Y-84530112D02*
X149705501Y-84868000D01*
X149464201Y-20132000D02*
X149464201Y-21024189D01*
X149464201Y-26508741D02*
X149464201Y-28009189D01*
X149464201Y-33493741D02*
X149464201Y-34994189D01*
X149464201Y-40478741D02*
X149464201Y-41979189D01*
X149464201Y-47463741D02*
X149464201Y-48964189D01*
X149464201Y-69322000D02*
X149464201Y-69942200D01*
X149464201Y-76804982D02*
X149464201Y-82657751D01*
X149222901Y-20132000D02*
X149222901Y-21532338D01*
X149222901Y-22917661D02*
X149222901Y-23343683D01*
X149222901Y-26186316D02*
X149222901Y-28517338D01*
X149222901Y-29902661D02*
X149222901Y-30328683D01*
X149222901Y-33171316D02*
X149222901Y-35502338D01*
X149222901Y-36887661D02*
X149222901Y-37313683D01*
X149222901Y-40156316D02*
X149222901Y-42487338D01*
X149222901Y-43872661D02*
X149222901Y-44298683D01*
X149222901Y-47141316D02*
X149222901Y-49472338D01*
X149222901Y-50857661D02*
X149222901Y-51283683D01*
X149222901Y-69322000D02*
X149222901Y-69983201D01*
X149222901Y-76904932D02*
X149222901Y-82416451D01*
X148981601Y-20132000D02*
X148981601Y-53335677D01*
X148981601Y-69322000D02*
X148981601Y-70083151D01*
X148981601Y-76996800D02*
X148981601Y-82200593D01*
X148740301Y-20132000D02*
X148740301Y-53094377D01*
X148740301Y-69322000D02*
X148740301Y-70183101D01*
X148740301Y-76996800D02*
X148740301Y-82100644D01*
X148499001Y-20132000D02*
X148499001Y-52853077D01*
X148499001Y-69322000D02*
X148499001Y-70320103D01*
X148499001Y-76996800D02*
X148499001Y-82000694D01*
X148257701Y-20132000D02*
X148257701Y-21791778D01*
X148257701Y-69322000D02*
X148257701Y-70561403D01*
X148257701Y-76996800D02*
X148257701Y-81931000D01*
X148016401Y-20132000D02*
X148016401Y-21289061D01*
X148016401Y-69322000D02*
X148016401Y-70802703D01*
X148016401Y-76929495D02*
X148016401Y-81931000D01*
X147775101Y-20132000D02*
X147775101Y-20996607D01*
X147775101Y-69322000D02*
X147775101Y-71334978D01*
X147775101Y-72683021D02*
X147775101Y-73030454D01*
X147775101Y-76829545D02*
X147775101Y-81931000D01*
X147533801Y-20132000D02*
X147533801Y-20835376D01*
X147533801Y-69322000D02*
X147533801Y-73130404D01*
X147533801Y-76729595D02*
X147533801Y-81949827D01*
X147292501Y-20132000D02*
X147292501Y-20686966D01*
X147292501Y-69322000D02*
X147292501Y-73249605D01*
X147292501Y-76610395D02*
X147292501Y-82049776D01*
X147051201Y-20132000D02*
X147051201Y-20638968D01*
X147051201Y-69322000D02*
X147051201Y-73107624D01*
X147051201Y-76752377D02*
X147051201Y-82149726D01*
X146809901Y-20132000D02*
X146809901Y-20590971D01*
X146809901Y-69322000D02*
X146809901Y-73007674D01*
X146809901Y-76852327D02*
X146809901Y-82293649D01*
X146568601Y-20132000D02*
X146568601Y-20589279D01*
X146568601Y-69322000D02*
X146568601Y-72907724D01*
X146568601Y-76952277D02*
X146568601Y-82534949D01*
X146327301Y-20132000D02*
X146327301Y-20598000D01*
X146327301Y-69322000D02*
X146327301Y-72863200D01*
X146327301Y-76996800D02*
X146327301Y-82813417D01*
X146327301Y-84826581D02*
X146327301Y-84868000D01*
X146086001Y-20132000D02*
X146086001Y-20598000D01*
X146086001Y-69322000D02*
X146086001Y-72863200D01*
X146086001Y-76996800D02*
X146086001Y-83395967D01*
X146086001Y-84244032D02*
X146086001Y-84868000D01*
X145844701Y-20132000D02*
X145844701Y-20598000D01*
X145844701Y-69322000D02*
X145844701Y-72863200D01*
X145844701Y-76996800D02*
X145844701Y-84868000D01*
X145603401Y-20132000D02*
X145603401Y-20598000D01*
X145603401Y-69322000D02*
X145603401Y-72877899D01*
X145603401Y-76982100D02*
X145603401Y-84868000D01*
X145362101Y-20132000D02*
X145362101Y-20575491D01*
X145362101Y-69322000D02*
X145362101Y-72977849D01*
X145362101Y-76882150D02*
X145362101Y-84868000D01*
X145120801Y-20132000D02*
X145120801Y-20435182D01*
X145120801Y-69322000D02*
X145120801Y-73077798D01*
X145120801Y-76782201D02*
X145120801Y-84868000D01*
X144879501Y-20132000D02*
X144879501Y-20335232D01*
X144879501Y-26814079D02*
X144879501Y-27320232D01*
X144879501Y-33799079D02*
X144879501Y-34305232D01*
X144879501Y-40784079D02*
X144879501Y-41290232D01*
X144879501Y-47769079D02*
X144879501Y-48275232D01*
X144879501Y-69322000D02*
X144879501Y-73177748D01*
X144879501Y-76682251D02*
X144879501Y-84868000D01*
X144638201Y-20132000D02*
X144638201Y-20235282D01*
X144638201Y-26814079D02*
X144638201Y-27220282D01*
X144638201Y-33799079D02*
X144638201Y-34205282D01*
X144638201Y-40784079D02*
X144638201Y-41190282D01*
X144638201Y-47769079D02*
X144638201Y-48175282D01*
X144638201Y-69322000D02*
X144638201Y-73160229D01*
X144638201Y-76699772D02*
X144638201Y-84868000D01*
X144396901Y-20132000D02*
X144396901Y-20198000D01*
X144396901Y-26814079D02*
X144396901Y-27183000D01*
X144396901Y-33799079D02*
X144396901Y-34168000D01*
X144396901Y-40784079D02*
X144396901Y-41153000D01*
X144396901Y-47769079D02*
X144396901Y-48138000D01*
X144396901Y-69322000D02*
X144396901Y-73060279D01*
X144396901Y-76799722D02*
X144396901Y-84868000D01*
X144155601Y-20132000D02*
X144155601Y-20198000D01*
X144155601Y-26814079D02*
X144155601Y-27183000D01*
X144155601Y-33799079D02*
X144155601Y-34168000D01*
X144155601Y-40784079D02*
X144155601Y-41153000D01*
X144155601Y-47769079D02*
X144155601Y-48138000D01*
X144155601Y-69322000D02*
X144155601Y-72960329D01*
X144155601Y-76899672D02*
X144155601Y-84868000D01*
X143914301Y-20132000D02*
X143914301Y-20198000D01*
X143914301Y-26814079D02*
X143914301Y-27183000D01*
X143914301Y-33799079D02*
X143914301Y-34168000D01*
X143914301Y-40784079D02*
X143914301Y-41153000D01*
X143914301Y-47769079D02*
X143914301Y-48138000D01*
X143914301Y-69322000D02*
X143914301Y-72863200D01*
X143914301Y-76996800D02*
X143914301Y-84868000D01*
X143673001Y-20132000D02*
X143673001Y-20226499D01*
X143673001Y-26814079D02*
X143673001Y-27211499D01*
X143673001Y-33799079D02*
X143673001Y-34196499D01*
X143673001Y-40784079D02*
X143673001Y-41181499D01*
X143673001Y-47769079D02*
X143673001Y-48166499D01*
X143673001Y-69322000D02*
X143673001Y-72863200D01*
X143673001Y-76996800D02*
X143673001Y-84868000D01*
X143431701Y-20132000D02*
X143431701Y-20326449D01*
X143431701Y-26814079D02*
X143431701Y-27311449D01*
X143431701Y-33799079D02*
X143431701Y-34296449D01*
X143431701Y-40784079D02*
X143431701Y-41281449D01*
X143431701Y-47769079D02*
X143431701Y-48266449D01*
X143431701Y-69322000D02*
X143431701Y-72863200D01*
X143431701Y-76996800D02*
X143431701Y-84868000D01*
X143190401Y-20132000D02*
X143190401Y-20426399D01*
X143190401Y-26803218D02*
X143190401Y-27411399D01*
X143190401Y-33788218D02*
X143190401Y-34396399D01*
X143190401Y-40773218D02*
X143190401Y-41381399D01*
X143190401Y-47758218D02*
X143190401Y-48366399D01*
X143190401Y-69322000D02*
X143190401Y-72863200D01*
X143190401Y-76996800D02*
X143190401Y-84868000D01*
X142949101Y-20132000D02*
X142949101Y-20554289D01*
X142949101Y-26755221D02*
X142949101Y-27539289D01*
X142949101Y-33740221D02*
X142949101Y-34524289D01*
X142949101Y-40725221D02*
X142949101Y-41509289D01*
X142949101Y-47710221D02*
X142949101Y-48494289D01*
X142949101Y-69322000D02*
X142949101Y-72925243D01*
X142949101Y-76934756D02*
X142949101Y-84868000D01*
X142707801Y-20132000D02*
X142707801Y-20795589D01*
X142707801Y-26661486D02*
X142707801Y-27780589D01*
X142707801Y-33646486D02*
X142707801Y-34765589D01*
X142707801Y-40631486D02*
X142707801Y-41750589D01*
X142707801Y-47616486D02*
X142707801Y-48735589D01*
X142707801Y-69322000D02*
X142707801Y-73025193D01*
X142707801Y-76834806D02*
X142707801Y-84868000D01*
X142466501Y-20132000D02*
X142466501Y-21036889D01*
X142466501Y-26500255D02*
X142466501Y-28021889D01*
X142466501Y-33485255D02*
X142466501Y-35006889D01*
X142466501Y-40470255D02*
X142466501Y-41991889D01*
X142466501Y-47455255D02*
X142466501Y-48976889D01*
X142466501Y-57774531D02*
X142466501Y-57885143D01*
X142466501Y-69322000D02*
X142466501Y-73125143D01*
X142466501Y-76734856D02*
X142466501Y-84868000D01*
X142225201Y-20132000D02*
X142225201Y-21562999D01*
X142225201Y-22887001D02*
X142225201Y-23362690D01*
X142225201Y-26167309D02*
X142225201Y-28547999D01*
X142225201Y-29872001D02*
X142225201Y-30347690D01*
X142225201Y-33152309D02*
X142225201Y-35532999D01*
X142225201Y-36857001D02*
X142225201Y-37332690D01*
X142225201Y-40137309D02*
X142225201Y-42517999D01*
X142225201Y-43842001D02*
X142225201Y-44317690D01*
X142225201Y-47122309D02*
X142225201Y-49502999D01*
X142225201Y-50827001D02*
X142225201Y-51302690D01*
X142225201Y-57531126D02*
X142225201Y-58051903D01*
X142225201Y-61328097D02*
X142225201Y-61488000D01*
X142225201Y-69322000D02*
X142225201Y-73291903D01*
X142225201Y-76568097D02*
X142225201Y-84868000D01*
X141983901Y-20132000D02*
X141983901Y-52687977D01*
X141983901Y-57289826D02*
X141983901Y-58293203D01*
X141983901Y-61086797D02*
X141983901Y-61488000D01*
X141983901Y-69322000D02*
X141983901Y-73533203D01*
X141983901Y-76326797D02*
X141983901Y-84868000D01*
X141742601Y-20132000D02*
X141742601Y-52446677D01*
X141742601Y-57048526D02*
X141742601Y-58556071D01*
X141742601Y-60823928D02*
X141742601Y-61488000D01*
X141742601Y-69322000D02*
X141742601Y-73796071D01*
X141742601Y-76063928D02*
X141742601Y-84868000D01*
X141501301Y-20132000D02*
X141501301Y-52205377D01*
X141501301Y-56807226D02*
X141501301Y-59138619D01*
X141501301Y-60241380D02*
X141501301Y-61488000D01*
X141501301Y-69322000D02*
X141501301Y-74378619D01*
X141501301Y-75481380D02*
X141501301Y-84868000D01*
X141260001Y-20132000D02*
X141260001Y-21727931D01*
X141260001Y-56565926D02*
X141260001Y-61488000D01*
X141260001Y-69322000D02*
X141260001Y-84868000D01*
X141018701Y-20132000D02*
X141018701Y-21270055D01*
X141018701Y-56324626D02*
X141018701Y-61488000D01*
X141018701Y-69322000D02*
X141018701Y-84868000D01*
X140777401Y-20132000D02*
X140777401Y-20988122D01*
X140777401Y-56083326D02*
X140777401Y-61488000D01*
X140777401Y-69322000D02*
X140777401Y-84868000D01*
X140536101Y-20132000D02*
X140536101Y-20826890D01*
X140536101Y-55842025D02*
X140536101Y-61488000D01*
X140536101Y-69322000D02*
X140536101Y-84868000D01*
X140294801Y-20132000D02*
X140294801Y-20684439D01*
X140294801Y-55600725D02*
X140294801Y-61488000D01*
X140294801Y-69322000D02*
X140294801Y-84868000D01*
X140053501Y-20132000D02*
X140053501Y-20636442D01*
X140053501Y-55359425D02*
X140053501Y-61488000D01*
X140053501Y-69322000D02*
X140053501Y-84868000D01*
X139812201Y-20132000D02*
X139812201Y-20588445D01*
X139812201Y-55118125D02*
X139812201Y-61488000D01*
X139812201Y-69322000D02*
X139812201Y-84868000D01*
X139570901Y-20132000D02*
X139570901Y-20591805D01*
X139570901Y-54876825D02*
X139570901Y-61488000D01*
X139570901Y-69322000D02*
X139570901Y-84868000D01*
X139329601Y-20132000D02*
X139329601Y-20598000D01*
X139329601Y-54635525D02*
X139329601Y-61488000D01*
X139329601Y-69322000D02*
X139329601Y-84868000D01*
X139088301Y-20132000D02*
X139088301Y-20598000D01*
X139088301Y-54394225D02*
X139088301Y-61488000D01*
X139088301Y-69322000D02*
X139088301Y-84868000D01*
X138847001Y-20132000D02*
X138847001Y-20598000D01*
X138847001Y-54434575D02*
X138847001Y-61488000D01*
X138847001Y-69322000D02*
X138847001Y-84868000D01*
X138605701Y-20132000D02*
X138605701Y-20598000D01*
X138605701Y-54595806D02*
X138605701Y-61488000D01*
X138605701Y-69322000D02*
X138605701Y-84868000D01*
X138364401Y-20132000D02*
X138364401Y-20562791D01*
X138364401Y-54693531D02*
X138364401Y-61488000D01*
X138364401Y-69322000D02*
X138364401Y-84868000D01*
X138123101Y-20132000D02*
X138123101Y-20429922D01*
X138123101Y-54741528D02*
X138123101Y-61488000D01*
X138123101Y-69322000D02*
X138123101Y-84868000D01*
X137881801Y-20132000D02*
X137881801Y-20329972D01*
X137881801Y-26814079D02*
X137881801Y-27314972D01*
X137881801Y-33799079D02*
X137881801Y-34299972D01*
X137881801Y-40784079D02*
X137881801Y-41284972D01*
X137881801Y-47769079D02*
X137881801Y-48269972D01*
X137881801Y-54754079D02*
X137881801Y-61488000D01*
X137881801Y-69322000D02*
X137881801Y-84868000D01*
X137640501Y-20132000D02*
X137640501Y-20230022D01*
X137640501Y-26814079D02*
X137640501Y-27215022D01*
X137640501Y-33799079D02*
X137640501Y-34200022D01*
X137640501Y-40784079D02*
X137640501Y-41185022D01*
X137640501Y-47769079D02*
X137640501Y-48170022D01*
X137640501Y-54754079D02*
X137640501Y-61488000D01*
X137640501Y-69322000D02*
X137640501Y-84868000D01*
X137399201Y-20132000D02*
X137399201Y-20198000D01*
X137399201Y-26814079D02*
X137399201Y-27183000D01*
X137399201Y-33799079D02*
X137399201Y-34168000D01*
X137399201Y-40784079D02*
X137399201Y-41153000D01*
X137399201Y-47769079D02*
X137399201Y-48138000D01*
X137399201Y-54754079D02*
X137399201Y-61488000D01*
X137399201Y-69322000D02*
X137399201Y-84868000D01*
X137157901Y-20132000D02*
X137157901Y-20198000D01*
X137157901Y-26814079D02*
X137157901Y-27183000D01*
X137157901Y-33799079D02*
X137157901Y-34168000D01*
X137157901Y-40784079D02*
X137157901Y-41153000D01*
X137157901Y-47769079D02*
X137157901Y-48138000D01*
X137157901Y-54754079D02*
X137157901Y-61488000D01*
X137157901Y-69322000D02*
X137157901Y-84868000D01*
X136916601Y-20132000D02*
X136916601Y-20198000D01*
X136916601Y-26814079D02*
X136916601Y-27183000D01*
X136916601Y-33799079D02*
X136916601Y-34168000D01*
X136916601Y-40784079D02*
X136916601Y-41153000D01*
X136916601Y-47769079D02*
X136916601Y-48138000D01*
X136916601Y-54754079D02*
X136916601Y-61488000D01*
X136916601Y-69322000D02*
X136916601Y-84868000D01*
X136675301Y-20132000D02*
X136675301Y-20231760D01*
X136675301Y-26814079D02*
X136675301Y-27216760D01*
X136675301Y-33799079D02*
X136675301Y-34201760D01*
X136675301Y-40784079D02*
X136675301Y-41186760D01*
X136675301Y-47769079D02*
X136675301Y-48171760D01*
X136675301Y-54754079D02*
X136675301Y-61488000D01*
X136675301Y-69322000D02*
X136675301Y-84868000D01*
X136434001Y-20132000D02*
X136434001Y-20331710D01*
X136434001Y-26814079D02*
X136434001Y-27316710D01*
X136434001Y-33799079D02*
X136434001Y-34301710D01*
X136434001Y-40784079D02*
X136434001Y-41286710D01*
X136434001Y-47769079D02*
X136434001Y-48271710D01*
X136434001Y-54754079D02*
X136434001Y-61488000D01*
X136434001Y-69322000D02*
X136434001Y-84868000D01*
X136192701Y-20132000D02*
X136192701Y-20431659D01*
X136192701Y-26800692D02*
X136192701Y-27416659D01*
X136192701Y-33785692D02*
X136192701Y-34401659D01*
X136192701Y-40770692D02*
X136192701Y-41386659D01*
X136192701Y-47755692D02*
X136192701Y-48371659D01*
X136192701Y-54740692D02*
X136192701Y-61488000D01*
X136192701Y-69322000D02*
X136192701Y-84868000D01*
X135951401Y-20132000D02*
X135951401Y-20566989D01*
X135951401Y-26752695D02*
X135951401Y-27551989D01*
X135951401Y-33737695D02*
X135951401Y-34536989D01*
X135951401Y-40722695D02*
X135951401Y-41521989D01*
X135951401Y-47707695D02*
X135951401Y-48506989D01*
X135951401Y-54692695D02*
X135951401Y-61488000D01*
X135951401Y-69322000D02*
X135951401Y-84868000D01*
X135710101Y-20132000D02*
X135710101Y-20808289D01*
X135710101Y-26653000D02*
X135710101Y-27793289D01*
X135710101Y-33638000D02*
X135710101Y-34778289D01*
X135710101Y-40623000D02*
X135710101Y-41763289D01*
X135710101Y-47608000D02*
X135710101Y-48748289D01*
X135710101Y-54593000D02*
X135710101Y-61488000D01*
X135710101Y-69322000D02*
X135710101Y-84868000D01*
X135468801Y-20132000D02*
X135468801Y-21049589D01*
X135468801Y-26491769D02*
X135468801Y-28034589D01*
X135468801Y-33476769D02*
X135468801Y-35019589D01*
X135468801Y-40461769D02*
X135468801Y-42004589D01*
X135468801Y-47446769D02*
X135468801Y-48989589D01*
X135468801Y-54431769D02*
X135468801Y-61488000D01*
X135468801Y-69322000D02*
X135468801Y-84868000D01*
X135227501Y-20132000D02*
X135227501Y-21593659D01*
X135227501Y-22856340D02*
X135227501Y-23381697D01*
X135227501Y-26148302D02*
X135227501Y-28578659D01*
X135227501Y-29841340D02*
X135227501Y-30366697D01*
X135227501Y-33133302D02*
X135227501Y-35563659D01*
X135227501Y-36826340D02*
X135227501Y-37351697D01*
X135227501Y-40118302D02*
X135227501Y-42548659D01*
X135227501Y-43811340D02*
X135227501Y-44336697D01*
X135227501Y-47103302D02*
X135227501Y-49533659D01*
X135227501Y-50796340D02*
X135227501Y-51321697D01*
X135227501Y-54088302D02*
X135227501Y-61488000D01*
X135227501Y-69322000D02*
X135227501Y-84868000D01*
X134986201Y-20132000D02*
X134986201Y-61488000D01*
X134986201Y-69322000D02*
X134986201Y-84868000D01*
X134744901Y-20132000D02*
X134744901Y-61488000D01*
X134744901Y-69322000D02*
X134744901Y-84868000D01*
X134503601Y-20132000D02*
X134503601Y-61488000D01*
X134503601Y-69322000D02*
X134503601Y-84868000D01*
X134262301Y-20132000D02*
X134262301Y-61488000D01*
X134262301Y-69322000D02*
X134262301Y-84868000D01*
X134021001Y-20132000D02*
X134021001Y-61488000D01*
X134021001Y-69322000D02*
X134021001Y-84868000D01*
X133779701Y-20132000D02*
X133779701Y-61488000D01*
X133779701Y-69322000D02*
X133779701Y-84868000D01*
X133538401Y-20132000D02*
X133538401Y-61488000D01*
X133538401Y-69322000D02*
X133538401Y-84868000D01*
X133297101Y-20132000D02*
X133297101Y-61488000D01*
X133297101Y-69322000D02*
X133297101Y-84868000D01*
X133055801Y-20132000D02*
X133055801Y-61488000D01*
X133055801Y-69322000D02*
X133055801Y-84868000D01*
X132814501Y-20132000D02*
X132814501Y-61488000D01*
X132814501Y-69322000D02*
X132814501Y-84868000D01*
X132573201Y-20132000D02*
X132573201Y-61488000D01*
X132573201Y-69322000D02*
X132573201Y-84868000D01*
X132331901Y-20132000D02*
X132331901Y-61488000D01*
X132331901Y-69322000D02*
X132331901Y-84868000D01*
X132090601Y-20132000D02*
X132090601Y-61488000D01*
X132090601Y-69322000D02*
X132090601Y-84868000D01*
X131849301Y-20132000D02*
X131849301Y-61488000D01*
X131849301Y-69322000D02*
X131849301Y-84868000D01*
X131608001Y-20132000D02*
X131608001Y-61488000D01*
X131608001Y-69322000D02*
X131608001Y-84868000D01*
X131366701Y-20132000D02*
X131366701Y-61474330D01*
X131366701Y-69322000D02*
X131366701Y-84868000D01*
X131125401Y-20132000D02*
X131125401Y-61233030D01*
X131125401Y-69322000D02*
X131125401Y-84868000D01*
X130884101Y-20132000D02*
X130884101Y-60991730D01*
X130884101Y-69334238D02*
X130884101Y-84868000D01*
X130642801Y-20132000D02*
X130642801Y-60750430D01*
X130642801Y-69315719D02*
X130642801Y-84868000D01*
X130401501Y-20132000D02*
X130401501Y-60509130D01*
X130401501Y-69267721D02*
X130401501Y-84868000D01*
X130160201Y-20132000D02*
X130160201Y-60267830D01*
X130160201Y-69166922D02*
X130160201Y-84868000D01*
X129918901Y-20132000D02*
X129918901Y-60026530D01*
X129918901Y-69005691D02*
X129918901Y-84868000D01*
X129677601Y-20132000D02*
X129677601Y-59785230D01*
X129677601Y-68759972D02*
X129677601Y-84868000D01*
X129436301Y-20132000D02*
X129436301Y-24078232D01*
X129436301Y-25451769D02*
X129436301Y-31063232D01*
X129436301Y-32436769D02*
X129436301Y-37987876D01*
X129436301Y-39482125D02*
X129436301Y-45002876D01*
X129436301Y-46497125D02*
X129436301Y-52018232D01*
X129436301Y-53391769D02*
X129436301Y-59543930D01*
X129436301Y-68518672D02*
X129436301Y-84868000D01*
X129195001Y-20132000D02*
X129195001Y-23599811D01*
X129195001Y-25930189D02*
X129195001Y-30584811D01*
X129195001Y-32915189D02*
X129195001Y-37544811D01*
X129195001Y-39925189D02*
X129195001Y-44559811D01*
X129195001Y-46940189D02*
X129195001Y-51539811D01*
X129195001Y-53870189D02*
X129195001Y-59302630D01*
X129195001Y-68277372D02*
X129195001Y-84868000D01*
X128953701Y-20132000D02*
X128953701Y-23358511D01*
X128953701Y-26171489D02*
X128953701Y-30343511D01*
X128953701Y-33156489D02*
X128953701Y-37303511D01*
X128953701Y-40166489D02*
X128953701Y-44318511D01*
X128953701Y-47181489D02*
X128953701Y-51298511D01*
X128953701Y-54111489D02*
X128953701Y-59061330D01*
X128953701Y-68036072D02*
X128953701Y-84868000D01*
X128712401Y-20132000D02*
X128712401Y-23125504D01*
X128712401Y-26404497D02*
X128712401Y-30110504D01*
X128712401Y-33389497D02*
X128712401Y-37085149D01*
X128712401Y-40384852D02*
X128712401Y-44100149D01*
X128712401Y-47399852D02*
X128712401Y-51065504D01*
X128712401Y-54344497D02*
X128712401Y-58820030D01*
X128712401Y-67794772D02*
X128712401Y-84868000D01*
X128471101Y-20132000D02*
X128471101Y-23025555D01*
X128471101Y-26504446D02*
X128471101Y-30010555D01*
X128471101Y-33489446D02*
X128471101Y-36985200D01*
X128471101Y-40484801D02*
X128471101Y-44000200D01*
X128471101Y-47499801D02*
X128471101Y-50965555D01*
X128471101Y-54444446D02*
X128471101Y-58578730D01*
X128471101Y-67553472D02*
X128471101Y-84868000D01*
X128229801Y-20132000D02*
X128229801Y-22925605D01*
X128229801Y-26604396D02*
X128229801Y-29910605D01*
X128229801Y-33589396D02*
X128229801Y-36885250D01*
X128229801Y-40584751D02*
X128229801Y-43900250D01*
X128229801Y-47599751D02*
X128229801Y-50865605D01*
X128229801Y-54544396D02*
X128229801Y-58337430D01*
X128229801Y-67312172D02*
X128229801Y-84868000D01*
X127988501Y-20132000D02*
X127988501Y-22838000D01*
X127988501Y-26692000D02*
X127988501Y-29823000D01*
X127988501Y-33677000D02*
X127988501Y-36808000D01*
X127988501Y-40662000D02*
X127988501Y-43823000D01*
X127988501Y-47677000D02*
X127988501Y-50778000D01*
X127988501Y-54632000D02*
X127988501Y-58096130D01*
X127988501Y-67070872D02*
X127988501Y-84868000D01*
X127747201Y-20132000D02*
X127747201Y-22838000D01*
X127747201Y-26692000D02*
X127747201Y-29823000D01*
X127747201Y-33677000D02*
X127747201Y-36808000D01*
X127747201Y-40662000D02*
X127747201Y-43823000D01*
X127747201Y-47677000D02*
X127747201Y-50778000D01*
X127747201Y-54632000D02*
X127747201Y-57854830D01*
X127747201Y-66829572D02*
X127747201Y-84868000D01*
X127505901Y-20132000D02*
X127505901Y-22838000D01*
X127505901Y-26692000D02*
X127505901Y-29823000D01*
X127505901Y-33677000D02*
X127505901Y-36808000D01*
X127505901Y-40662000D02*
X127505901Y-43823000D01*
X127505901Y-47677000D02*
X127505901Y-50778000D01*
X127505901Y-54632000D02*
X127505901Y-57613530D01*
X127505901Y-66588272D02*
X127505901Y-84868000D01*
X127264601Y-20132000D02*
X127264601Y-22838000D01*
X127264601Y-26692000D02*
X127264601Y-29823000D01*
X127264601Y-33677000D02*
X127264601Y-36813009D01*
X127264601Y-40656990D02*
X127264601Y-43828009D01*
X127264601Y-47671990D02*
X127264601Y-50778000D01*
X127264601Y-54632000D02*
X127264601Y-57372230D01*
X127264601Y-66346972D02*
X127264601Y-84868000D01*
X127023301Y-20132000D02*
X127023301Y-22932604D01*
X127023301Y-26597395D02*
X127023301Y-29917604D01*
X127023301Y-33582395D02*
X127023301Y-36912959D01*
X127023301Y-40557040D02*
X127023301Y-43927959D01*
X127023301Y-47572040D02*
X127023301Y-50872604D01*
X127023301Y-54537395D02*
X127023301Y-57130930D01*
X127023301Y-66105672D02*
X127023301Y-84868000D01*
X126782001Y-20132000D02*
X126782001Y-23032553D01*
X126782001Y-26497446D02*
X126782001Y-30017553D01*
X126782001Y-33482446D02*
X126782001Y-37012909D01*
X126782001Y-40457090D02*
X126782001Y-44027909D01*
X126782001Y-47472090D02*
X126782001Y-50972553D01*
X126782001Y-54437446D02*
X126782001Y-56889630D01*
X126782001Y-65864372D02*
X126782001Y-84868000D01*
X126540701Y-20132000D02*
X126540701Y-23134109D01*
X126540701Y-26395891D02*
X126540701Y-30119109D01*
X126540701Y-33380891D02*
X126540701Y-37129109D01*
X126540701Y-40340891D02*
X126540701Y-44144109D01*
X126540701Y-47355891D02*
X126540701Y-51074109D01*
X126540701Y-54335891D02*
X126540701Y-56648330D01*
X126540701Y-65623072D02*
X126540701Y-84868000D01*
X126299401Y-20132000D02*
X126299401Y-23375409D01*
X126299401Y-26154591D02*
X126299401Y-30360409D01*
X126299401Y-33139591D02*
X126299401Y-37370409D01*
X126299401Y-40099591D02*
X126299401Y-44385409D01*
X126299401Y-47114591D02*
X126299401Y-51315409D01*
X126299401Y-54094591D02*
X126299401Y-56407030D01*
X126299401Y-65381772D02*
X126299401Y-84868000D01*
X126058101Y-20132000D02*
X126058101Y-23616709D01*
X126058101Y-25913291D02*
X126058101Y-30601709D01*
X126058101Y-32898291D02*
X126058101Y-37611709D01*
X126058101Y-39858291D02*
X126058101Y-44626709D01*
X126058101Y-46873291D02*
X126058101Y-51556709D01*
X126058101Y-53853291D02*
X126058101Y-56165730D01*
X126058101Y-65140472D02*
X126058101Y-84868000D01*
X125816801Y-20132000D02*
X125816801Y-24119026D01*
X125816801Y-25410973D02*
X125816801Y-31104026D01*
X125816801Y-32395973D02*
X125816801Y-38149382D01*
X125816801Y-39320617D02*
X125816801Y-45164382D01*
X125816801Y-46335617D02*
X125816801Y-52059026D01*
X125816801Y-53350973D02*
X125816801Y-55924430D01*
X125816801Y-64899172D02*
X125816801Y-84868000D01*
X125575501Y-20132000D02*
X125575501Y-24381696D01*
X125575501Y-24381696D02*
X125575501Y-31366696D01*
X125575501Y-31366696D02*
X125575501Y-38351696D01*
X125575501Y-38351696D02*
X125575501Y-45366696D01*
X125575501Y-45366696D02*
X125575501Y-52321696D01*
X125575501Y-52321696D02*
X125575501Y-55683130D01*
X125575501Y-64657872D02*
X125575501Y-84868000D01*
X125334201Y-20132000D02*
X125334201Y-24381696D01*
X125334201Y-24381696D02*
X125334201Y-31366696D01*
X125334201Y-31366696D02*
X125334201Y-38351696D01*
X125334201Y-38351696D02*
X125334201Y-45366696D01*
X125334201Y-45366696D02*
X125334201Y-52321696D01*
X125334201Y-52321696D02*
X125334201Y-55441830D01*
X125334201Y-64416572D02*
X125334201Y-84868000D01*
X125092901Y-20132000D02*
X125092901Y-24381696D01*
X125092901Y-24381696D02*
X125092901Y-31366696D01*
X125092901Y-31366696D02*
X125092901Y-38351696D01*
X125092901Y-38351696D02*
X125092901Y-45366696D01*
X125092901Y-45366696D02*
X125092901Y-52321696D01*
X125092901Y-52321696D02*
X125092901Y-55200530D01*
X125092901Y-64175272D02*
X125092901Y-84868000D01*
X124851601Y-20132000D02*
X124851601Y-24381696D01*
X124851601Y-24381696D02*
X124851601Y-31366696D01*
X124851601Y-31366696D02*
X124851601Y-38351696D01*
X124851601Y-38351696D02*
X124851601Y-45366696D01*
X124851601Y-45366696D02*
X124851601Y-52321696D01*
X124851601Y-52321696D02*
X124851601Y-54959230D01*
X124851601Y-63933972D02*
X124851601Y-84868000D01*
X124610301Y-20132000D02*
X124610301Y-24381696D01*
X124610301Y-24381696D02*
X124610301Y-31366696D01*
X124610301Y-31366696D02*
X124610301Y-38351696D01*
X124610301Y-38351696D02*
X124610301Y-45366696D01*
X124610301Y-45366696D02*
X124610301Y-52321696D01*
X124610301Y-52321696D02*
X124610301Y-54717930D01*
X124610301Y-63692672D02*
X124610301Y-84868000D01*
X124369001Y-20132000D02*
X124369001Y-24381696D01*
X124369001Y-24381696D02*
X124369001Y-29765965D01*
X124369001Y-63451372D02*
X124369001Y-84868000D01*
X124127701Y-20132000D02*
X124127701Y-24381696D01*
X124127701Y-24381696D02*
X124127701Y-29450449D01*
X124127701Y-63210072D02*
X124127701Y-84868000D01*
X123886401Y-20132000D02*
X123886401Y-24381696D01*
X123886401Y-24381696D02*
X123886401Y-29229030D01*
X123886401Y-62968772D02*
X123886401Y-84868000D01*
X123645101Y-20132000D02*
X123645101Y-24381696D01*
X123645101Y-24381696D02*
X123645101Y-28987730D01*
X123645101Y-62727472D02*
X123645101Y-84868000D01*
X123403801Y-20132000D02*
X123403801Y-24381696D01*
X123403801Y-24381696D02*
X123403801Y-28746430D01*
X123403801Y-62486172D02*
X123403801Y-84868000D01*
X123162501Y-20132000D02*
X123162501Y-24381696D01*
X123162501Y-24381696D02*
X123162501Y-28505130D01*
X123162501Y-62244872D02*
X123162501Y-84868000D01*
X122921201Y-20132000D02*
X122921201Y-24381696D01*
X122921201Y-24381696D02*
X122921201Y-28263830D01*
X122921201Y-62003572D02*
X122921201Y-84868000D01*
X122679901Y-20132000D02*
X122679901Y-24381696D01*
X122679901Y-24381696D02*
X122679901Y-28022530D01*
X122679901Y-61762272D02*
X122679901Y-84868000D01*
X122438601Y-20132000D02*
X122438601Y-24381696D01*
X122438601Y-24381696D02*
X122438601Y-27781230D01*
X122438601Y-61520972D02*
X122438601Y-84868000D01*
X122197301Y-20132000D02*
X122197301Y-24381696D01*
X122197301Y-24381696D02*
X122197301Y-27539930D01*
X122197301Y-61279672D02*
X122197301Y-84868000D01*
X121956001Y-20132000D02*
X121956001Y-24381696D01*
X121956001Y-24381696D02*
X121956001Y-27298630D01*
X121956001Y-61038372D02*
X121956001Y-84868000D01*
X121714701Y-20132000D02*
X121714701Y-24381696D01*
X121714701Y-24381696D02*
X121714701Y-27057330D01*
X121714701Y-30952072D02*
X121714701Y-34042330D01*
X121714701Y-60797072D02*
X121714701Y-84868000D01*
X121473401Y-20132000D02*
X121473401Y-24381696D01*
X121473401Y-24381696D02*
X121473401Y-26816030D01*
X121473401Y-30710772D02*
X121473401Y-33801030D01*
X121473401Y-60555772D02*
X121473401Y-84868000D01*
X121232101Y-20132000D02*
X121232101Y-24381696D01*
X121232101Y-24381696D02*
X121232101Y-26574730D01*
X121232101Y-30469472D02*
X121232101Y-33559730D01*
X121232101Y-60314472D02*
X121232101Y-84868000D01*
X120990801Y-20132000D02*
X120990801Y-24381696D01*
X120990801Y-24381696D02*
X120990801Y-26333430D01*
X120990801Y-30228172D02*
X120990801Y-33318430D01*
X120990801Y-60073172D02*
X120990801Y-84868000D01*
X120749501Y-20132000D02*
X120749501Y-24381696D01*
X120749501Y-24381696D02*
X120749501Y-26092130D01*
X120749501Y-29986872D02*
X120749501Y-33077130D01*
X120749501Y-59831872D02*
X120749501Y-84868000D01*
X120508201Y-20132000D02*
X120508201Y-24381696D01*
X120508201Y-24381696D02*
X120508201Y-25850830D01*
X120508201Y-29745572D02*
X120508201Y-32835830D01*
X120508201Y-36730572D02*
X120508201Y-39784120D01*
X120508201Y-59590572D02*
X120508201Y-84868000D01*
X120266901Y-20132000D02*
X120266901Y-24381696D01*
X120266901Y-24381696D02*
X120266901Y-25609530D01*
X120266901Y-29504272D02*
X120266901Y-32594530D01*
X120266901Y-36489272D02*
X120266901Y-39534935D01*
X120266901Y-59349272D02*
X120266901Y-84868000D01*
X120025601Y-20132000D02*
X120025601Y-24381696D01*
X120025601Y-24381696D02*
X120025601Y-25368230D01*
X120025601Y-29262972D02*
X120025601Y-32353230D01*
X120025601Y-36247972D02*
X120025601Y-39285749D01*
X120025601Y-59107972D02*
X120025601Y-84868000D01*
X119784301Y-20132000D02*
X119784301Y-24381696D01*
X119784301Y-24381696D02*
X119784301Y-25126930D01*
X119784301Y-29021672D02*
X119784301Y-32111930D01*
X119784301Y-36006672D02*
X119784301Y-39036564D01*
X119784301Y-58866672D02*
X119784301Y-84868000D01*
X119543001Y-20132000D02*
X119543001Y-24381696D01*
X119543001Y-24381696D02*
X119543001Y-24885630D01*
X119543001Y-28780372D02*
X119543001Y-31870630D01*
X119543001Y-35765372D02*
X119543001Y-38787378D01*
X119543001Y-58625372D02*
X119543001Y-84868000D01*
X119301701Y-20132000D02*
X119301701Y-24070971D01*
X119301701Y-28539072D02*
X119301701Y-31055972D01*
X119301701Y-35524072D02*
X119301701Y-37962929D01*
X119301701Y-58384072D02*
X119301701Y-84868000D01*
X119060401Y-20132000D02*
X119060401Y-23669213D01*
X119060401Y-28297772D02*
X119060401Y-30654213D01*
X119060401Y-35282772D02*
X119060401Y-37601798D01*
X119060401Y-42247901D02*
X119060401Y-44616799D01*
X119060401Y-58142772D02*
X119060401Y-84868000D01*
X118819101Y-20132000D02*
X118819101Y-23345518D01*
X118819101Y-28056472D02*
X118819101Y-30330518D01*
X118819101Y-35041472D02*
X118819101Y-37298813D01*
X118819101Y-41998715D02*
X118819101Y-44313813D01*
X118819101Y-57901472D02*
X118819101Y-84868000D01*
X118577801Y-20132000D02*
X118577801Y-23184286D01*
X118577801Y-27815172D02*
X118577801Y-30169286D01*
X118577801Y-34800172D02*
X118577801Y-37137582D01*
X118577801Y-41749529D02*
X118577801Y-44152582D01*
X118577801Y-57660172D02*
X118577801Y-84868000D01*
X118336501Y-20132000D02*
X118336501Y-23023054D01*
X118336501Y-27573872D02*
X118336501Y-30008054D01*
X118336501Y-34558872D02*
X118336501Y-36976350D01*
X118336501Y-41500344D02*
X118336501Y-43991350D01*
X118336501Y-57418872D02*
X118336501Y-84868000D01*
X118095201Y-20132000D02*
X118095201Y-22923614D01*
X118095201Y-27332572D02*
X118095201Y-29908614D01*
X118095201Y-34317572D02*
X118095201Y-36888641D01*
X118095201Y-41251158D02*
X118095201Y-43903641D01*
X118095201Y-57177572D02*
X118095201Y-84868000D01*
X117853901Y-20132000D02*
X117853901Y-22875617D01*
X117853901Y-27091272D02*
X117853901Y-29860617D01*
X117853901Y-34076272D02*
X117853901Y-36840644D01*
X117853901Y-41001972D02*
X117853901Y-43855644D01*
X117853901Y-48046273D02*
X117853901Y-50815617D01*
X117853901Y-56936272D02*
X117853901Y-84868000D01*
X117612601Y-20132000D02*
X117612601Y-22838000D01*
X117612601Y-26849972D02*
X117612601Y-29823000D01*
X117612601Y-33834972D02*
X117612601Y-36808000D01*
X117612601Y-40752787D02*
X117612601Y-43823000D01*
X117612601Y-47804973D02*
X117612601Y-50778000D01*
X117612601Y-56694972D02*
X117612601Y-84868000D01*
X117371301Y-20132000D02*
X117371301Y-22838000D01*
X117371301Y-26692000D02*
X117371301Y-29823000D01*
X117371301Y-33677000D02*
X117371301Y-36808000D01*
X117371301Y-40662000D02*
X117371301Y-43823000D01*
X117371301Y-47677000D02*
X117371301Y-50778000D01*
X117371301Y-56453672D02*
X117371301Y-84868000D01*
X117130001Y-20132000D02*
X117130001Y-22868872D01*
X117130001Y-26661127D02*
X117130001Y-29853872D01*
X117130001Y-33646127D02*
X117130001Y-36843845D01*
X117130001Y-40626154D02*
X117130001Y-43858845D01*
X117130001Y-47641154D02*
X117130001Y-50808872D01*
X117130001Y-56212372D02*
X117130001Y-84868000D01*
X116888701Y-20132000D02*
X116888701Y-22916870D01*
X116888701Y-26613129D02*
X116888701Y-29901870D01*
X116888701Y-33598129D02*
X116888701Y-36891843D01*
X116888701Y-40578156D02*
X116888701Y-43906843D01*
X116888701Y-47593156D02*
X116888701Y-50856870D01*
X116888701Y-55971072D02*
X116888701Y-84868000D01*
X116647401Y-20132000D02*
X116647401Y-23000401D01*
X116647401Y-26529598D02*
X116647401Y-29985401D01*
X116647401Y-33514598D02*
X116647401Y-36987105D01*
X116647401Y-40482894D02*
X116647401Y-44002105D01*
X116647401Y-47497894D02*
X116647401Y-50940401D01*
X116647401Y-55729772D02*
X116647401Y-84868000D01*
X116406101Y-20132000D02*
X116406101Y-23161632D01*
X116406101Y-26368367D02*
X116406101Y-30146632D01*
X116406101Y-33353367D02*
X116406101Y-37148337D01*
X116406101Y-40321662D02*
X116406101Y-44163337D01*
X116406101Y-47336662D02*
X116406101Y-51101632D01*
X116406101Y-55488813D02*
X116406101Y-60071000D01*
X116406101Y-63246000D02*
X116406101Y-84868000D01*
X116164801Y-20132000D02*
X116164801Y-23322864D01*
X116164801Y-26207135D02*
X116164801Y-30307864D01*
X116164801Y-33192135D02*
X116164801Y-37309569D01*
X116164801Y-40160430D02*
X116164801Y-44324569D01*
X116164801Y-47175430D02*
X116164801Y-51262864D01*
X116164801Y-55081454D02*
X116164801Y-60071000D01*
X116164801Y-63246000D02*
X116164801Y-84868000D01*
X115923501Y-20132000D02*
X115923501Y-23618475D01*
X115923501Y-25911524D02*
X115923501Y-30603475D01*
X115923501Y-32896524D02*
X115923501Y-37625890D01*
X115923501Y-39844109D02*
X115923501Y-44640890D01*
X115923501Y-46859109D02*
X115923501Y-51558475D01*
X115923501Y-53851524D02*
X115923501Y-60071000D01*
X115923501Y-63246000D02*
X115923501Y-84868000D01*
X115682201Y-20132000D02*
X115682201Y-23979605D01*
X115682201Y-25550394D02*
X115682201Y-30964605D01*
X115682201Y-32535394D02*
X115682201Y-37996218D01*
X115682201Y-39473781D02*
X115682201Y-45011218D01*
X115682201Y-46488781D02*
X115682201Y-51919605D01*
X115682201Y-53490394D02*
X115682201Y-60071000D01*
X115682201Y-63246000D02*
X115682201Y-84868000D01*
X115440901Y-20132000D02*
X115440901Y-24765000D01*
X115440901Y-24765000D02*
X115440901Y-60071000D01*
X115440901Y-63246000D02*
X115440901Y-84868000D01*
X115199601Y-20132000D02*
X115199601Y-24765000D01*
X115199601Y-24765000D02*
X115199601Y-60071000D01*
X115199601Y-63246000D02*
X115199601Y-84868000D01*
X114958301Y-20132000D02*
X114958301Y-24765000D01*
X114958301Y-24765000D02*
X114958301Y-60071000D01*
X114958301Y-63246000D02*
X114958301Y-84868000D01*
X114717001Y-20132000D02*
X114717001Y-24765000D01*
X114717001Y-24765000D02*
X114717001Y-60071000D01*
X114717001Y-63246000D02*
X114717001Y-84868000D01*
X114475701Y-20132000D02*
X114475701Y-24765000D01*
X114475701Y-24765000D02*
X114475701Y-60071000D01*
X114475701Y-63246000D02*
X114475701Y-84868000D01*
X114234401Y-20132000D02*
X114234401Y-24765000D01*
X114234401Y-24765000D02*
X114234401Y-60071000D01*
X114234401Y-63246000D02*
X114234401Y-84868000D01*
X113993101Y-20132000D02*
X113993101Y-24765000D01*
X113993101Y-24765000D02*
X113993101Y-60071000D01*
X113993101Y-63246000D02*
X113993101Y-84868000D01*
X113751801Y-20132000D02*
X113751801Y-24765000D01*
X113751801Y-24765000D02*
X113751801Y-60071000D01*
X113751801Y-63246000D02*
X113751801Y-84868000D01*
X113510501Y-20132000D02*
X113510501Y-24765000D01*
X113510501Y-24765000D02*
X113510501Y-60071000D01*
X113510501Y-63246000D02*
X113510501Y-84868000D01*
X113269201Y-20132000D02*
X113269201Y-24765000D01*
X113269201Y-24765000D02*
X113269201Y-60071000D01*
X113269201Y-63246000D02*
X113269201Y-84868000D01*
X113027901Y-20132000D02*
X113027901Y-24765000D01*
X113027901Y-24765000D02*
X113027901Y-60071000D01*
X113027901Y-63246000D02*
X113027901Y-84868000D01*
X112786601Y-20132000D02*
X112786601Y-24765000D01*
X112786601Y-24765000D02*
X112786601Y-60071000D01*
X112786601Y-63246000D02*
X112786601Y-84868000D01*
X112545301Y-20132000D02*
X112545301Y-24765000D01*
X112545301Y-24765000D02*
X112545301Y-60071000D01*
X112545301Y-63246000D02*
X112545301Y-84868000D01*
X112304001Y-20132000D02*
X112304001Y-24765000D01*
X112304001Y-24765000D02*
X112304001Y-60071000D01*
X112304001Y-63246000D02*
X112304001Y-84868000D01*
X112062701Y-20132000D02*
X112062701Y-24765000D01*
X112062701Y-24765000D02*
X112062701Y-60071000D01*
X112062701Y-63246000D02*
X112062701Y-84868000D01*
X111821401Y-20132000D02*
X111821401Y-24765000D01*
X111821401Y-24765000D02*
X111821401Y-60071000D01*
X111821401Y-63246000D02*
X111821401Y-84868000D01*
X111580101Y-20132000D02*
X111580101Y-24765000D01*
X111580101Y-24765000D02*
X111580101Y-60071000D01*
X111580101Y-63246000D02*
X111580101Y-84868000D01*
X111338801Y-20132000D02*
X111338801Y-24765000D01*
X111338801Y-24765000D02*
X111338801Y-60071000D01*
X111338801Y-63246000D02*
X111338801Y-84868000D01*
X111097501Y-20132000D02*
X111097501Y-24765000D01*
X111097501Y-24765000D02*
X111097501Y-60071000D01*
X111097501Y-63246000D02*
X111097501Y-84868000D01*
X110856201Y-20132000D02*
X110856201Y-24765000D01*
X110856201Y-24765000D02*
X110856201Y-60071000D01*
X110856201Y-63246000D02*
X110856201Y-84868000D01*
X110614901Y-20132000D02*
X110614901Y-24765000D01*
X110614901Y-24765000D02*
X110614901Y-60071000D01*
X110614901Y-63246000D02*
X110614901Y-84868000D01*
X110373601Y-20132000D02*
X110373601Y-24765000D01*
X110373601Y-24765000D02*
X110373601Y-60071000D01*
X110373601Y-63246000D02*
X110373601Y-84868000D01*
X110132301Y-20132000D02*
X110132301Y-24765000D01*
X110132301Y-24765000D02*
X110132301Y-60071000D01*
X110132301Y-63246000D02*
X110132301Y-84868000D01*
X109891001Y-20132000D02*
X109891001Y-24765000D01*
X109891001Y-24765000D02*
X109891001Y-60071000D01*
X109891001Y-63246000D02*
X109891001Y-84868000D01*
X109649701Y-20132000D02*
X109649701Y-24765000D01*
X109649701Y-24765000D02*
X109649701Y-60071000D01*
X109649701Y-63246000D02*
X109649701Y-84868000D01*
X109408401Y-20132000D02*
X109408401Y-24765000D01*
X109408401Y-24765000D02*
X109408401Y-60071000D01*
X109408401Y-63246000D02*
X109408401Y-84868000D01*
D22*
X179868001Y-84868000D02*
X149565543Y-84868000D01*
X149844000Y-84195746D01*
X149844000Y-83444254D01*
X149556417Y-82749967D01*
X149025033Y-82218583D01*
X148330746Y-81931000D01*
X147579254Y-81931000D01*
X146884967Y-82218583D01*
X146353583Y-82749967D01*
X146066000Y-83444254D01*
X146066000Y-84195746D01*
X146344457Y-84868000D01*
X109347000Y-84868000D01*
X109347000Y-63246000D01*
X116459000Y-63246000D01*
X116507601Y-63236333D01*
X116548803Y-63208803D01*
X116576333Y-63167601D01*
X116586000Y-63119000D01*
X116586000Y-60198000D01*
X116576333Y-60149399D01*
X116548803Y-60108197D01*
X116507601Y-60080667D01*
X116459000Y-60071000D01*
X109347000Y-60071000D01*
X109347000Y-24765000D01*
X115510248Y-24765000D01*
X115659806Y-25516878D01*
X116085711Y-26154289D01*
X116723122Y-26580194D01*
X117285208Y-26692000D01*
X117454629Y-26692000D01*
X121813000Y-31050372D01*
X121813000Y-34140628D01*
X119436868Y-31764497D01*
X119439752Y-31750000D01*
X119290194Y-30998122D01*
X118864289Y-30360711D01*
X118226878Y-29934806D01*
X117664792Y-29823000D01*
X117285208Y-29823000D01*
X116723122Y-29934806D01*
X116085711Y-30360711D01*
X115659806Y-30998122D01*
X115510248Y-31750000D01*
X115659806Y-32501878D01*
X116085711Y-33139289D01*
X116723122Y-33565194D01*
X117285208Y-33677000D01*
X117454629Y-33677000D01*
X120543000Y-36765372D01*
X120543000Y-39820056D01*
X119457635Y-38699222D01*
X119315194Y-37983122D01*
X118889289Y-37345711D01*
X118251878Y-36919806D01*
X117689792Y-36808000D01*
X117310208Y-36808000D01*
X116748122Y-36919806D01*
X116110711Y-37345711D01*
X115684806Y-37983122D01*
X115535248Y-38735000D01*
X115684806Y-39486878D01*
X116110711Y-40124289D01*
X116748122Y-40550194D01*
X117310208Y-40662000D01*
X117524687Y-40662000D01*
X119273000Y-42467448D01*
X119273000Y-44934975D01*
X118889289Y-44360711D01*
X118251878Y-43934806D01*
X117689792Y-43823000D01*
X117310208Y-43823000D01*
X116748122Y-43934806D01*
X116110711Y-44360711D01*
X115684806Y-44998122D01*
X115535248Y-45750000D01*
X115684806Y-46501878D01*
X116110711Y-47139289D01*
X116748122Y-47565194D01*
X117310208Y-47677000D01*
X117484628Y-47677000D01*
X118003000Y-48195372D01*
X118003000Y-50845274D01*
X117664792Y-50778000D01*
X117285208Y-50778000D01*
X116723122Y-50889806D01*
X116085711Y-51315711D01*
X115659806Y-51953122D01*
X115510248Y-52705000D01*
X115659806Y-53456878D01*
X116085711Y-54094289D01*
X116098001Y-54102501D01*
X116098001Y-54474373D01*
X116071023Y-54610000D01*
X116177894Y-55147278D01*
X116177895Y-55147279D01*
X116482239Y-55602762D01*
X116597216Y-55679587D01*
X129740412Y-68822784D01*
X129817238Y-68937762D01*
X130219249Y-69206377D01*
X130272721Y-69242106D01*
X130810000Y-69348977D01*
X130945623Y-69322000D01*
X149924629Y-69322000D01*
X150828179Y-70225550D01*
X150144112Y-69942200D01*
X149321888Y-69942200D01*
X148562252Y-70256852D01*
X147980852Y-70838252D01*
X147666200Y-71597888D01*
X147666200Y-72420112D01*
X147897937Y-72979574D01*
X147419252Y-73177852D01*
X147320000Y-73277104D01*
X147220748Y-73177852D01*
X146461112Y-72863200D01*
X145638888Y-72863200D01*
X144879252Y-73177852D01*
X144780000Y-73277104D01*
X144680748Y-73177852D01*
X143921112Y-72863200D01*
X143098888Y-72863200D01*
X142339252Y-73177852D01*
X141757852Y-73759252D01*
X141443200Y-74518888D01*
X141443200Y-75341112D01*
X141757852Y-76100748D01*
X142339252Y-76682148D01*
X143098888Y-76996800D01*
X143921112Y-76996800D01*
X144680748Y-76682148D01*
X144780000Y-76582896D01*
X144879252Y-76682148D01*
X145638888Y-76996800D01*
X146461112Y-76996800D01*
X147220748Y-76682148D01*
X147320000Y-76582896D01*
X147419252Y-76682148D01*
X148178888Y-76996800D01*
X149001112Y-76996800D01*
X149760748Y-76682148D01*
X149860000Y-76582896D01*
X149959252Y-76682148D01*
X150718888Y-76996800D01*
X151541112Y-76996800D01*
X152300748Y-76682148D01*
X152400000Y-76582896D01*
X152499252Y-76682148D01*
X153258888Y-76996800D01*
X154081112Y-76996800D01*
X154840748Y-76682148D01*
X154940000Y-76582896D01*
X155039252Y-76682148D01*
X155798888Y-76996800D01*
X156621112Y-76996800D01*
X157380748Y-76682148D01*
X157480000Y-76582896D01*
X157579252Y-76682148D01*
X158338888Y-76996800D01*
X159161112Y-76996800D01*
X159920748Y-76682148D01*
X160020000Y-76582896D01*
X160119252Y-76682148D01*
X160127192Y-76685437D01*
X159102216Y-77710413D01*
X158987238Y-77787239D01*
X158710236Y-78201802D01*
X158682894Y-78242722D01*
X158576023Y-78780000D01*
X158603000Y-78915623D01*
X158603000Y-79731550D01*
X158550033Y-79678583D01*
X157855746Y-79391000D01*
X157104254Y-79391000D01*
X156409967Y-79678583D01*
X155878583Y-80209967D01*
X155591000Y-80904254D01*
X155591000Y-81655746D01*
X155878583Y-82350033D01*
X156409967Y-82881417D01*
X157104254Y-83169000D01*
X157855746Y-83169000D01*
X158550033Y-82881417D01*
X158730000Y-82701450D01*
X158909967Y-82881417D01*
X159604254Y-83169000D01*
X160355746Y-83169000D01*
X161050033Y-82881417D01*
X161581417Y-82350033D01*
X161869000Y-81655746D01*
X161869000Y-80904254D01*
X169561000Y-80904254D01*
X169561000Y-81655746D01*
X169848583Y-82350033D01*
X170379967Y-82881417D01*
X171074254Y-83169000D01*
X171825746Y-83169000D01*
X172520033Y-82881417D01*
X172700000Y-82701450D01*
X172879967Y-82881417D01*
X173574254Y-83169000D01*
X174325746Y-83169000D01*
X175020033Y-82881417D01*
X175220000Y-82681450D01*
X175419967Y-82881417D01*
X176114254Y-83169000D01*
X176865746Y-83169000D01*
X177560033Y-82881417D01*
X178091417Y-82350033D01*
X178379000Y-81655746D01*
X178379000Y-80904254D01*
X178091417Y-80209967D01*
X177560033Y-79678583D01*
X176865746Y-79391000D01*
X176114254Y-79391000D01*
X175419967Y-79678583D01*
X175220000Y-79878550D01*
X175020033Y-79678583D01*
X174325746Y-79391000D01*
X173574254Y-79391000D01*
X172879967Y-79678583D01*
X172700000Y-79858550D01*
X172520033Y-79678583D01*
X171825746Y-79391000D01*
X171074254Y-79391000D01*
X170379967Y-79678583D01*
X169848583Y-80209967D01*
X169561000Y-80904254D01*
X161869000Y-80904254D01*
X161581417Y-80209967D01*
X161357000Y-79985550D01*
X161357000Y-79350371D01*
X163437784Y-77269588D01*
X163552762Y-77192762D01*
X163683700Y-76996800D01*
X164241112Y-76996800D01*
X165000748Y-76682148D01*
X165100000Y-76582896D01*
X165199252Y-76682148D01*
X165958888Y-76996800D01*
X166781112Y-76996800D01*
X167540748Y-76682148D01*
X168122148Y-76100748D01*
X168436800Y-75341112D01*
X168436800Y-74518888D01*
X169383200Y-74518888D01*
X169383200Y-75341112D01*
X169697852Y-76100748D01*
X170279252Y-76682148D01*
X171038888Y-76996800D01*
X171861112Y-76996800D01*
X172620748Y-76682148D01*
X173202148Y-76100748D01*
X173389531Y-75648366D01*
X173578888Y-75726800D01*
X174401112Y-75726800D01*
X175160748Y-75412148D01*
X175742148Y-74830748D01*
X176056800Y-74071112D01*
X176056800Y-73248888D01*
X175742148Y-72489252D01*
X175642896Y-72390000D01*
X175742148Y-72290748D01*
X176056800Y-71531112D01*
X176056800Y-70708888D01*
X175742148Y-69949252D01*
X175642896Y-69850000D01*
X175742148Y-69750748D01*
X176056800Y-68991112D01*
X176056800Y-68168888D01*
X175742148Y-67409252D01*
X175642896Y-67310000D01*
X175742148Y-67210748D01*
X176056800Y-66451112D01*
X176056800Y-65628888D01*
X175742148Y-64869252D01*
X175160748Y-64287852D01*
X174401112Y-63973200D01*
X173578888Y-63973200D01*
X172819252Y-64287852D01*
X172237852Y-64869252D01*
X171923200Y-65628888D01*
X171923200Y-66451112D01*
X172237852Y-67210748D01*
X172337104Y-67310000D01*
X172237852Y-67409252D01*
X171923200Y-68168888D01*
X171923200Y-68991112D01*
X172237852Y-69750748D01*
X172337104Y-69850000D01*
X172237852Y-69949252D01*
X171923200Y-70708888D01*
X171923200Y-71531112D01*
X172237852Y-72290748D01*
X172337104Y-72390000D01*
X172237852Y-72489252D01*
X172050469Y-72941634D01*
X171861112Y-72863200D01*
X171038888Y-72863200D01*
X170279252Y-73177852D01*
X169697852Y-73759252D01*
X169383200Y-74518888D01*
X168436800Y-74518888D01*
X168122148Y-73759252D01*
X167540748Y-73177852D01*
X166781112Y-72863200D01*
X165958888Y-72863200D01*
X165199252Y-73177852D01*
X165100000Y-73277104D01*
X165000748Y-73177852D01*
X164522063Y-72979574D01*
X164753800Y-72420112D01*
X164753800Y-71597888D01*
X164439148Y-70838252D01*
X163857748Y-70256852D01*
X163098112Y-69942200D01*
X162275888Y-69942200D01*
X161524000Y-70253643D01*
X161524000Y-69477621D01*
X161550977Y-69341999D01*
X161493531Y-69053200D01*
X161444106Y-68804721D01*
X161139761Y-68349238D01*
X161024786Y-68272414D01*
X154739589Y-61987218D01*
X154662762Y-61872238D01*
X154333523Y-61652248D01*
X154840748Y-61442148D01*
X154940000Y-61342896D01*
X155039252Y-61442148D01*
X155798888Y-61756800D01*
X156621112Y-61756800D01*
X157380748Y-61442148D01*
X157480000Y-61342896D01*
X157579252Y-61442148D01*
X158338888Y-61756800D01*
X159161112Y-61756800D01*
X159920748Y-61442148D01*
X160020000Y-61342896D01*
X160119252Y-61442148D01*
X160878888Y-61756800D01*
X161701112Y-61756800D01*
X162460748Y-61442148D01*
X163042148Y-60860748D01*
X163356800Y-60101112D01*
X163356800Y-59278888D01*
X164303200Y-59278888D01*
X164303200Y-60101112D01*
X164617852Y-60860748D01*
X165199252Y-61442148D01*
X165958888Y-61756800D01*
X166781112Y-61756800D01*
X167540748Y-61442148D01*
X167640000Y-61342896D01*
X167739252Y-61442148D01*
X168498888Y-61756800D01*
X169321112Y-61756800D01*
X170080748Y-61442148D01*
X170180000Y-61342896D01*
X170279252Y-61442148D01*
X171038888Y-61756800D01*
X171861112Y-61756800D01*
X172620748Y-61442148D01*
X173202148Y-60860748D01*
X173516800Y-60101112D01*
X173516800Y-59278888D01*
X173202148Y-58519252D01*
X172620748Y-57937852D01*
X171861112Y-57623200D01*
X171038888Y-57623200D01*
X170279252Y-57937852D01*
X170180000Y-58037104D01*
X170080748Y-57937852D01*
X169321112Y-57623200D01*
X168498888Y-57623200D01*
X167739252Y-57937852D01*
X167640000Y-58037104D01*
X167540748Y-57937852D01*
X166781112Y-57623200D01*
X165958888Y-57623200D01*
X165199252Y-57937852D01*
X164617852Y-58519252D01*
X164303200Y-59278888D01*
X163356800Y-59278888D01*
X163042148Y-58519252D01*
X162460748Y-57937852D01*
X161804783Y-57666142D01*
X163597157Y-55873769D01*
X163733001Y-55783001D01*
X164092600Y-55244824D01*
X164187000Y-54770242D01*
X164187000Y-54770241D01*
X164190587Y-54752207D01*
X164200000Y-54754079D01*
X166000000Y-54754079D01*
X166439733Y-54666611D01*
X166812522Y-54417522D01*
X167061611Y-54044733D01*
X167149079Y-53605000D01*
X167149079Y-51805000D01*
X167061611Y-51365267D01*
X166898165Y-51120652D01*
X167127000Y-50568195D01*
X167127000Y-49761805D01*
X166818407Y-49016797D01*
X166248203Y-48446593D01*
X165503195Y-48138000D01*
X164696805Y-48138000D01*
X164187000Y-48349169D01*
X164187000Y-47766493D01*
X164200000Y-47769079D01*
X166000000Y-47769079D01*
X166439733Y-47681611D01*
X166812522Y-47432522D01*
X167061611Y-47059733D01*
X167149079Y-46620000D01*
X167149079Y-44820000D01*
X167061611Y-44380267D01*
X166898165Y-44135652D01*
X167127000Y-43583195D01*
X167127000Y-42776805D01*
X166818407Y-42031797D01*
X166248203Y-41461593D01*
X165503195Y-41153000D01*
X164696805Y-41153000D01*
X164187000Y-41364169D01*
X164187000Y-40781493D01*
X164200000Y-40784079D01*
X166000000Y-40784079D01*
X166439733Y-40696611D01*
X166812522Y-40447522D01*
X167061611Y-40074733D01*
X167149079Y-39635000D01*
X167149079Y-37835000D01*
X167061611Y-37395267D01*
X166898165Y-37150652D01*
X167127000Y-36598195D01*
X167127000Y-35791805D01*
X166818407Y-35046797D01*
X166248203Y-34476593D01*
X165503195Y-34168000D01*
X164696805Y-34168000D01*
X164187000Y-34379169D01*
X164187000Y-33796493D01*
X164200000Y-33799079D01*
X166000000Y-33799079D01*
X166439733Y-33711611D01*
X166812522Y-33462522D01*
X167061611Y-33089733D01*
X167149079Y-32650000D01*
X167149079Y-30850000D01*
X167061611Y-30410267D01*
X166898165Y-30165652D01*
X167127000Y-29613195D01*
X167127000Y-28806805D01*
X166818407Y-28061797D01*
X166248203Y-27491593D01*
X165503195Y-27183000D01*
X164696805Y-27183000D01*
X164187000Y-27394169D01*
X164187000Y-26811493D01*
X164200000Y-26814079D01*
X166000000Y-26814079D01*
X166439733Y-26726611D01*
X166812522Y-26477522D01*
X167061611Y-26104733D01*
X167149079Y-25665000D01*
X167149079Y-23865000D01*
X167061611Y-23425267D01*
X166898165Y-23180652D01*
X167127000Y-22628195D01*
X167127000Y-21821805D01*
X166818407Y-21076797D01*
X166248203Y-20506593D01*
X165503195Y-20198000D01*
X164696805Y-20198000D01*
X163951797Y-20506593D01*
X163860390Y-20598000D01*
X162720242Y-20598000D01*
X162560000Y-20566126D01*
X162399758Y-20598000D01*
X161925176Y-20692400D01*
X161386999Y-21051999D01*
X161027400Y-21590176D01*
X160901126Y-22225000D01*
X160933001Y-22385247D01*
X160933001Y-29049754D01*
X160901126Y-29210000D01*
X160933001Y-29370246D01*
X160933001Y-36034755D01*
X160901126Y-36195000D01*
X160933001Y-36355245D01*
X160933000Y-43019756D01*
X160901126Y-43180000D01*
X160933000Y-43340244D01*
X160933000Y-50004757D01*
X160901126Y-50165000D01*
X160933000Y-50325242D01*
X160933000Y-53936074D01*
X157837000Y-57032076D01*
X157837000Y-54754079D01*
X159015000Y-54754079D01*
X159454733Y-54666611D01*
X159827522Y-54417522D01*
X160076611Y-54044733D01*
X160164079Y-53605000D01*
X160164079Y-51805000D01*
X160076611Y-51365267D01*
X159913165Y-51120652D01*
X160142000Y-50568195D01*
X160142000Y-49761805D01*
X159833407Y-49016797D01*
X159263203Y-48446593D01*
X158518195Y-48138000D01*
X157837000Y-48138000D01*
X157837000Y-47769079D01*
X159015000Y-47769079D01*
X159454733Y-47681611D01*
X159827522Y-47432522D01*
X160076611Y-47059733D01*
X160164079Y-46620000D01*
X160164079Y-44820000D01*
X160076611Y-44380267D01*
X159913165Y-44135652D01*
X160142000Y-43583195D01*
X160142000Y-42776805D01*
X159833407Y-42031797D01*
X159263203Y-41461593D01*
X158518195Y-41153000D01*
X157837000Y-41153000D01*
X157837000Y-40784079D01*
X159015000Y-40784079D01*
X159454733Y-40696611D01*
X159827522Y-40447522D01*
X160076611Y-40074733D01*
X160164079Y-39635000D01*
X160164079Y-37835000D01*
X160076611Y-37395267D01*
X159913165Y-37150652D01*
X160142000Y-36598195D01*
X160142000Y-35791805D01*
X159833407Y-35046797D01*
X159263203Y-34476593D01*
X158518195Y-34168000D01*
X157837000Y-34168000D01*
X157837000Y-33799079D01*
X159015000Y-33799079D01*
X159454733Y-33711611D01*
X159827522Y-33462522D01*
X160076611Y-33089733D01*
X160164079Y-32650000D01*
X160164079Y-30850000D01*
X160076611Y-30410267D01*
X159913165Y-30165652D01*
X160142000Y-29613195D01*
X160142000Y-28806805D01*
X159833407Y-28061797D01*
X159263203Y-27491593D01*
X158518195Y-27183000D01*
X157837000Y-27183000D01*
X157837000Y-26814079D01*
X159015000Y-26814079D01*
X159454733Y-26726611D01*
X159827522Y-26477522D01*
X160076611Y-26104733D01*
X160164079Y-25665000D01*
X160164079Y-23865000D01*
X160076611Y-23425267D01*
X159913165Y-23180652D01*
X160142000Y-22628195D01*
X160142000Y-21821805D01*
X159833407Y-21076797D01*
X159263203Y-20506593D01*
X158518195Y-20198000D01*
X157711805Y-20198000D01*
X156966797Y-20506593D01*
X156875390Y-20598000D01*
X156370242Y-20598000D01*
X156210000Y-20566126D01*
X156049758Y-20598000D01*
X155575176Y-20692400D01*
X155036999Y-21051999D01*
X154940000Y-21197168D01*
X154843001Y-21051999D01*
X154304824Y-20692400D01*
X153830242Y-20598000D01*
X153670000Y-20566126D01*
X153509758Y-20598000D01*
X152369610Y-20598000D01*
X152278203Y-20506593D01*
X151533195Y-20198000D01*
X150726805Y-20198000D01*
X149981797Y-20506593D01*
X149411593Y-21076797D01*
X149103000Y-21821805D01*
X149103000Y-22628195D01*
X149331835Y-23180652D01*
X149168389Y-23425267D01*
X149080921Y-23865000D01*
X149080921Y-25665000D01*
X149168389Y-26104733D01*
X149417478Y-26477522D01*
X149790267Y-26726611D01*
X150230000Y-26814079D01*
X152030000Y-26814079D01*
X152043000Y-26811493D01*
X152043000Y-27394169D01*
X151533195Y-27183000D01*
X150726805Y-27183000D01*
X149981797Y-27491593D01*
X149411593Y-28061797D01*
X149103000Y-28806805D01*
X149103000Y-29613195D01*
X149331835Y-30165652D01*
X149168389Y-30410267D01*
X149080921Y-30850000D01*
X149080921Y-32650000D01*
X149168389Y-33089733D01*
X149417478Y-33462522D01*
X149790267Y-33711611D01*
X150230000Y-33799079D01*
X152030000Y-33799079D01*
X152043000Y-33796493D01*
X152043000Y-34379169D01*
X151533195Y-34168000D01*
X150726805Y-34168000D01*
X149981797Y-34476593D01*
X149411593Y-35046797D01*
X149103000Y-35791805D01*
X149103000Y-36598195D01*
X149331835Y-37150652D01*
X149168389Y-37395267D01*
X149080921Y-37835000D01*
X149080921Y-39635000D01*
X149168389Y-40074733D01*
X149417478Y-40447522D01*
X149790267Y-40696611D01*
X150230000Y-40784079D01*
X152030000Y-40784079D01*
X152043001Y-40781493D01*
X152043001Y-41364169D01*
X151533195Y-41153000D01*
X150726805Y-41153000D01*
X149981797Y-41461593D01*
X149411593Y-42031797D01*
X149103000Y-42776805D01*
X149103000Y-43583195D01*
X149331835Y-44135652D01*
X149168389Y-44380267D01*
X149080921Y-44820000D01*
X149080921Y-46620000D01*
X149168389Y-47059733D01*
X149417478Y-47432522D01*
X149790267Y-47681611D01*
X150230000Y-47769079D01*
X152030000Y-47769079D01*
X152043001Y-47766493D01*
X152043001Y-48349169D01*
X151533195Y-48138000D01*
X150726805Y-48138000D01*
X149981797Y-48446593D01*
X149411593Y-49016797D01*
X149103000Y-49761805D01*
X149103000Y-50568195D01*
X149331835Y-51120652D01*
X149168389Y-51365267D01*
X149080921Y-51805000D01*
X149080921Y-53434997D01*
X148312000Y-52666076D01*
X148312000Y-50325242D01*
X148343874Y-50165000D01*
X148312000Y-50004758D01*
X148312000Y-43340242D01*
X148343874Y-43180000D01*
X148312000Y-43019758D01*
X148312000Y-36355242D01*
X148343874Y-36195000D01*
X148312000Y-36034758D01*
X148312000Y-29370242D01*
X148343874Y-29210000D01*
X148312000Y-29049758D01*
X148312000Y-22385242D01*
X148343874Y-22225000D01*
X148217600Y-21590176D01*
X147858001Y-21051999D01*
X147319824Y-20692400D01*
X146845242Y-20598000D01*
X146685000Y-20566126D01*
X146524758Y-20598000D01*
X145384610Y-20598000D01*
X145293203Y-20506593D01*
X144548195Y-20198000D01*
X143741805Y-20198000D01*
X142996797Y-20506593D01*
X142426593Y-21076797D01*
X142118000Y-21821805D01*
X142118000Y-22628195D01*
X142346835Y-23180652D01*
X142183389Y-23425267D01*
X142095921Y-23865000D01*
X142095921Y-25665000D01*
X142183389Y-26104733D01*
X142432478Y-26477522D01*
X142805267Y-26726611D01*
X143245000Y-26814079D01*
X145045000Y-26814079D01*
X145058000Y-26811493D01*
X145058000Y-27394169D01*
X144548195Y-27183000D01*
X143741805Y-27183000D01*
X142996797Y-27491593D01*
X142426593Y-28061797D01*
X142118000Y-28806805D01*
X142118000Y-29613195D01*
X142346835Y-30165652D01*
X142183389Y-30410267D01*
X142095921Y-30850000D01*
X142095921Y-32650000D01*
X142183389Y-33089733D01*
X142432478Y-33462522D01*
X142805267Y-33711611D01*
X143245000Y-33799079D01*
X145045000Y-33799079D01*
X145058000Y-33796493D01*
X145058000Y-34379169D01*
X144548195Y-34168000D01*
X143741805Y-34168000D01*
X142996797Y-34476593D01*
X142426593Y-35046797D01*
X142118000Y-35791805D01*
X142118000Y-36598195D01*
X142346835Y-37150652D01*
X142183389Y-37395267D01*
X142095921Y-37835000D01*
X142095921Y-39635000D01*
X142183389Y-40074733D01*
X142432478Y-40447522D01*
X142805267Y-40696611D01*
X143245000Y-40784079D01*
X145045000Y-40784079D01*
X145058001Y-40781493D01*
X145058001Y-41364169D01*
X144548195Y-41153000D01*
X143741805Y-41153000D01*
X142996797Y-41461593D01*
X142426593Y-42031797D01*
X142118000Y-42776805D01*
X142118000Y-43583195D01*
X142346835Y-44135652D01*
X142183389Y-44380267D01*
X142095921Y-44820000D01*
X142095921Y-46620000D01*
X142183389Y-47059733D01*
X142432478Y-47432522D01*
X142805267Y-47681611D01*
X143245000Y-47769079D01*
X145045000Y-47769079D01*
X145058001Y-47766493D01*
X145058001Y-48349169D01*
X144548195Y-48138000D01*
X143741805Y-48138000D01*
X142996797Y-48446593D01*
X142426593Y-49016797D01*
X142118000Y-49761805D01*
X142118000Y-50568195D01*
X142346835Y-51120652D01*
X142183389Y-51365267D01*
X142095921Y-51805000D01*
X142095921Y-52799996D01*
X141327000Y-52031076D01*
X141327000Y-50325242D01*
X141358874Y-50165000D01*
X141327000Y-50004758D01*
X141327000Y-43340242D01*
X141358874Y-43180000D01*
X141327000Y-43019758D01*
X141327000Y-36355242D01*
X141358874Y-36195000D01*
X141327000Y-36034758D01*
X141327000Y-29370242D01*
X141358874Y-29210000D01*
X141327000Y-29049758D01*
X141327000Y-22385242D01*
X141358874Y-22225000D01*
X141232600Y-21590176D01*
X140873001Y-21051999D01*
X140334824Y-20692400D01*
X139860242Y-20598000D01*
X139700000Y-20566126D01*
X139539758Y-20598000D01*
X138399610Y-20598000D01*
X138308203Y-20506593D01*
X137563195Y-20198000D01*
X136756805Y-20198000D01*
X136011797Y-20506593D01*
X135441593Y-21076797D01*
X135133000Y-21821805D01*
X135133000Y-22628195D01*
X135361835Y-23180652D01*
X135198389Y-23425267D01*
X135110921Y-23865000D01*
X135110921Y-25665000D01*
X135198389Y-26104733D01*
X135447478Y-26477522D01*
X135820267Y-26726611D01*
X136260000Y-26814079D01*
X138060000Y-26814079D01*
X138073000Y-26811493D01*
X138073000Y-27394169D01*
X137563195Y-27183000D01*
X136756805Y-27183000D01*
X136011797Y-27491593D01*
X135441593Y-28061797D01*
X135133000Y-28806805D01*
X135133000Y-29613195D01*
X135361835Y-30165652D01*
X135198389Y-30410267D01*
X135110921Y-30850000D01*
X135110921Y-32650000D01*
X135198389Y-33089733D01*
X135447478Y-33462522D01*
X135820267Y-33711611D01*
X136260000Y-33799079D01*
X138060000Y-33799079D01*
X138073000Y-33796493D01*
X138073000Y-34379169D01*
X137563195Y-34168000D01*
X136756805Y-34168000D01*
X136011797Y-34476593D01*
X135441593Y-35046797D01*
X135133000Y-35791805D01*
X135133000Y-36598195D01*
X135361835Y-37150652D01*
X135198389Y-37395267D01*
X135110921Y-37835000D01*
X135110921Y-39635000D01*
X135198389Y-40074733D01*
X135447478Y-40447522D01*
X135820267Y-40696611D01*
X136260000Y-40784079D01*
X138060000Y-40784079D01*
X138073001Y-40781493D01*
X138073001Y-41364169D01*
X137563195Y-41153000D01*
X136756805Y-41153000D01*
X136011797Y-41461593D01*
X135441593Y-42031797D01*
X135133000Y-42776805D01*
X135133000Y-43583195D01*
X135361835Y-44135652D01*
X135198389Y-44380267D01*
X135110921Y-44820000D01*
X135110921Y-46620000D01*
X135198389Y-47059733D01*
X135447478Y-47432522D01*
X135820267Y-47681611D01*
X136260000Y-47769079D01*
X138060000Y-47769079D01*
X138073001Y-47766493D01*
X138073001Y-48349169D01*
X137563195Y-48138000D01*
X136756805Y-48138000D01*
X136011797Y-48446593D01*
X135441593Y-49016797D01*
X135133000Y-49761805D01*
X135133000Y-50568195D01*
X135361835Y-51120652D01*
X135198389Y-51365267D01*
X135110921Y-51805000D01*
X135110921Y-53605000D01*
X135198389Y-54044733D01*
X135447478Y-54417522D01*
X135820267Y-54666611D01*
X136260000Y-54754079D01*
X138060000Y-54754079D01*
X138499733Y-54666611D01*
X138872522Y-54417522D01*
X138968282Y-54274206D01*
X142246230Y-57552156D01*
X142336999Y-57688001D01*
X142472844Y-57778770D01*
X142472845Y-57778771D01*
X142568693Y-57842814D01*
X142339252Y-57937852D01*
X141757852Y-58519252D01*
X141443200Y-59278888D01*
X141443200Y-60101112D01*
X141757852Y-60860748D01*
X142339252Y-61442148D01*
X142449948Y-61488000D01*
X131380372Y-61488000D01*
X124567000Y-54674629D01*
X124567000Y-52321696D01*
X125708000Y-52321696D01*
X125708000Y-53088304D01*
X126001368Y-53796558D01*
X126543442Y-54338632D01*
X127251696Y-54632000D01*
X128018304Y-54632000D01*
X128726558Y-54338632D01*
X129268632Y-53796558D01*
X129562000Y-53088304D01*
X129562000Y-52321696D01*
X129268632Y-51613442D01*
X128726558Y-51071368D01*
X128018304Y-50778000D01*
X127251696Y-50778000D01*
X126543442Y-51071368D01*
X126001368Y-51613442D01*
X125708000Y-52321696D01*
X124567000Y-52321696D01*
X124567000Y-45366696D01*
X125733000Y-45366696D01*
X125733000Y-46133304D01*
X126026368Y-46841558D01*
X126568442Y-47383632D01*
X127276696Y-47677000D01*
X128043304Y-47677000D01*
X128751558Y-47383632D01*
X129293632Y-46841558D01*
X129587000Y-46133304D01*
X129587000Y-45366696D01*
X129293632Y-44658442D01*
X128751558Y-44116368D01*
X128043304Y-43823000D01*
X127276696Y-43823000D01*
X126568442Y-44116368D01*
X126026368Y-44658442D01*
X125733000Y-45366696D01*
X124567000Y-45366696D01*
X124567000Y-38351696D01*
X125733000Y-38351696D01*
X125733000Y-39118304D01*
X126026368Y-39826558D01*
X126568442Y-40368632D01*
X127276696Y-40662000D01*
X128043304Y-40662000D01*
X128751558Y-40368632D01*
X129293632Y-39826558D01*
X129587000Y-39118304D01*
X129587000Y-38351696D01*
X129293632Y-37643442D01*
X128751558Y-37101368D01*
X128043304Y-36808000D01*
X127276696Y-36808000D01*
X126568442Y-37101368D01*
X126026368Y-37643442D01*
X125733000Y-38351696D01*
X124567000Y-38351696D01*
X124567000Y-31366696D01*
X125708000Y-31366696D01*
X125708000Y-32133304D01*
X126001368Y-32841558D01*
X126543442Y-33383632D01*
X127251696Y-33677000D01*
X128018304Y-33677000D01*
X128726558Y-33383632D01*
X129268632Y-32841558D01*
X129562000Y-32133304D01*
X129562000Y-31366696D01*
X129268632Y-30658442D01*
X128726558Y-30116368D01*
X128018304Y-29823000D01*
X127251696Y-29823000D01*
X126543442Y-30116368D01*
X126001368Y-30658442D01*
X125708000Y-31366696D01*
X124567000Y-31366696D01*
X124567000Y-30615623D01*
X124593977Y-30480000D01*
X124487106Y-29942721D01*
X124259586Y-29602214D01*
X124259585Y-29602213D01*
X124182761Y-29487238D01*
X124067786Y-29410414D01*
X119436868Y-24779497D01*
X119439752Y-24765000D01*
X119363509Y-24381696D01*
X125708000Y-24381696D01*
X125708000Y-25148304D01*
X126001368Y-25856558D01*
X126543442Y-26398632D01*
X127251696Y-26692000D01*
X128018304Y-26692000D01*
X128726558Y-26398632D01*
X129268632Y-25856558D01*
X129562000Y-25148304D01*
X129562000Y-24381696D01*
X129268632Y-23673442D01*
X128726558Y-23131368D01*
X128018304Y-22838000D01*
X127251696Y-22838000D01*
X126543442Y-23131368D01*
X126001368Y-23673442D01*
X125708000Y-24381696D01*
X119363509Y-24381696D01*
X119290194Y-24013122D01*
X118864289Y-23375711D01*
X118226878Y-22949806D01*
X117664792Y-22838000D01*
X117285208Y-22838000D01*
X116723122Y-22949806D01*
X116085711Y-23375711D01*
X115659806Y-24013122D01*
X115510248Y-24765000D01*
X109347000Y-24765000D01*
X109347000Y-20132000D01*
X179868000Y-20132000D01*
X179868001Y-84868000D01*
G04 #@! TD*
M02*
