G04 #@! TF.GenerationSoftware,KiCad,Pcbnew,(5.0.2-5)-5*
G04 #@! TF.CreationDate,2022-03-24T12:02:08+00:00*
G04 #@! TF.ProjectId,bee-badge-2000,6265652d-6261-4646-9765-2d323030302e,rev?*
G04 #@! TF.SameCoordinates,Original*
G04 #@! TF.FileFunction,Legend,Top*
G04 #@! TF.FilePolarity,Positive*
%FSLAX46Y46*%
G04 Gerber Fmt 4.6, Leading zero omitted, Abs format (unit mm)*
G04 Created by KiCad (PCBNEW (5.0.2-5)-5) date Thursday, 24 March 2022 at 12:02:08*
%MOMM*%
%LPD*%
G01*
G04 APERTURE LIST*
%ADD10C,0.200000*%
%ADD11C,0.150000*%
%ADD12C,0.120000*%
%ADD13C,0.127000*%
%ADD14C,0.100000*%
G04 APERTURE END LIST*
D10*
X84000714Y-29299285D02*
X83600714Y-29299285D01*
X83600714Y-29927857D02*
X83600714Y-28727857D01*
X84172142Y-28727857D01*
X84800714Y-29927857D02*
X84686428Y-29870714D01*
X84629285Y-29813571D01*
X84572142Y-29699285D01*
X84572142Y-29356428D01*
X84629285Y-29242142D01*
X84686428Y-29185000D01*
X84800714Y-29127857D01*
X84972142Y-29127857D01*
X85086428Y-29185000D01*
X85143571Y-29242142D01*
X85200714Y-29356428D01*
X85200714Y-29699285D01*
X85143571Y-29813571D01*
X85086428Y-29870714D01*
X84972142Y-29927857D01*
X84800714Y-29927857D01*
X85715000Y-29927857D02*
X85715000Y-29127857D01*
X85715000Y-29356428D02*
X85772142Y-29242142D01*
X85829285Y-29185000D01*
X85943571Y-29127857D01*
X86057857Y-29127857D01*
X87372142Y-29127857D02*
X87372142Y-30327857D01*
X87372142Y-29185000D02*
X87486428Y-29127857D01*
X87715000Y-29127857D01*
X87829285Y-29185000D01*
X87886428Y-29242142D01*
X87943571Y-29356428D01*
X87943571Y-29699285D01*
X87886428Y-29813571D01*
X87829285Y-29870714D01*
X87715000Y-29927857D01*
X87486428Y-29927857D01*
X87372142Y-29870714D01*
X88457857Y-29927857D02*
X88457857Y-29127857D01*
X88457857Y-29356428D02*
X88515000Y-29242142D01*
X88572142Y-29185000D01*
X88686428Y-29127857D01*
X88800714Y-29127857D01*
X89372142Y-29927857D02*
X89257857Y-29870714D01*
X89200714Y-29813571D01*
X89143571Y-29699285D01*
X89143571Y-29356428D01*
X89200714Y-29242142D01*
X89257857Y-29185000D01*
X89372142Y-29127857D01*
X89543571Y-29127857D01*
X89657857Y-29185000D01*
X89715000Y-29242142D01*
X89772142Y-29356428D01*
X89772142Y-29699285D01*
X89715000Y-29813571D01*
X89657857Y-29870714D01*
X89543571Y-29927857D01*
X89372142Y-29927857D01*
X90800714Y-29127857D02*
X90800714Y-30099285D01*
X90743571Y-30213571D01*
X90686428Y-30270714D01*
X90572142Y-30327857D01*
X90400714Y-30327857D01*
X90286428Y-30270714D01*
X90800714Y-29870714D02*
X90686428Y-29927857D01*
X90457857Y-29927857D01*
X90343571Y-29870714D01*
X90286428Y-29813571D01*
X90229285Y-29699285D01*
X90229285Y-29356428D01*
X90286428Y-29242142D01*
X90343571Y-29185000D01*
X90457857Y-29127857D01*
X90686428Y-29127857D01*
X90800714Y-29185000D01*
X91372142Y-29927857D02*
X91372142Y-29127857D01*
X91372142Y-29356428D02*
X91429285Y-29242142D01*
X91486428Y-29185000D01*
X91600714Y-29127857D01*
X91715000Y-29127857D01*
X92629285Y-29927857D02*
X92629285Y-29299285D01*
X92572142Y-29185000D01*
X92457857Y-29127857D01*
X92229285Y-29127857D01*
X92115000Y-29185000D01*
X92629285Y-29870714D02*
X92515000Y-29927857D01*
X92229285Y-29927857D01*
X92115000Y-29870714D01*
X92057857Y-29756428D01*
X92057857Y-29642142D01*
X92115000Y-29527857D01*
X92229285Y-29470714D01*
X92515000Y-29470714D01*
X92629285Y-29413571D01*
X93200714Y-29927857D02*
X93200714Y-29127857D01*
X93200714Y-29242142D02*
X93257857Y-29185000D01*
X93372142Y-29127857D01*
X93543571Y-29127857D01*
X93657857Y-29185000D01*
X93715000Y-29299285D01*
X93715000Y-29927857D01*
X93715000Y-29299285D02*
X93772142Y-29185000D01*
X93886428Y-29127857D01*
X94057857Y-29127857D01*
X94172142Y-29185000D01*
X94229285Y-29299285D01*
X94229285Y-29927857D01*
X94800714Y-29927857D02*
X94800714Y-29127857D01*
X94800714Y-29242142D02*
X94857857Y-29185000D01*
X94972142Y-29127857D01*
X95143571Y-29127857D01*
X95257857Y-29185000D01*
X95315000Y-29299285D01*
X95315000Y-29927857D01*
X95315000Y-29299285D02*
X95372142Y-29185000D01*
X95486428Y-29127857D01*
X95657857Y-29127857D01*
X95772142Y-29185000D01*
X95829285Y-29299285D01*
X95829285Y-29927857D01*
X96400714Y-29927857D02*
X96400714Y-29127857D01*
X96400714Y-28727857D02*
X96343571Y-28785000D01*
X96400714Y-28842142D01*
X96457857Y-28785000D01*
X96400714Y-28727857D01*
X96400714Y-28842142D01*
X96972142Y-29127857D02*
X96972142Y-29927857D01*
X96972142Y-29242142D02*
X97029285Y-29185000D01*
X97143571Y-29127857D01*
X97315000Y-29127857D01*
X97429285Y-29185000D01*
X97486428Y-29299285D01*
X97486428Y-29927857D01*
X98572142Y-29127857D02*
X98572142Y-30099285D01*
X98515000Y-30213571D01*
X98457857Y-30270714D01*
X98343571Y-30327857D01*
X98172142Y-30327857D01*
X98057857Y-30270714D01*
X98572142Y-29870714D02*
X98457857Y-29927857D01*
X98229285Y-29927857D01*
X98115000Y-29870714D01*
X98057857Y-29813571D01*
X98000714Y-29699285D01*
X98000714Y-29356428D01*
X98057857Y-29242142D01*
X98115000Y-29185000D01*
X98229285Y-29127857D01*
X98457857Y-29127857D01*
X98572142Y-29185000D01*
X99143571Y-29813571D02*
X99200714Y-29870714D01*
X99143571Y-29927857D01*
X99086428Y-29870714D01*
X99143571Y-29813571D01*
X99143571Y-29927857D01*
X99143571Y-29185000D02*
X99200714Y-29242142D01*
X99143571Y-29299285D01*
X99086428Y-29242142D01*
X99143571Y-29185000D01*
X99143571Y-29299285D01*
X83600714Y-32727857D02*
X83600714Y-33699285D01*
X83657857Y-33813571D01*
X83715000Y-33870714D01*
X83829285Y-33927857D01*
X84057857Y-33927857D01*
X84172142Y-33870714D01*
X84229285Y-33813571D01*
X84286428Y-33699285D01*
X84286428Y-32727857D01*
X84800714Y-33870714D02*
X84915000Y-33927857D01*
X85143571Y-33927857D01*
X85257857Y-33870714D01*
X85315000Y-33756428D01*
X85315000Y-33699285D01*
X85257857Y-33585000D01*
X85143571Y-33527857D01*
X84972142Y-33527857D01*
X84857857Y-33470714D01*
X84800714Y-33356428D01*
X84800714Y-33299285D01*
X84857857Y-33185000D01*
X84972142Y-33127857D01*
X85143571Y-33127857D01*
X85257857Y-33185000D01*
X86286428Y-33870714D02*
X86172142Y-33927857D01*
X85943571Y-33927857D01*
X85829285Y-33870714D01*
X85772142Y-33756428D01*
X85772142Y-33299285D01*
X85829285Y-33185000D01*
X85943571Y-33127857D01*
X86172142Y-33127857D01*
X86286428Y-33185000D01*
X86343571Y-33299285D01*
X86343571Y-33413571D01*
X85772142Y-33527857D01*
X87657857Y-32727857D02*
X88400714Y-32727857D01*
X88000714Y-33185000D01*
X88172142Y-33185000D01*
X88286428Y-33242142D01*
X88343571Y-33299285D01*
X88400714Y-33413571D01*
X88400714Y-33699285D01*
X88343571Y-33813571D01*
X88286428Y-33870714D01*
X88172142Y-33927857D01*
X87829285Y-33927857D01*
X87715000Y-33870714D01*
X87657857Y-33813571D01*
X88800714Y-33127857D02*
X89086428Y-33927857D01*
X89372142Y-33127857D01*
X89715000Y-32727857D02*
X90457857Y-32727857D01*
X90057857Y-33185000D01*
X90229285Y-33185000D01*
X90343571Y-33242142D01*
X90400714Y-33299285D01*
X90457857Y-33413571D01*
X90457857Y-33699285D01*
X90400714Y-33813571D01*
X90343571Y-33870714D01*
X90229285Y-33927857D01*
X89886428Y-33927857D01*
X89772142Y-33870714D01*
X89715000Y-33813571D01*
X92286428Y-33299285D02*
X91886428Y-33299285D01*
X91886428Y-33927857D02*
X91886428Y-32727857D01*
X92457857Y-32727857D01*
X92743571Y-32727857D02*
X93429285Y-32727857D01*
X93086428Y-33927857D02*
X93086428Y-32727857D01*
X93829285Y-33927857D02*
X93829285Y-32727857D01*
X94115000Y-32727857D01*
X94286428Y-32785000D01*
X94400714Y-32899285D01*
X94457857Y-33013571D01*
X94515000Y-33242142D01*
X94515000Y-33413571D01*
X94457857Y-33642142D01*
X94400714Y-33756428D01*
X94286428Y-33870714D01*
X94115000Y-33927857D01*
X93829285Y-33927857D01*
X95029285Y-33927857D02*
X95029285Y-32727857D01*
X97486428Y-33927857D02*
X97429285Y-33927857D01*
X97315000Y-33870714D01*
X97143571Y-33699285D01*
X96857857Y-33356428D01*
X96743571Y-33185000D01*
X96686428Y-33013571D01*
X96686428Y-32899285D01*
X96743571Y-32785000D01*
X96857857Y-32727857D01*
X96915000Y-32727857D01*
X97029285Y-32785000D01*
X97086428Y-32899285D01*
X97086428Y-32956428D01*
X97029285Y-33070714D01*
X96972142Y-33127857D01*
X96629285Y-33356428D01*
X96572142Y-33413571D01*
X96515000Y-33527857D01*
X96515000Y-33699285D01*
X96572142Y-33813571D01*
X96629285Y-33870714D01*
X96743571Y-33927857D01*
X96915000Y-33927857D01*
X97029285Y-33870714D01*
X97086428Y-33813571D01*
X97257857Y-33585000D01*
X97315000Y-33413571D01*
X97315000Y-33299285D01*
X98743571Y-32727857D02*
X99143571Y-33927857D01*
X99543571Y-32727857D01*
X99943571Y-33927857D02*
X99943571Y-32727857D01*
X99943571Y-33185000D02*
X100057857Y-33127857D01*
X100286428Y-33127857D01*
X100400714Y-33185000D01*
X100457857Y-33242142D01*
X100515000Y-33356428D01*
X100515000Y-33699285D01*
X100457857Y-33813571D01*
X100400714Y-33870714D01*
X100286428Y-33927857D01*
X100057857Y-33927857D01*
X99943571Y-33870714D01*
X101543571Y-33927857D02*
X101543571Y-33299285D01*
X101486428Y-33185000D01*
X101372142Y-33127857D01*
X101143571Y-33127857D01*
X101029285Y-33185000D01*
X101543571Y-33870714D02*
X101429285Y-33927857D01*
X101143571Y-33927857D01*
X101029285Y-33870714D01*
X100972142Y-33756428D01*
X100972142Y-33642142D01*
X101029285Y-33527857D01*
X101143571Y-33470714D01*
X101429285Y-33470714D01*
X101543571Y-33413571D01*
X101943571Y-33127857D02*
X102400714Y-33127857D01*
X102115000Y-32727857D02*
X102115000Y-33756428D01*
X102172142Y-33870714D01*
X102286428Y-33927857D01*
X102400714Y-33927857D01*
X103600714Y-32727857D02*
X104343571Y-32727857D01*
X103943571Y-33185000D01*
X104115000Y-33185000D01*
X104229285Y-33242142D01*
X104286428Y-33299285D01*
X104343571Y-33413571D01*
X104343571Y-33699285D01*
X104286428Y-33813571D01*
X104229285Y-33870714D01*
X104115000Y-33927857D01*
X103772142Y-33927857D01*
X103657857Y-33870714D01*
X103600714Y-33813571D01*
X104743571Y-33127857D02*
X105029285Y-33927857D01*
X105315000Y-33127857D01*
X106000714Y-32727857D02*
X106115000Y-32727857D01*
X106229285Y-32785000D01*
X106286428Y-32842142D01*
X106343571Y-32956428D01*
X106400714Y-33185000D01*
X106400714Y-33470714D01*
X106343571Y-33699285D01*
X106286428Y-33813571D01*
X106229285Y-33870714D01*
X106115000Y-33927857D01*
X106000714Y-33927857D01*
X105886428Y-33870714D01*
X105829285Y-33813571D01*
X105772142Y-33699285D01*
X105715000Y-33470714D01*
X105715000Y-33185000D01*
X105772142Y-32956428D01*
X105829285Y-32842142D01*
X105886428Y-32785000D01*
X106000714Y-32727857D01*
X84286428Y-35927857D02*
X83886428Y-35356428D01*
X83600714Y-35927857D02*
X83600714Y-34727857D01*
X84057857Y-34727857D01*
X84172142Y-34785000D01*
X84229285Y-34842142D01*
X84286428Y-34956428D01*
X84286428Y-35127857D01*
X84229285Y-35242142D01*
X84172142Y-35299285D01*
X84057857Y-35356428D01*
X83600714Y-35356428D01*
X85200714Y-35299285D02*
X84800714Y-35299285D01*
X84800714Y-35927857D02*
X84800714Y-34727857D01*
X85372142Y-34727857D01*
X85829285Y-35927857D02*
X85829285Y-34727857D01*
X86229285Y-35585000D01*
X86629285Y-34727857D01*
X86629285Y-35927857D01*
X87715000Y-34727857D02*
X87486428Y-34727857D01*
X87372142Y-34785000D01*
X87315000Y-34842142D01*
X87200714Y-35013571D01*
X87143571Y-35242142D01*
X87143571Y-35699285D01*
X87200714Y-35813571D01*
X87257857Y-35870714D01*
X87372142Y-35927857D01*
X87600714Y-35927857D01*
X87715000Y-35870714D01*
X87772142Y-35813571D01*
X87829285Y-35699285D01*
X87829285Y-35413571D01*
X87772142Y-35299285D01*
X87715000Y-35242142D01*
X87600714Y-35185000D01*
X87372142Y-35185000D01*
X87257857Y-35242142D01*
X87200714Y-35299285D01*
X87143571Y-35413571D01*
X88400714Y-35927857D02*
X88629285Y-35927857D01*
X88743571Y-35870714D01*
X88800714Y-35813571D01*
X88915000Y-35642142D01*
X88972142Y-35413571D01*
X88972142Y-34956428D01*
X88915000Y-34842142D01*
X88857857Y-34785000D01*
X88743571Y-34727857D01*
X88515000Y-34727857D01*
X88400714Y-34785000D01*
X88343571Y-34842142D01*
X88286428Y-34956428D01*
X88286428Y-35242142D01*
X88343571Y-35356428D01*
X88400714Y-35413571D01*
X88515000Y-35470714D01*
X88743571Y-35470714D01*
X88857857Y-35413571D01*
X88915000Y-35356428D01*
X88972142Y-35242142D01*
X89486428Y-35927857D02*
X89486428Y-34727857D01*
X89486428Y-35299285D02*
X90172142Y-35299285D01*
X90172142Y-35927857D02*
X90172142Y-34727857D01*
X90629285Y-34727857D02*
X90915000Y-35927857D01*
X91143571Y-35070714D01*
X91372142Y-35927857D01*
X91657857Y-34727857D01*
X93543571Y-35927857D02*
X93543571Y-35299285D01*
X93486428Y-35185000D01*
X93372142Y-35127857D01*
X93143571Y-35127857D01*
X93029285Y-35185000D01*
X93543571Y-35870714D02*
X93429285Y-35927857D01*
X93143571Y-35927857D01*
X93029285Y-35870714D01*
X92972142Y-35756428D01*
X92972142Y-35642142D01*
X93029285Y-35527857D01*
X93143571Y-35470714D01*
X93429285Y-35470714D01*
X93543571Y-35413571D01*
X94115000Y-35927857D02*
X94115000Y-34727857D01*
X94115000Y-35185000D02*
X94229285Y-35127857D01*
X94457857Y-35127857D01*
X94572142Y-35185000D01*
X94629285Y-35242142D01*
X94686428Y-35356428D01*
X94686428Y-35699285D01*
X94629285Y-35813571D01*
X94572142Y-35870714D01*
X94457857Y-35927857D01*
X94229285Y-35927857D01*
X94115000Y-35870714D01*
X95143571Y-35870714D02*
X95257857Y-35927857D01*
X95486428Y-35927857D01*
X95600714Y-35870714D01*
X95657857Y-35756428D01*
X95657857Y-35699285D01*
X95600714Y-35585000D01*
X95486428Y-35527857D01*
X95315000Y-35527857D01*
X95200714Y-35470714D01*
X95143571Y-35356428D01*
X95143571Y-35299285D01*
X95200714Y-35185000D01*
X95315000Y-35127857D01*
X95486428Y-35127857D01*
X95600714Y-35185000D01*
X97086428Y-35927857D02*
X97086428Y-35127857D01*
X97086428Y-35242142D02*
X97143571Y-35185000D01*
X97257857Y-35127857D01*
X97429285Y-35127857D01*
X97543571Y-35185000D01*
X97600714Y-35299285D01*
X97600714Y-35927857D01*
X97600714Y-35299285D02*
X97657857Y-35185000D01*
X97772142Y-35127857D01*
X97943571Y-35127857D01*
X98057857Y-35185000D01*
X98115000Y-35299285D01*
X98115000Y-35927857D01*
X99200714Y-35927857D02*
X99200714Y-35299285D01*
X99143571Y-35185000D01*
X99029285Y-35127857D01*
X98800714Y-35127857D01*
X98686428Y-35185000D01*
X99200714Y-35870714D02*
X99086428Y-35927857D01*
X98800714Y-35927857D01*
X98686428Y-35870714D01*
X98629285Y-35756428D01*
X98629285Y-35642142D01*
X98686428Y-35527857D01*
X98800714Y-35470714D01*
X99086428Y-35470714D01*
X99200714Y-35413571D01*
X99657857Y-35927857D02*
X100286428Y-35127857D01*
X99657857Y-35127857D02*
X100286428Y-35927857D01*
X101657857Y-35299285D02*
X102572142Y-35299285D01*
X102572142Y-35642142D02*
X101657857Y-35642142D01*
X103943571Y-34727857D02*
X104686428Y-34727857D01*
X104286428Y-35185000D01*
X104457857Y-35185000D01*
X104572142Y-35242142D01*
X104629285Y-35299285D01*
X104686428Y-35413571D01*
X104686428Y-35699285D01*
X104629285Y-35813571D01*
X104572142Y-35870714D01*
X104457857Y-35927857D01*
X104115000Y-35927857D01*
X104000714Y-35870714D01*
X103943571Y-35813571D01*
X105086428Y-35127857D02*
X105372142Y-35927857D01*
X105657857Y-35127857D01*
X106629285Y-34727857D02*
X106400714Y-34727857D01*
X106286428Y-34785000D01*
X106229285Y-34842142D01*
X106115000Y-35013571D01*
X106057857Y-35242142D01*
X106057857Y-35699285D01*
X106115000Y-35813571D01*
X106172142Y-35870714D01*
X106286428Y-35927857D01*
X106515000Y-35927857D01*
X106629285Y-35870714D01*
X106686428Y-35813571D01*
X106743571Y-35699285D01*
X106743571Y-35413571D01*
X106686428Y-35299285D01*
X106629285Y-35242142D01*
X106515000Y-35185000D01*
X106286428Y-35185000D01*
X106172142Y-35242142D01*
X106115000Y-35299285D01*
X106057857Y-35413571D01*
X84000714Y-21774285D02*
X84172142Y-21831428D01*
X84229285Y-21888571D01*
X84286428Y-22002857D01*
X84286428Y-22174285D01*
X84229285Y-22288571D01*
X84172142Y-22345714D01*
X84057857Y-22402857D01*
X83600714Y-22402857D01*
X83600714Y-21202857D01*
X84000714Y-21202857D01*
X84115000Y-21260000D01*
X84172142Y-21317142D01*
X84229285Y-21431428D01*
X84229285Y-21545714D01*
X84172142Y-21660000D01*
X84115000Y-21717142D01*
X84000714Y-21774285D01*
X83600714Y-21774285D01*
X85257857Y-22345714D02*
X85143571Y-22402857D01*
X84915000Y-22402857D01*
X84800714Y-22345714D01*
X84743571Y-22231428D01*
X84743571Y-21774285D01*
X84800714Y-21660000D01*
X84915000Y-21602857D01*
X85143571Y-21602857D01*
X85257857Y-21660000D01*
X85315000Y-21774285D01*
X85315000Y-21888571D01*
X84743571Y-22002857D01*
X86286428Y-22345714D02*
X86172142Y-22402857D01*
X85943571Y-22402857D01*
X85829285Y-22345714D01*
X85772142Y-22231428D01*
X85772142Y-21774285D01*
X85829285Y-21660000D01*
X85943571Y-21602857D01*
X86172142Y-21602857D01*
X86286428Y-21660000D01*
X86343571Y-21774285D01*
X86343571Y-21888571D01*
X85772142Y-22002857D01*
X86857857Y-21945714D02*
X87772142Y-21945714D01*
X88743571Y-21774285D02*
X88343571Y-21774285D01*
X88343571Y-22402857D02*
X88343571Y-21202857D01*
X88915000Y-21202857D01*
X89372142Y-22402857D02*
X89372142Y-21602857D01*
X89372142Y-21202857D02*
X89315000Y-21260000D01*
X89372142Y-21317142D01*
X89429285Y-21260000D01*
X89372142Y-21202857D01*
X89372142Y-21317142D01*
X89943571Y-21602857D02*
X89943571Y-22402857D01*
X89943571Y-21717142D02*
X90000714Y-21660000D01*
X90115000Y-21602857D01*
X90286428Y-21602857D01*
X90400714Y-21660000D01*
X90457857Y-21774285D01*
X90457857Y-22402857D01*
X91543571Y-22402857D02*
X91543571Y-21202857D01*
X91543571Y-22345714D02*
X91429285Y-22402857D01*
X91200714Y-22402857D01*
X91086428Y-22345714D01*
X91029285Y-22288571D01*
X90972142Y-22174285D01*
X90972142Y-21831428D01*
X91029285Y-21717142D01*
X91086428Y-21660000D01*
X91200714Y-21602857D01*
X91429285Y-21602857D01*
X91543571Y-21660000D01*
X92572142Y-22345714D02*
X92457857Y-22402857D01*
X92229285Y-22402857D01*
X92115000Y-22345714D01*
X92057857Y-22231428D01*
X92057857Y-21774285D01*
X92115000Y-21660000D01*
X92229285Y-21602857D01*
X92457857Y-21602857D01*
X92572142Y-21660000D01*
X92629285Y-21774285D01*
X92629285Y-21888571D01*
X92057857Y-22002857D01*
X93143571Y-22402857D02*
X93143571Y-21602857D01*
X93143571Y-21831428D02*
X93200714Y-21717142D01*
X93257857Y-21660000D01*
X93372142Y-21602857D01*
X93486428Y-21602857D01*
X94800714Y-22402857D02*
X94800714Y-21202857D01*
X95200714Y-22060000D01*
X95600714Y-21202857D01*
X95600714Y-22402857D01*
X96172142Y-22402857D02*
X96172142Y-21602857D01*
X96172142Y-21831428D02*
X96229285Y-21717142D01*
X96286428Y-21660000D01*
X96400714Y-21602857D01*
X96515000Y-21602857D01*
X96915000Y-22402857D02*
X96915000Y-21202857D01*
X97029285Y-21945714D02*
X97372142Y-22402857D01*
X97372142Y-21602857D02*
X96915000Y-22060000D01*
X98515000Y-22402857D02*
X97829285Y-22402857D01*
X98172142Y-22402857D02*
X98172142Y-21202857D01*
X98057857Y-21374285D01*
X97943571Y-21488571D01*
X97829285Y-21545714D01*
X83429285Y-23202857D02*
X84115000Y-23202857D01*
X83772142Y-24402857D02*
X83772142Y-23202857D01*
X84515000Y-24402857D02*
X84515000Y-23202857D01*
X85029285Y-24402857D02*
X85029285Y-23774285D01*
X84972142Y-23660000D01*
X84857857Y-23602857D01*
X84686428Y-23602857D01*
X84572142Y-23660000D01*
X84515000Y-23717142D01*
X86057857Y-24345714D02*
X85943571Y-24402857D01*
X85715000Y-24402857D01*
X85600714Y-24345714D01*
X85543571Y-24231428D01*
X85543571Y-23774285D01*
X85600714Y-23660000D01*
X85715000Y-23602857D01*
X85943571Y-23602857D01*
X86057857Y-23660000D01*
X86115000Y-23774285D01*
X86115000Y-23888571D01*
X85543571Y-24002857D01*
X87543571Y-23774285D02*
X87943571Y-23774285D01*
X88115000Y-24402857D02*
X87543571Y-24402857D01*
X87543571Y-23202857D01*
X88115000Y-23202857D01*
X88515000Y-23602857D02*
X88800714Y-24402857D01*
X89086428Y-23602857D01*
X89543571Y-24402857D02*
X89543571Y-23602857D01*
X89543571Y-23202857D02*
X89486428Y-23260000D01*
X89543571Y-23317142D01*
X89600714Y-23260000D01*
X89543571Y-23202857D01*
X89543571Y-23317142D01*
X90286428Y-24402857D02*
X90172142Y-24345714D01*
X90115000Y-24231428D01*
X90115000Y-23202857D01*
X91657857Y-24402857D02*
X91657857Y-23202857D01*
X92115000Y-23202857D01*
X92229285Y-23260000D01*
X92286428Y-23317142D01*
X92343571Y-23431428D01*
X92343571Y-23602857D01*
X92286428Y-23717142D01*
X92229285Y-23774285D01*
X92115000Y-23831428D01*
X91657857Y-23831428D01*
X93029285Y-24402857D02*
X92915000Y-24345714D01*
X92857857Y-24231428D01*
X92857857Y-23202857D01*
X94000714Y-24402857D02*
X94000714Y-23774285D01*
X93943571Y-23660000D01*
X93829285Y-23602857D01*
X93600714Y-23602857D01*
X93486428Y-23660000D01*
X94000714Y-24345714D02*
X93886428Y-24402857D01*
X93600714Y-24402857D01*
X93486428Y-24345714D01*
X93429285Y-24231428D01*
X93429285Y-24117142D01*
X93486428Y-24002857D01*
X93600714Y-23945714D01*
X93886428Y-23945714D01*
X94000714Y-23888571D01*
X94572142Y-23602857D02*
X94572142Y-24402857D01*
X94572142Y-23717142D02*
X94629285Y-23660000D01*
X94743571Y-23602857D01*
X94915000Y-23602857D01*
X95029285Y-23660000D01*
X95086428Y-23774285D01*
X95086428Y-24402857D01*
X97257857Y-24288571D02*
X97200714Y-24345714D01*
X97029285Y-24402857D01*
X96915000Y-24402857D01*
X96743571Y-24345714D01*
X96629285Y-24231428D01*
X96572142Y-24117142D01*
X96515000Y-23888571D01*
X96515000Y-23717142D01*
X96572142Y-23488571D01*
X96629285Y-23374285D01*
X96743571Y-23260000D01*
X96915000Y-23202857D01*
X97029285Y-23202857D01*
X97200714Y-23260000D01*
X97257857Y-23317142D01*
X97943571Y-24402857D02*
X97829285Y-24345714D01*
X97772142Y-24288571D01*
X97715000Y-24174285D01*
X97715000Y-23831428D01*
X97772142Y-23717142D01*
X97829285Y-23660000D01*
X97943571Y-23602857D01*
X98115000Y-23602857D01*
X98229285Y-23660000D01*
X98286428Y-23717142D01*
X98343571Y-23831428D01*
X98343571Y-24174285D01*
X98286428Y-24288571D01*
X98229285Y-24345714D01*
X98115000Y-24402857D01*
X97943571Y-24402857D01*
X98857857Y-23602857D02*
X98857857Y-24402857D01*
X98857857Y-23717142D02*
X98915000Y-23660000D01*
X99029285Y-23602857D01*
X99200714Y-23602857D01*
X99315000Y-23660000D01*
X99372142Y-23774285D01*
X99372142Y-24402857D01*
X99772142Y-23602857D02*
X100229285Y-23602857D01*
X99943571Y-23202857D02*
X99943571Y-24231428D01*
X100000714Y-24345714D01*
X100115000Y-24402857D01*
X100229285Y-24402857D01*
X100629285Y-24402857D02*
X100629285Y-23602857D01*
X100629285Y-23202857D02*
X100572142Y-23260000D01*
X100629285Y-23317142D01*
X100686428Y-23260000D01*
X100629285Y-23202857D01*
X100629285Y-23317142D01*
X101200714Y-23602857D02*
X101200714Y-24402857D01*
X101200714Y-23717142D02*
X101257857Y-23660000D01*
X101372142Y-23602857D01*
X101543571Y-23602857D01*
X101657857Y-23660000D01*
X101715000Y-23774285D01*
X101715000Y-24402857D01*
X102800714Y-23602857D02*
X102800714Y-24402857D01*
X102286428Y-23602857D02*
X102286428Y-24231428D01*
X102343571Y-24345714D01*
X102457857Y-24402857D01*
X102629285Y-24402857D01*
X102743571Y-24345714D01*
X102800714Y-24288571D01*
X103829285Y-24345714D02*
X103715000Y-24402857D01*
X103486428Y-24402857D01*
X103372142Y-24345714D01*
X103315000Y-24231428D01*
X103315000Y-23774285D01*
X103372142Y-23660000D01*
X103486428Y-23602857D01*
X103715000Y-23602857D01*
X103829285Y-23660000D01*
X103886428Y-23774285D01*
X103886428Y-23888571D01*
X103315000Y-24002857D01*
X104343571Y-24345714D02*
X104457857Y-24402857D01*
X104686428Y-24402857D01*
X104800714Y-24345714D01*
X104857857Y-24231428D01*
X104857857Y-24174285D01*
X104800714Y-24060000D01*
X104686428Y-24002857D01*
X104515000Y-24002857D01*
X104400714Y-23945714D01*
X104343571Y-23831428D01*
X104343571Y-23774285D01*
X104400714Y-23660000D01*
X104515000Y-23602857D01*
X104686428Y-23602857D01*
X104800714Y-23660000D01*
X105372142Y-24288571D02*
X105429285Y-24345714D01*
X105372142Y-24402857D01*
X105315000Y-24345714D01*
X105372142Y-24288571D01*
X105372142Y-24402857D01*
X105943571Y-24288571D02*
X106000714Y-24345714D01*
X105943571Y-24402857D01*
X105886428Y-24345714D01*
X105943571Y-24288571D01*
X105943571Y-24402857D01*
X106515000Y-24288571D02*
X106572142Y-24345714D01*
X106515000Y-24402857D01*
X106457857Y-24345714D01*
X106515000Y-24288571D01*
X106515000Y-24402857D01*
D11*
G04 #@! TO.C,AE1*
X82000000Y-82635000D02*
X82000000Y-40635000D01*
X82000000Y-40635000D02*
X109000000Y-40635000D01*
X109000000Y-40635000D02*
X109000000Y-82635000D01*
X109000000Y-82635000D02*
X82000000Y-82635000D01*
D12*
G04 #@! TO.C,R4*
X118540000Y-45750000D02*
X119310000Y-45750000D01*
X126620000Y-45750000D02*
X125850000Y-45750000D01*
X119310000Y-47120000D02*
X125850000Y-47120000D01*
X119310000Y-44380000D02*
X119310000Y-47120000D01*
X125850000Y-44380000D02*
X119310000Y-44380000D01*
X125850000Y-47120000D02*
X125850000Y-44380000D01*
D13*
G04 #@! TO.C,U1*
X175260000Y-76200000D02*
X175260000Y-58420000D01*
X142240000Y-76200000D02*
X175260000Y-76200000D01*
X142240000Y-58420000D02*
X142240000Y-76200000D01*
X175260000Y-58420000D02*
X142240000Y-58420000D01*
D14*
G04 #@! TO.C,U2*
X133494000Y-74875000D02*
X133494000Y-74475000D01*
X113394000Y-74875000D02*
X113394000Y-74475000D01*
X113894000Y-74875000D02*
X113394000Y-74875000D01*
X113394000Y-58875000D02*
X113394000Y-58475000D01*
X113894000Y-58475000D02*
X113394000Y-58475000D01*
X133494000Y-58875000D02*
X133494000Y-58475000D01*
X133494000Y-58475000D02*
X132994000Y-58475000D01*
X133494000Y-74875000D02*
X123494000Y-74875000D01*
D12*
G04 #@! TO.C,D1*
X135615000Y-26055000D02*
X138705000Y-26055000D01*
X139660000Y-23495000D02*
G75*
G03X139660000Y-23495000I-2500000J0D01*
G01*
X137159538Y-20505000D02*
G75*
G02X138704830Y-26055000I462J-2990000D01*
G01*
X137160462Y-20505000D02*
G75*
G03X135615170Y-26055000I-462J-2990000D01*
G01*
G04 #@! TO.C,D2*
X135615000Y-33040000D02*
X138705000Y-33040000D01*
X139660000Y-30480000D02*
G75*
G03X139660000Y-30480000I-2500000J0D01*
G01*
X137159538Y-27490000D02*
G75*
G02X138704830Y-33040000I462J-2990000D01*
G01*
X137160462Y-27490000D02*
G75*
G03X135615170Y-33040000I-462J-2990000D01*
G01*
G04 #@! TO.C,D3*
X135615000Y-40025000D02*
X138705000Y-40025000D01*
X139660000Y-37465000D02*
G75*
G03X139660000Y-37465000I-2500000J0D01*
G01*
X137159538Y-34475000D02*
G75*
G02X138704830Y-40025000I462J-2990000D01*
G01*
X137160462Y-34475000D02*
G75*
G03X135615170Y-40025000I-462J-2990000D01*
G01*
G04 #@! TO.C,D4*
X135615000Y-47010000D02*
X138705000Y-47010000D01*
X139660000Y-44450000D02*
G75*
G03X139660000Y-44450000I-2500000J0D01*
G01*
X137159538Y-41460000D02*
G75*
G02X138704830Y-47010000I462J-2990000D01*
G01*
X137160462Y-41460000D02*
G75*
G03X135615170Y-47010000I-462J-2990000D01*
G01*
G04 #@! TO.C,D5*
X135615000Y-53995000D02*
X138705000Y-53995000D01*
X139660000Y-51435000D02*
G75*
G03X139660000Y-51435000I-2500000J0D01*
G01*
X137159538Y-48445000D02*
G75*
G02X138704830Y-53995000I462J-2990000D01*
G01*
X137160462Y-48445000D02*
G75*
G03X135615170Y-53995000I-462J-2990000D01*
G01*
G04 #@! TO.C,D6*
X142600000Y-26055000D02*
X145690000Y-26055000D01*
X146645000Y-23495000D02*
G75*
G03X146645000Y-23495000I-2500000J0D01*
G01*
X144144538Y-20505000D02*
G75*
G02X145689830Y-26055000I462J-2990000D01*
G01*
X144145462Y-20505000D02*
G75*
G03X142600170Y-26055000I-462J-2990000D01*
G01*
G04 #@! TO.C,D7*
X142600000Y-33040000D02*
X145690000Y-33040000D01*
X146645000Y-30480000D02*
G75*
G03X146645000Y-30480000I-2500000J0D01*
G01*
X144144538Y-27490000D02*
G75*
G02X145689830Y-33040000I462J-2990000D01*
G01*
X144145462Y-27490000D02*
G75*
G03X142600170Y-33040000I-462J-2990000D01*
G01*
G04 #@! TO.C,D8*
X142600000Y-40025000D02*
X145690000Y-40025000D01*
X146645000Y-37465000D02*
G75*
G03X146645000Y-37465000I-2500000J0D01*
G01*
X144144538Y-34475000D02*
G75*
G02X145689830Y-40025000I462J-2990000D01*
G01*
X144145462Y-34475000D02*
G75*
G03X142600170Y-40025000I-462J-2990000D01*
G01*
G04 #@! TO.C,D9*
X142600000Y-47010000D02*
X145690000Y-47010000D01*
X146645000Y-44450000D02*
G75*
G03X146645000Y-44450000I-2500000J0D01*
G01*
X144144538Y-41460000D02*
G75*
G02X145689830Y-47010000I462J-2990000D01*
G01*
X144145462Y-41460000D02*
G75*
G03X142600170Y-47010000I-462J-2990000D01*
G01*
G04 #@! TO.C,D10*
X142600000Y-53995000D02*
X145690000Y-53995000D01*
X146645000Y-51435000D02*
G75*
G03X146645000Y-51435000I-2500000J0D01*
G01*
X144144538Y-48445000D02*
G75*
G02X145689830Y-53995000I462J-2990000D01*
G01*
X144145462Y-48445000D02*
G75*
G03X142600170Y-53995000I-462J-2990000D01*
G01*
G04 #@! TO.C,D11*
X149585000Y-26055000D02*
X152675000Y-26055000D01*
X153630000Y-23495000D02*
G75*
G03X153630000Y-23495000I-2500000J0D01*
G01*
X151129538Y-20505000D02*
G75*
G02X152674830Y-26055000I462J-2990000D01*
G01*
X151130462Y-20505000D02*
G75*
G03X149585170Y-26055000I-462J-2990000D01*
G01*
G04 #@! TO.C,D12*
X149585000Y-33040000D02*
X152675000Y-33040000D01*
X153630000Y-30480000D02*
G75*
G03X153630000Y-30480000I-2500000J0D01*
G01*
X151129538Y-27490000D02*
G75*
G02X152674830Y-33040000I462J-2990000D01*
G01*
X151130462Y-27490000D02*
G75*
G03X149585170Y-33040000I-462J-2990000D01*
G01*
G04 #@! TO.C,D13*
X149585000Y-40025000D02*
X152675000Y-40025000D01*
X153630000Y-37465000D02*
G75*
G03X153630000Y-37465000I-2500000J0D01*
G01*
X151129538Y-34475000D02*
G75*
G02X152674830Y-40025000I462J-2990000D01*
G01*
X151130462Y-34475000D02*
G75*
G03X149585170Y-40025000I-462J-2990000D01*
G01*
G04 #@! TO.C,D14*
X149585000Y-47010000D02*
X152675000Y-47010000D01*
X153630000Y-44450000D02*
G75*
G03X153630000Y-44450000I-2500000J0D01*
G01*
X151129538Y-41460000D02*
G75*
G02X152674830Y-47010000I462J-2990000D01*
G01*
X151130462Y-41460000D02*
G75*
G03X149585170Y-47010000I-462J-2990000D01*
G01*
G04 #@! TO.C,D15*
X149585000Y-53995000D02*
X152675000Y-53995000D01*
X153630000Y-51435000D02*
G75*
G03X153630000Y-51435000I-2500000J0D01*
G01*
X151129538Y-48445000D02*
G75*
G02X152674830Y-53995000I462J-2990000D01*
G01*
X151130462Y-48445000D02*
G75*
G03X149585170Y-53995000I-462J-2990000D01*
G01*
G04 #@! TO.C,D16*
X156570000Y-26055000D02*
X159660000Y-26055000D01*
X160615000Y-23495000D02*
G75*
G03X160615000Y-23495000I-2500000J0D01*
G01*
X158114538Y-20505000D02*
G75*
G02X159659830Y-26055000I462J-2990000D01*
G01*
X158115462Y-20505000D02*
G75*
G03X156570170Y-26055000I-462J-2990000D01*
G01*
G04 #@! TO.C,D17*
X156570000Y-33040000D02*
X159660000Y-33040000D01*
X160615000Y-30480000D02*
G75*
G03X160615000Y-30480000I-2500000J0D01*
G01*
X158114538Y-27490000D02*
G75*
G02X159659830Y-33040000I462J-2990000D01*
G01*
X158115462Y-27490000D02*
G75*
G03X156570170Y-33040000I-462J-2990000D01*
G01*
G04 #@! TO.C,D18*
X156570000Y-40025000D02*
X159660000Y-40025000D01*
X160615000Y-37465000D02*
G75*
G03X160615000Y-37465000I-2500000J0D01*
G01*
X158114538Y-34475000D02*
G75*
G02X159659830Y-40025000I462J-2990000D01*
G01*
X158115462Y-34475000D02*
G75*
G03X156570170Y-40025000I-462J-2990000D01*
G01*
G04 #@! TO.C,D19*
X156570000Y-47010000D02*
X159660000Y-47010000D01*
X160615000Y-44450000D02*
G75*
G03X160615000Y-44450000I-2500000J0D01*
G01*
X158114538Y-41460000D02*
G75*
G02X159659830Y-47010000I462J-2990000D01*
G01*
X158115462Y-41460000D02*
G75*
G03X156570170Y-47010000I-462J-2990000D01*
G01*
G04 #@! TO.C,D20*
X156570000Y-53995000D02*
X159660000Y-53995000D01*
X160615000Y-51435000D02*
G75*
G03X160615000Y-51435000I-2500000J0D01*
G01*
X158114538Y-48445000D02*
G75*
G02X159659830Y-53995000I462J-2990000D01*
G01*
X158115462Y-48445000D02*
G75*
G03X156570170Y-53995000I-462J-2990000D01*
G01*
G04 #@! TO.C,D21*
X163555000Y-26055000D02*
X166645000Y-26055000D01*
X167600000Y-23495000D02*
G75*
G03X167600000Y-23495000I-2500000J0D01*
G01*
X165099538Y-20505000D02*
G75*
G02X166644830Y-26055000I462J-2990000D01*
G01*
X165100462Y-20505000D02*
G75*
G03X163555170Y-26055000I-462J-2990000D01*
G01*
G04 #@! TO.C,D22*
X163555000Y-33040000D02*
X166645000Y-33040000D01*
X167600000Y-30480000D02*
G75*
G03X167600000Y-30480000I-2500000J0D01*
G01*
X165099538Y-27490000D02*
G75*
G02X166644830Y-33040000I462J-2990000D01*
G01*
X165100462Y-27490000D02*
G75*
G03X163555170Y-33040000I-462J-2990000D01*
G01*
G04 #@! TO.C,D23*
X163555000Y-40025000D02*
X166645000Y-40025000D01*
X167600000Y-37465000D02*
G75*
G03X167600000Y-37465000I-2500000J0D01*
G01*
X165099538Y-34475000D02*
G75*
G02X166644830Y-40025000I462J-2990000D01*
G01*
X165100462Y-34475000D02*
G75*
G03X163555170Y-40025000I-462J-2990000D01*
G01*
G04 #@! TO.C,D24*
X163555000Y-47010000D02*
X166645000Y-47010000D01*
X167600000Y-44450000D02*
G75*
G03X167600000Y-44450000I-2500000J0D01*
G01*
X165099538Y-41460000D02*
G75*
G02X166644830Y-47010000I462J-2990000D01*
G01*
X165100462Y-41460000D02*
G75*
G03X163555170Y-47010000I-462J-2990000D01*
G01*
G04 #@! TO.C,D25*
X163555000Y-53995000D02*
X166645000Y-53995000D01*
X167600000Y-51435000D02*
G75*
G03X167600000Y-51435000I-2500000J0D01*
G01*
X165099538Y-48445000D02*
G75*
G02X166644830Y-53995000I462J-2990000D01*
G01*
X165100462Y-48445000D02*
G75*
G03X163555170Y-53995000I-462J-2990000D01*
G01*
G04 #@! TO.C,R1*
X118515000Y-24765000D02*
X119285000Y-24765000D01*
X126595000Y-24765000D02*
X125825000Y-24765000D01*
X119285000Y-26135000D02*
X125825000Y-26135000D01*
X119285000Y-23395000D02*
X119285000Y-26135000D01*
X125825000Y-23395000D02*
X119285000Y-23395000D01*
X125825000Y-26135000D02*
X125825000Y-23395000D01*
G04 #@! TO.C,R2*
X118515000Y-31750000D02*
X119285000Y-31750000D01*
X126595000Y-31750000D02*
X125825000Y-31750000D01*
X119285000Y-33120000D02*
X125825000Y-33120000D01*
X119285000Y-30380000D02*
X119285000Y-33120000D01*
X125825000Y-30380000D02*
X119285000Y-30380000D01*
X125825000Y-33120000D02*
X125825000Y-30380000D01*
G04 #@! TO.C,R3*
X118540000Y-38735000D02*
X119310000Y-38735000D01*
X126620000Y-38735000D02*
X125850000Y-38735000D01*
X119310000Y-40105000D02*
X125850000Y-40105000D01*
X119310000Y-37365000D02*
X119310000Y-40105000D01*
X125850000Y-37365000D02*
X119310000Y-37365000D01*
X125850000Y-40105000D02*
X125850000Y-37365000D01*
G04 #@! TO.C,R5*
X118515000Y-52705000D02*
X119285000Y-52705000D01*
X126595000Y-52705000D02*
X125825000Y-52705000D01*
X119285000Y-54075000D02*
X125825000Y-54075000D01*
X119285000Y-51335000D02*
X119285000Y-54075000D01*
X125825000Y-51335000D02*
X119285000Y-51335000D01*
X125825000Y-54075000D02*
X125825000Y-51335000D01*
D11*
G04 #@! TO.C,SW1*
X169700000Y-79530000D02*
X169700000Y-79780000D01*
X169700000Y-83030000D02*
X178200000Y-83030000D01*
X169700000Y-79530000D02*
X178200000Y-79530000D01*
X178200000Y-79530000D02*
X178200000Y-83030000D01*
X169700000Y-79530000D02*
X169700000Y-83030000D01*
G04 #@! TO.C,SW2*
X155730000Y-79530000D02*
X155730000Y-79780000D01*
X155730000Y-83030000D02*
X164230000Y-83030000D01*
X155730000Y-79530000D02*
X164230000Y-79530000D01*
X164230000Y-79530000D02*
X164230000Y-83030000D01*
X155730000Y-79530000D02*
X155730000Y-83030000D01*
G04 #@! TO.C,R4*
X122413333Y-48572380D02*
X122080000Y-48096190D01*
X121841904Y-48572380D02*
X121841904Y-47572380D01*
X122222857Y-47572380D01*
X122318095Y-47620000D01*
X122365714Y-47667619D01*
X122413333Y-47762857D01*
X122413333Y-47905714D01*
X122365714Y-48000952D01*
X122318095Y-48048571D01*
X122222857Y-48096190D01*
X121841904Y-48096190D01*
X123270476Y-47905714D02*
X123270476Y-48572380D01*
X123032380Y-47524761D02*
X122794285Y-48239047D01*
X123413333Y-48239047D01*
G04 #@! TO.C,U1*
X176403095Y-75017380D02*
X176403095Y-75826904D01*
X176450714Y-75922142D01*
X176498333Y-75969761D01*
X176593571Y-76017380D01*
X176784047Y-76017380D01*
X176879285Y-75969761D01*
X176926904Y-75922142D01*
X176974523Y-75826904D01*
X176974523Y-75017380D01*
X177974523Y-76017380D02*
X177403095Y-76017380D01*
X177688809Y-76017380D02*
X177688809Y-75017380D01*
X177593571Y-75160238D01*
X177498333Y-75255476D01*
X177403095Y-75303095D01*
X142320238Y-77636666D02*
X142796428Y-77636666D01*
X142225000Y-77922380D02*
X142558333Y-76922380D01*
X142891666Y-77922380D01*
X143796428Y-77922380D02*
X143463095Y-77446190D01*
X143225000Y-77922380D02*
X143225000Y-76922380D01*
X143605952Y-76922380D01*
X143701190Y-76970000D01*
X143748809Y-77017619D01*
X143796428Y-77112857D01*
X143796428Y-77255714D01*
X143748809Y-77350952D01*
X143701190Y-77398571D01*
X143605952Y-77446190D01*
X143225000Y-77446190D01*
X144225000Y-77922380D02*
X144225000Y-76922380D01*
X144463095Y-76922380D01*
X144605952Y-76970000D01*
X144701190Y-77065238D01*
X144748809Y-77160476D01*
X144796428Y-77350952D01*
X144796428Y-77493809D01*
X144748809Y-77684285D01*
X144701190Y-77779523D01*
X144605952Y-77874761D01*
X144463095Y-77922380D01*
X144225000Y-77922380D01*
X145225000Y-76922380D02*
X145225000Y-77731904D01*
X145272619Y-77827142D01*
X145320238Y-77874761D01*
X145415476Y-77922380D01*
X145605952Y-77922380D01*
X145701190Y-77874761D01*
X145748809Y-77827142D01*
X145796428Y-77731904D01*
X145796428Y-76922380D01*
X146272619Y-77922380D02*
X146272619Y-76922380D01*
X146748809Y-77922380D02*
X146748809Y-76922380D01*
X147320238Y-77922380D01*
X147320238Y-76922380D01*
X147986904Y-76922380D02*
X148177380Y-76922380D01*
X148272619Y-76970000D01*
X148367857Y-77065238D01*
X148415476Y-77255714D01*
X148415476Y-77589047D01*
X148367857Y-77779523D01*
X148272619Y-77874761D01*
X148177380Y-77922380D01*
X147986904Y-77922380D01*
X147891666Y-77874761D01*
X147796428Y-77779523D01*
X147748809Y-77589047D01*
X147748809Y-77255714D01*
X147796428Y-77065238D01*
X147891666Y-76970000D01*
X147986904Y-76922380D01*
X148605952Y-78017619D02*
X149367857Y-78017619D01*
X149605952Y-77922380D02*
X149605952Y-76922380D01*
X149986904Y-76922380D01*
X150082142Y-76970000D01*
X150129761Y-77017619D01*
X150177380Y-77112857D01*
X150177380Y-77255714D01*
X150129761Y-77350952D01*
X150082142Y-77398571D01*
X149986904Y-77446190D01*
X149605952Y-77446190D01*
X151177380Y-77922380D02*
X150844047Y-77446190D01*
X150605952Y-77922380D02*
X150605952Y-76922380D01*
X150986904Y-76922380D01*
X151082142Y-76970000D01*
X151129761Y-77017619D01*
X151177380Y-77112857D01*
X151177380Y-77255714D01*
X151129761Y-77350952D01*
X151082142Y-77398571D01*
X150986904Y-77446190D01*
X150605952Y-77446190D01*
X151796428Y-76922380D02*
X151986904Y-76922380D01*
X152082142Y-76970000D01*
X152177380Y-77065238D01*
X152225000Y-77255714D01*
X152225000Y-77589047D01*
X152177380Y-77779523D01*
X152082142Y-77874761D01*
X151986904Y-77922380D01*
X151796428Y-77922380D01*
X151701190Y-77874761D01*
X151605952Y-77779523D01*
X151558333Y-77589047D01*
X151558333Y-77255714D01*
X151605952Y-77065238D01*
X151701190Y-76970000D01*
X151796428Y-76922380D01*
X152415476Y-78017619D02*
X153177380Y-78017619D01*
X153415476Y-77922380D02*
X153415476Y-76922380D01*
X153748809Y-77636666D01*
X154082142Y-76922380D01*
X154082142Y-77922380D01*
X154558333Y-77922380D02*
X154558333Y-76922380D01*
X155034523Y-77922380D02*
X155034523Y-76922380D01*
X155605952Y-77922380D01*
X155605952Y-76922380D01*
X156082142Y-77922380D02*
X156082142Y-76922380D01*
G04 #@! TO.C,U2*
X131953095Y-75652380D02*
X131953095Y-76461904D01*
X132000714Y-76557142D01*
X132048333Y-76604761D01*
X132143571Y-76652380D01*
X132334047Y-76652380D01*
X132429285Y-76604761D01*
X132476904Y-76557142D01*
X132524523Y-76461904D01*
X132524523Y-75652380D01*
X132953095Y-75747619D02*
X133000714Y-75700000D01*
X133095952Y-75652380D01*
X133334047Y-75652380D01*
X133429285Y-75700000D01*
X133476904Y-75747619D01*
X133524523Y-75842857D01*
X133524523Y-75938095D01*
X133476904Y-76080952D01*
X132905476Y-76652380D01*
X133524523Y-76652380D01*
X113466904Y-76652380D02*
X113133571Y-76176190D01*
X112895476Y-76652380D02*
X112895476Y-75652380D01*
X113276428Y-75652380D01*
X113371666Y-75700000D01*
X113419285Y-75747619D01*
X113466904Y-75842857D01*
X113466904Y-75985714D01*
X113419285Y-76080952D01*
X113371666Y-76128571D01*
X113276428Y-76176190D01*
X112895476Y-76176190D01*
X114228809Y-76128571D02*
X113895476Y-76128571D01*
X113895476Y-76652380D02*
X113895476Y-75652380D01*
X114371666Y-75652380D01*
X114752619Y-76652380D02*
X114752619Y-75652380D01*
X115085952Y-76366666D01*
X115419285Y-75652380D01*
X115419285Y-76652380D01*
X116324047Y-75652380D02*
X116133571Y-75652380D01*
X116038333Y-75700000D01*
X115990714Y-75747619D01*
X115895476Y-75890476D01*
X115847857Y-76080952D01*
X115847857Y-76461904D01*
X115895476Y-76557142D01*
X115943095Y-76604761D01*
X116038333Y-76652380D01*
X116228809Y-76652380D01*
X116324047Y-76604761D01*
X116371666Y-76557142D01*
X116419285Y-76461904D01*
X116419285Y-76223809D01*
X116371666Y-76128571D01*
X116324047Y-76080952D01*
X116228809Y-76033333D01*
X116038333Y-76033333D01*
X115943095Y-76080952D01*
X115895476Y-76128571D01*
X115847857Y-76223809D01*
X116895476Y-76652380D02*
X117085952Y-76652380D01*
X117181190Y-76604761D01*
X117228809Y-76557142D01*
X117324047Y-76414285D01*
X117371666Y-76223809D01*
X117371666Y-75842857D01*
X117324047Y-75747619D01*
X117276428Y-75700000D01*
X117181190Y-75652380D01*
X116990714Y-75652380D01*
X116895476Y-75700000D01*
X116847857Y-75747619D01*
X116800238Y-75842857D01*
X116800238Y-76080952D01*
X116847857Y-76176190D01*
X116895476Y-76223809D01*
X116990714Y-76271428D01*
X117181190Y-76271428D01*
X117276428Y-76223809D01*
X117324047Y-76176190D01*
X117371666Y-76080952D01*
X117800238Y-76652380D02*
X117800238Y-75652380D01*
X117800238Y-76128571D02*
X118371666Y-76128571D01*
X118371666Y-76652380D02*
X118371666Y-75652380D01*
X118752619Y-75652380D02*
X118990714Y-76652380D01*
X119181190Y-75938095D01*
X119371666Y-76652380D01*
X119609761Y-75652380D01*
G04 #@! TO.C,D1*
X133652380Y-24233095D02*
X132652380Y-24233095D01*
X132652380Y-23995000D01*
X132700000Y-23852142D01*
X132795238Y-23756904D01*
X132890476Y-23709285D01*
X133080952Y-23661666D01*
X133223809Y-23661666D01*
X133414285Y-23709285D01*
X133509523Y-23756904D01*
X133604761Y-23852142D01*
X133652380Y-23995000D01*
X133652380Y-24233095D01*
X133652380Y-22709285D02*
X133652380Y-23280714D01*
X133652380Y-22995000D02*
X132652380Y-22995000D01*
X132795238Y-23090238D01*
X132890476Y-23185476D01*
X132938095Y-23280714D01*
G04 #@! TO.C,D2*
X133652380Y-31218095D02*
X132652380Y-31218095D01*
X132652380Y-30980000D01*
X132700000Y-30837142D01*
X132795238Y-30741904D01*
X132890476Y-30694285D01*
X133080952Y-30646666D01*
X133223809Y-30646666D01*
X133414285Y-30694285D01*
X133509523Y-30741904D01*
X133604761Y-30837142D01*
X133652380Y-30980000D01*
X133652380Y-31218095D01*
X132747619Y-30265714D02*
X132700000Y-30218095D01*
X132652380Y-30122857D01*
X132652380Y-29884761D01*
X132700000Y-29789523D01*
X132747619Y-29741904D01*
X132842857Y-29694285D01*
X132938095Y-29694285D01*
X133080952Y-29741904D01*
X133652380Y-30313333D01*
X133652380Y-29694285D01*
G04 #@! TO.C,D3*
X133652380Y-38203095D02*
X132652380Y-38203095D01*
X132652380Y-37965000D01*
X132700000Y-37822142D01*
X132795238Y-37726904D01*
X132890476Y-37679285D01*
X133080952Y-37631666D01*
X133223809Y-37631666D01*
X133414285Y-37679285D01*
X133509523Y-37726904D01*
X133604761Y-37822142D01*
X133652380Y-37965000D01*
X133652380Y-38203095D01*
X132652380Y-37298333D02*
X132652380Y-36679285D01*
X133033333Y-37012619D01*
X133033333Y-36869761D01*
X133080952Y-36774523D01*
X133128571Y-36726904D01*
X133223809Y-36679285D01*
X133461904Y-36679285D01*
X133557142Y-36726904D01*
X133604761Y-36774523D01*
X133652380Y-36869761D01*
X133652380Y-37155476D01*
X133604761Y-37250714D01*
X133557142Y-37298333D01*
G04 #@! TO.C,D4*
X133652380Y-45188095D02*
X132652380Y-45188095D01*
X132652380Y-44950000D01*
X132700000Y-44807142D01*
X132795238Y-44711904D01*
X132890476Y-44664285D01*
X133080952Y-44616666D01*
X133223809Y-44616666D01*
X133414285Y-44664285D01*
X133509523Y-44711904D01*
X133604761Y-44807142D01*
X133652380Y-44950000D01*
X133652380Y-45188095D01*
X132985714Y-43759523D02*
X133652380Y-43759523D01*
X132604761Y-43997619D02*
X133319047Y-44235714D01*
X133319047Y-43616666D01*
G04 #@! TO.C,D5*
X133652380Y-52173095D02*
X132652380Y-52173095D01*
X132652380Y-51935000D01*
X132700000Y-51792142D01*
X132795238Y-51696904D01*
X132890476Y-51649285D01*
X133080952Y-51601666D01*
X133223809Y-51601666D01*
X133414285Y-51649285D01*
X133509523Y-51696904D01*
X133604761Y-51792142D01*
X133652380Y-51935000D01*
X133652380Y-52173095D01*
X132652380Y-50696904D02*
X132652380Y-51173095D01*
X133128571Y-51220714D01*
X133080952Y-51173095D01*
X133033333Y-51077857D01*
X133033333Y-50839761D01*
X133080952Y-50744523D01*
X133128571Y-50696904D01*
X133223809Y-50649285D01*
X133461904Y-50649285D01*
X133557142Y-50696904D01*
X133604761Y-50744523D01*
X133652380Y-50839761D01*
X133652380Y-51077857D01*
X133604761Y-51173095D01*
X133557142Y-51220714D01*
G04 #@! TO.C,D6*
X140637380Y-24233095D02*
X139637380Y-24233095D01*
X139637380Y-23995000D01*
X139685000Y-23852142D01*
X139780238Y-23756904D01*
X139875476Y-23709285D01*
X140065952Y-23661666D01*
X140208809Y-23661666D01*
X140399285Y-23709285D01*
X140494523Y-23756904D01*
X140589761Y-23852142D01*
X140637380Y-23995000D01*
X140637380Y-24233095D01*
X139637380Y-22804523D02*
X139637380Y-22995000D01*
X139685000Y-23090238D01*
X139732619Y-23137857D01*
X139875476Y-23233095D01*
X140065952Y-23280714D01*
X140446904Y-23280714D01*
X140542142Y-23233095D01*
X140589761Y-23185476D01*
X140637380Y-23090238D01*
X140637380Y-22899761D01*
X140589761Y-22804523D01*
X140542142Y-22756904D01*
X140446904Y-22709285D01*
X140208809Y-22709285D01*
X140113571Y-22756904D01*
X140065952Y-22804523D01*
X140018333Y-22899761D01*
X140018333Y-23090238D01*
X140065952Y-23185476D01*
X140113571Y-23233095D01*
X140208809Y-23280714D01*
G04 #@! TO.C,D7*
X140637380Y-31218095D02*
X139637380Y-31218095D01*
X139637380Y-30980000D01*
X139685000Y-30837142D01*
X139780238Y-30741904D01*
X139875476Y-30694285D01*
X140065952Y-30646666D01*
X140208809Y-30646666D01*
X140399285Y-30694285D01*
X140494523Y-30741904D01*
X140589761Y-30837142D01*
X140637380Y-30980000D01*
X140637380Y-31218095D01*
X139637380Y-30313333D02*
X139637380Y-29646666D01*
X140637380Y-30075238D01*
G04 #@! TO.C,D8*
X140637380Y-38203095D02*
X139637380Y-38203095D01*
X139637380Y-37965000D01*
X139685000Y-37822142D01*
X139780238Y-37726904D01*
X139875476Y-37679285D01*
X140065952Y-37631666D01*
X140208809Y-37631666D01*
X140399285Y-37679285D01*
X140494523Y-37726904D01*
X140589761Y-37822142D01*
X140637380Y-37965000D01*
X140637380Y-38203095D01*
X140065952Y-37060238D02*
X140018333Y-37155476D01*
X139970714Y-37203095D01*
X139875476Y-37250714D01*
X139827857Y-37250714D01*
X139732619Y-37203095D01*
X139685000Y-37155476D01*
X139637380Y-37060238D01*
X139637380Y-36869761D01*
X139685000Y-36774523D01*
X139732619Y-36726904D01*
X139827857Y-36679285D01*
X139875476Y-36679285D01*
X139970714Y-36726904D01*
X140018333Y-36774523D01*
X140065952Y-36869761D01*
X140065952Y-37060238D01*
X140113571Y-37155476D01*
X140161190Y-37203095D01*
X140256428Y-37250714D01*
X140446904Y-37250714D01*
X140542142Y-37203095D01*
X140589761Y-37155476D01*
X140637380Y-37060238D01*
X140637380Y-36869761D01*
X140589761Y-36774523D01*
X140542142Y-36726904D01*
X140446904Y-36679285D01*
X140256428Y-36679285D01*
X140161190Y-36726904D01*
X140113571Y-36774523D01*
X140065952Y-36869761D01*
G04 #@! TO.C,D9*
X140637380Y-45188095D02*
X139637380Y-45188095D01*
X139637380Y-44950000D01*
X139685000Y-44807142D01*
X139780238Y-44711904D01*
X139875476Y-44664285D01*
X140065952Y-44616666D01*
X140208809Y-44616666D01*
X140399285Y-44664285D01*
X140494523Y-44711904D01*
X140589761Y-44807142D01*
X140637380Y-44950000D01*
X140637380Y-45188095D01*
X140637380Y-44140476D02*
X140637380Y-43950000D01*
X140589761Y-43854761D01*
X140542142Y-43807142D01*
X140399285Y-43711904D01*
X140208809Y-43664285D01*
X139827857Y-43664285D01*
X139732619Y-43711904D01*
X139685000Y-43759523D01*
X139637380Y-43854761D01*
X139637380Y-44045238D01*
X139685000Y-44140476D01*
X139732619Y-44188095D01*
X139827857Y-44235714D01*
X140065952Y-44235714D01*
X140161190Y-44188095D01*
X140208809Y-44140476D01*
X140256428Y-44045238D01*
X140256428Y-43854761D01*
X140208809Y-43759523D01*
X140161190Y-43711904D01*
X140065952Y-43664285D01*
G04 #@! TO.C,D10*
X140637380Y-52649285D02*
X139637380Y-52649285D01*
X139637380Y-52411190D01*
X139685000Y-52268333D01*
X139780238Y-52173095D01*
X139875476Y-52125476D01*
X140065952Y-52077857D01*
X140208809Y-52077857D01*
X140399285Y-52125476D01*
X140494523Y-52173095D01*
X140589761Y-52268333D01*
X140637380Y-52411190D01*
X140637380Y-52649285D01*
X140637380Y-51125476D02*
X140637380Y-51696904D01*
X140637380Y-51411190D02*
X139637380Y-51411190D01*
X139780238Y-51506428D01*
X139875476Y-51601666D01*
X139923095Y-51696904D01*
X139637380Y-50506428D02*
X139637380Y-50411190D01*
X139685000Y-50315952D01*
X139732619Y-50268333D01*
X139827857Y-50220714D01*
X140018333Y-50173095D01*
X140256428Y-50173095D01*
X140446904Y-50220714D01*
X140542142Y-50268333D01*
X140589761Y-50315952D01*
X140637380Y-50411190D01*
X140637380Y-50506428D01*
X140589761Y-50601666D01*
X140542142Y-50649285D01*
X140446904Y-50696904D01*
X140256428Y-50744523D01*
X140018333Y-50744523D01*
X139827857Y-50696904D01*
X139732619Y-50649285D01*
X139685000Y-50601666D01*
X139637380Y-50506428D01*
G04 #@! TO.C,D11*
X147622380Y-24709285D02*
X146622380Y-24709285D01*
X146622380Y-24471190D01*
X146670000Y-24328333D01*
X146765238Y-24233095D01*
X146860476Y-24185476D01*
X147050952Y-24137857D01*
X147193809Y-24137857D01*
X147384285Y-24185476D01*
X147479523Y-24233095D01*
X147574761Y-24328333D01*
X147622380Y-24471190D01*
X147622380Y-24709285D01*
X147622380Y-23185476D02*
X147622380Y-23756904D01*
X147622380Y-23471190D02*
X146622380Y-23471190D01*
X146765238Y-23566428D01*
X146860476Y-23661666D01*
X146908095Y-23756904D01*
X147622380Y-22233095D02*
X147622380Y-22804523D01*
X147622380Y-22518809D02*
X146622380Y-22518809D01*
X146765238Y-22614047D01*
X146860476Y-22709285D01*
X146908095Y-22804523D01*
G04 #@! TO.C,D12*
X147622380Y-31694285D02*
X146622380Y-31694285D01*
X146622380Y-31456190D01*
X146670000Y-31313333D01*
X146765238Y-31218095D01*
X146860476Y-31170476D01*
X147050952Y-31122857D01*
X147193809Y-31122857D01*
X147384285Y-31170476D01*
X147479523Y-31218095D01*
X147574761Y-31313333D01*
X147622380Y-31456190D01*
X147622380Y-31694285D01*
X147622380Y-30170476D02*
X147622380Y-30741904D01*
X147622380Y-30456190D02*
X146622380Y-30456190D01*
X146765238Y-30551428D01*
X146860476Y-30646666D01*
X146908095Y-30741904D01*
X146717619Y-29789523D02*
X146670000Y-29741904D01*
X146622380Y-29646666D01*
X146622380Y-29408571D01*
X146670000Y-29313333D01*
X146717619Y-29265714D01*
X146812857Y-29218095D01*
X146908095Y-29218095D01*
X147050952Y-29265714D01*
X147622380Y-29837142D01*
X147622380Y-29218095D01*
G04 #@! TO.C,D13*
X147622380Y-38679285D02*
X146622380Y-38679285D01*
X146622380Y-38441190D01*
X146670000Y-38298333D01*
X146765238Y-38203095D01*
X146860476Y-38155476D01*
X147050952Y-38107857D01*
X147193809Y-38107857D01*
X147384285Y-38155476D01*
X147479523Y-38203095D01*
X147574761Y-38298333D01*
X147622380Y-38441190D01*
X147622380Y-38679285D01*
X147622380Y-37155476D02*
X147622380Y-37726904D01*
X147622380Y-37441190D02*
X146622380Y-37441190D01*
X146765238Y-37536428D01*
X146860476Y-37631666D01*
X146908095Y-37726904D01*
X146622380Y-36822142D02*
X146622380Y-36203095D01*
X147003333Y-36536428D01*
X147003333Y-36393571D01*
X147050952Y-36298333D01*
X147098571Y-36250714D01*
X147193809Y-36203095D01*
X147431904Y-36203095D01*
X147527142Y-36250714D01*
X147574761Y-36298333D01*
X147622380Y-36393571D01*
X147622380Y-36679285D01*
X147574761Y-36774523D01*
X147527142Y-36822142D01*
G04 #@! TO.C,D14*
X147622380Y-45664285D02*
X146622380Y-45664285D01*
X146622380Y-45426190D01*
X146670000Y-45283333D01*
X146765238Y-45188095D01*
X146860476Y-45140476D01*
X147050952Y-45092857D01*
X147193809Y-45092857D01*
X147384285Y-45140476D01*
X147479523Y-45188095D01*
X147574761Y-45283333D01*
X147622380Y-45426190D01*
X147622380Y-45664285D01*
X147622380Y-44140476D02*
X147622380Y-44711904D01*
X147622380Y-44426190D02*
X146622380Y-44426190D01*
X146765238Y-44521428D01*
X146860476Y-44616666D01*
X146908095Y-44711904D01*
X146955714Y-43283333D02*
X147622380Y-43283333D01*
X146574761Y-43521428D02*
X147289047Y-43759523D01*
X147289047Y-43140476D01*
G04 #@! TO.C,D15*
X147622380Y-52649285D02*
X146622380Y-52649285D01*
X146622380Y-52411190D01*
X146670000Y-52268333D01*
X146765238Y-52173095D01*
X146860476Y-52125476D01*
X147050952Y-52077857D01*
X147193809Y-52077857D01*
X147384285Y-52125476D01*
X147479523Y-52173095D01*
X147574761Y-52268333D01*
X147622380Y-52411190D01*
X147622380Y-52649285D01*
X147622380Y-51125476D02*
X147622380Y-51696904D01*
X147622380Y-51411190D02*
X146622380Y-51411190D01*
X146765238Y-51506428D01*
X146860476Y-51601666D01*
X146908095Y-51696904D01*
X146622380Y-50220714D02*
X146622380Y-50696904D01*
X147098571Y-50744523D01*
X147050952Y-50696904D01*
X147003333Y-50601666D01*
X147003333Y-50363571D01*
X147050952Y-50268333D01*
X147098571Y-50220714D01*
X147193809Y-50173095D01*
X147431904Y-50173095D01*
X147527142Y-50220714D01*
X147574761Y-50268333D01*
X147622380Y-50363571D01*
X147622380Y-50601666D01*
X147574761Y-50696904D01*
X147527142Y-50744523D01*
G04 #@! TO.C,D16*
X154607380Y-24709285D02*
X153607380Y-24709285D01*
X153607380Y-24471190D01*
X153655000Y-24328333D01*
X153750238Y-24233095D01*
X153845476Y-24185476D01*
X154035952Y-24137857D01*
X154178809Y-24137857D01*
X154369285Y-24185476D01*
X154464523Y-24233095D01*
X154559761Y-24328333D01*
X154607380Y-24471190D01*
X154607380Y-24709285D01*
X154607380Y-23185476D02*
X154607380Y-23756904D01*
X154607380Y-23471190D02*
X153607380Y-23471190D01*
X153750238Y-23566428D01*
X153845476Y-23661666D01*
X153893095Y-23756904D01*
X153607380Y-22328333D02*
X153607380Y-22518809D01*
X153655000Y-22614047D01*
X153702619Y-22661666D01*
X153845476Y-22756904D01*
X154035952Y-22804523D01*
X154416904Y-22804523D01*
X154512142Y-22756904D01*
X154559761Y-22709285D01*
X154607380Y-22614047D01*
X154607380Y-22423571D01*
X154559761Y-22328333D01*
X154512142Y-22280714D01*
X154416904Y-22233095D01*
X154178809Y-22233095D01*
X154083571Y-22280714D01*
X154035952Y-22328333D01*
X153988333Y-22423571D01*
X153988333Y-22614047D01*
X154035952Y-22709285D01*
X154083571Y-22756904D01*
X154178809Y-22804523D01*
G04 #@! TO.C,D17*
X154607380Y-31694285D02*
X153607380Y-31694285D01*
X153607380Y-31456190D01*
X153655000Y-31313333D01*
X153750238Y-31218095D01*
X153845476Y-31170476D01*
X154035952Y-31122857D01*
X154178809Y-31122857D01*
X154369285Y-31170476D01*
X154464523Y-31218095D01*
X154559761Y-31313333D01*
X154607380Y-31456190D01*
X154607380Y-31694285D01*
X154607380Y-30170476D02*
X154607380Y-30741904D01*
X154607380Y-30456190D02*
X153607380Y-30456190D01*
X153750238Y-30551428D01*
X153845476Y-30646666D01*
X153893095Y-30741904D01*
X153607380Y-29837142D02*
X153607380Y-29170476D01*
X154607380Y-29599047D01*
G04 #@! TO.C,D18*
X154607380Y-38679285D02*
X153607380Y-38679285D01*
X153607380Y-38441190D01*
X153655000Y-38298333D01*
X153750238Y-38203095D01*
X153845476Y-38155476D01*
X154035952Y-38107857D01*
X154178809Y-38107857D01*
X154369285Y-38155476D01*
X154464523Y-38203095D01*
X154559761Y-38298333D01*
X154607380Y-38441190D01*
X154607380Y-38679285D01*
X154607380Y-37155476D02*
X154607380Y-37726904D01*
X154607380Y-37441190D02*
X153607380Y-37441190D01*
X153750238Y-37536428D01*
X153845476Y-37631666D01*
X153893095Y-37726904D01*
X154035952Y-36584047D02*
X153988333Y-36679285D01*
X153940714Y-36726904D01*
X153845476Y-36774523D01*
X153797857Y-36774523D01*
X153702619Y-36726904D01*
X153655000Y-36679285D01*
X153607380Y-36584047D01*
X153607380Y-36393571D01*
X153655000Y-36298333D01*
X153702619Y-36250714D01*
X153797857Y-36203095D01*
X153845476Y-36203095D01*
X153940714Y-36250714D01*
X153988333Y-36298333D01*
X154035952Y-36393571D01*
X154035952Y-36584047D01*
X154083571Y-36679285D01*
X154131190Y-36726904D01*
X154226428Y-36774523D01*
X154416904Y-36774523D01*
X154512142Y-36726904D01*
X154559761Y-36679285D01*
X154607380Y-36584047D01*
X154607380Y-36393571D01*
X154559761Y-36298333D01*
X154512142Y-36250714D01*
X154416904Y-36203095D01*
X154226428Y-36203095D01*
X154131190Y-36250714D01*
X154083571Y-36298333D01*
X154035952Y-36393571D01*
G04 #@! TO.C,D19*
X154607380Y-45664285D02*
X153607380Y-45664285D01*
X153607380Y-45426190D01*
X153655000Y-45283333D01*
X153750238Y-45188095D01*
X153845476Y-45140476D01*
X154035952Y-45092857D01*
X154178809Y-45092857D01*
X154369285Y-45140476D01*
X154464523Y-45188095D01*
X154559761Y-45283333D01*
X154607380Y-45426190D01*
X154607380Y-45664285D01*
X154607380Y-44140476D02*
X154607380Y-44711904D01*
X154607380Y-44426190D02*
X153607380Y-44426190D01*
X153750238Y-44521428D01*
X153845476Y-44616666D01*
X153893095Y-44711904D01*
X154607380Y-43664285D02*
X154607380Y-43473809D01*
X154559761Y-43378571D01*
X154512142Y-43330952D01*
X154369285Y-43235714D01*
X154178809Y-43188095D01*
X153797857Y-43188095D01*
X153702619Y-43235714D01*
X153655000Y-43283333D01*
X153607380Y-43378571D01*
X153607380Y-43569047D01*
X153655000Y-43664285D01*
X153702619Y-43711904D01*
X153797857Y-43759523D01*
X154035952Y-43759523D01*
X154131190Y-43711904D01*
X154178809Y-43664285D01*
X154226428Y-43569047D01*
X154226428Y-43378571D01*
X154178809Y-43283333D01*
X154131190Y-43235714D01*
X154035952Y-43188095D01*
G04 #@! TO.C,D20*
X154607380Y-52649285D02*
X153607380Y-52649285D01*
X153607380Y-52411190D01*
X153655000Y-52268333D01*
X153750238Y-52173095D01*
X153845476Y-52125476D01*
X154035952Y-52077857D01*
X154178809Y-52077857D01*
X154369285Y-52125476D01*
X154464523Y-52173095D01*
X154559761Y-52268333D01*
X154607380Y-52411190D01*
X154607380Y-52649285D01*
X153702619Y-51696904D02*
X153655000Y-51649285D01*
X153607380Y-51554047D01*
X153607380Y-51315952D01*
X153655000Y-51220714D01*
X153702619Y-51173095D01*
X153797857Y-51125476D01*
X153893095Y-51125476D01*
X154035952Y-51173095D01*
X154607380Y-51744523D01*
X154607380Y-51125476D01*
X153607380Y-50506428D02*
X153607380Y-50411190D01*
X153655000Y-50315952D01*
X153702619Y-50268333D01*
X153797857Y-50220714D01*
X153988333Y-50173095D01*
X154226428Y-50173095D01*
X154416904Y-50220714D01*
X154512142Y-50268333D01*
X154559761Y-50315952D01*
X154607380Y-50411190D01*
X154607380Y-50506428D01*
X154559761Y-50601666D01*
X154512142Y-50649285D01*
X154416904Y-50696904D01*
X154226428Y-50744523D01*
X153988333Y-50744523D01*
X153797857Y-50696904D01*
X153702619Y-50649285D01*
X153655000Y-50601666D01*
X153607380Y-50506428D01*
G04 #@! TO.C,D21*
X161592380Y-24709285D02*
X160592380Y-24709285D01*
X160592380Y-24471190D01*
X160640000Y-24328333D01*
X160735238Y-24233095D01*
X160830476Y-24185476D01*
X161020952Y-24137857D01*
X161163809Y-24137857D01*
X161354285Y-24185476D01*
X161449523Y-24233095D01*
X161544761Y-24328333D01*
X161592380Y-24471190D01*
X161592380Y-24709285D01*
X160687619Y-23756904D02*
X160640000Y-23709285D01*
X160592380Y-23614047D01*
X160592380Y-23375952D01*
X160640000Y-23280714D01*
X160687619Y-23233095D01*
X160782857Y-23185476D01*
X160878095Y-23185476D01*
X161020952Y-23233095D01*
X161592380Y-23804523D01*
X161592380Y-23185476D01*
X161592380Y-22233095D02*
X161592380Y-22804523D01*
X161592380Y-22518809D02*
X160592380Y-22518809D01*
X160735238Y-22614047D01*
X160830476Y-22709285D01*
X160878095Y-22804523D01*
G04 #@! TO.C,D22*
X161592380Y-31694285D02*
X160592380Y-31694285D01*
X160592380Y-31456190D01*
X160640000Y-31313333D01*
X160735238Y-31218095D01*
X160830476Y-31170476D01*
X161020952Y-31122857D01*
X161163809Y-31122857D01*
X161354285Y-31170476D01*
X161449523Y-31218095D01*
X161544761Y-31313333D01*
X161592380Y-31456190D01*
X161592380Y-31694285D01*
X160687619Y-30741904D02*
X160640000Y-30694285D01*
X160592380Y-30599047D01*
X160592380Y-30360952D01*
X160640000Y-30265714D01*
X160687619Y-30218095D01*
X160782857Y-30170476D01*
X160878095Y-30170476D01*
X161020952Y-30218095D01*
X161592380Y-30789523D01*
X161592380Y-30170476D01*
X160687619Y-29789523D02*
X160640000Y-29741904D01*
X160592380Y-29646666D01*
X160592380Y-29408571D01*
X160640000Y-29313333D01*
X160687619Y-29265714D01*
X160782857Y-29218095D01*
X160878095Y-29218095D01*
X161020952Y-29265714D01*
X161592380Y-29837142D01*
X161592380Y-29218095D01*
G04 #@! TO.C,D23*
X161592380Y-38679285D02*
X160592380Y-38679285D01*
X160592380Y-38441190D01*
X160640000Y-38298333D01*
X160735238Y-38203095D01*
X160830476Y-38155476D01*
X161020952Y-38107857D01*
X161163809Y-38107857D01*
X161354285Y-38155476D01*
X161449523Y-38203095D01*
X161544761Y-38298333D01*
X161592380Y-38441190D01*
X161592380Y-38679285D01*
X160687619Y-37726904D02*
X160640000Y-37679285D01*
X160592380Y-37584047D01*
X160592380Y-37345952D01*
X160640000Y-37250714D01*
X160687619Y-37203095D01*
X160782857Y-37155476D01*
X160878095Y-37155476D01*
X161020952Y-37203095D01*
X161592380Y-37774523D01*
X161592380Y-37155476D01*
X160592380Y-36822142D02*
X160592380Y-36203095D01*
X160973333Y-36536428D01*
X160973333Y-36393571D01*
X161020952Y-36298333D01*
X161068571Y-36250714D01*
X161163809Y-36203095D01*
X161401904Y-36203095D01*
X161497142Y-36250714D01*
X161544761Y-36298333D01*
X161592380Y-36393571D01*
X161592380Y-36679285D01*
X161544761Y-36774523D01*
X161497142Y-36822142D01*
G04 #@! TO.C,D24*
X161592380Y-45664285D02*
X160592380Y-45664285D01*
X160592380Y-45426190D01*
X160640000Y-45283333D01*
X160735238Y-45188095D01*
X160830476Y-45140476D01*
X161020952Y-45092857D01*
X161163809Y-45092857D01*
X161354285Y-45140476D01*
X161449523Y-45188095D01*
X161544761Y-45283333D01*
X161592380Y-45426190D01*
X161592380Y-45664285D01*
X160687619Y-44711904D02*
X160640000Y-44664285D01*
X160592380Y-44569047D01*
X160592380Y-44330952D01*
X160640000Y-44235714D01*
X160687619Y-44188095D01*
X160782857Y-44140476D01*
X160878095Y-44140476D01*
X161020952Y-44188095D01*
X161592380Y-44759523D01*
X161592380Y-44140476D01*
X160925714Y-43283333D02*
X161592380Y-43283333D01*
X160544761Y-43521428D02*
X161259047Y-43759523D01*
X161259047Y-43140476D01*
G04 #@! TO.C,D25*
X161592380Y-52649285D02*
X160592380Y-52649285D01*
X160592380Y-52411190D01*
X160640000Y-52268333D01*
X160735238Y-52173095D01*
X160830476Y-52125476D01*
X161020952Y-52077857D01*
X161163809Y-52077857D01*
X161354285Y-52125476D01*
X161449523Y-52173095D01*
X161544761Y-52268333D01*
X161592380Y-52411190D01*
X161592380Y-52649285D01*
X160687619Y-51696904D02*
X160640000Y-51649285D01*
X160592380Y-51554047D01*
X160592380Y-51315952D01*
X160640000Y-51220714D01*
X160687619Y-51173095D01*
X160782857Y-51125476D01*
X160878095Y-51125476D01*
X161020952Y-51173095D01*
X161592380Y-51744523D01*
X161592380Y-51125476D01*
X160592380Y-50220714D02*
X160592380Y-50696904D01*
X161068571Y-50744523D01*
X161020952Y-50696904D01*
X160973333Y-50601666D01*
X160973333Y-50363571D01*
X161020952Y-50268333D01*
X161068571Y-50220714D01*
X161163809Y-50173095D01*
X161401904Y-50173095D01*
X161497142Y-50220714D01*
X161544761Y-50268333D01*
X161592380Y-50363571D01*
X161592380Y-50601666D01*
X161544761Y-50696904D01*
X161497142Y-50744523D01*
G04 #@! TO.C,R1*
X122388333Y-27587380D02*
X122055000Y-27111190D01*
X121816904Y-27587380D02*
X121816904Y-26587380D01*
X122197857Y-26587380D01*
X122293095Y-26635000D01*
X122340714Y-26682619D01*
X122388333Y-26777857D01*
X122388333Y-26920714D01*
X122340714Y-27015952D01*
X122293095Y-27063571D01*
X122197857Y-27111190D01*
X121816904Y-27111190D01*
X123340714Y-27587380D02*
X122769285Y-27587380D01*
X123055000Y-27587380D02*
X123055000Y-26587380D01*
X122959761Y-26730238D01*
X122864523Y-26825476D01*
X122769285Y-26873095D01*
G04 #@! TO.C,R2*
X122388333Y-34572380D02*
X122055000Y-34096190D01*
X121816904Y-34572380D02*
X121816904Y-33572380D01*
X122197857Y-33572380D01*
X122293095Y-33620000D01*
X122340714Y-33667619D01*
X122388333Y-33762857D01*
X122388333Y-33905714D01*
X122340714Y-34000952D01*
X122293095Y-34048571D01*
X122197857Y-34096190D01*
X121816904Y-34096190D01*
X122769285Y-33667619D02*
X122816904Y-33620000D01*
X122912142Y-33572380D01*
X123150238Y-33572380D01*
X123245476Y-33620000D01*
X123293095Y-33667619D01*
X123340714Y-33762857D01*
X123340714Y-33858095D01*
X123293095Y-34000952D01*
X122721666Y-34572380D01*
X123340714Y-34572380D01*
G04 #@! TO.C,R3*
X122413333Y-41557380D02*
X122080000Y-41081190D01*
X121841904Y-41557380D02*
X121841904Y-40557380D01*
X122222857Y-40557380D01*
X122318095Y-40605000D01*
X122365714Y-40652619D01*
X122413333Y-40747857D01*
X122413333Y-40890714D01*
X122365714Y-40985952D01*
X122318095Y-41033571D01*
X122222857Y-41081190D01*
X121841904Y-41081190D01*
X122746666Y-40557380D02*
X123365714Y-40557380D01*
X123032380Y-40938333D01*
X123175238Y-40938333D01*
X123270476Y-40985952D01*
X123318095Y-41033571D01*
X123365714Y-41128809D01*
X123365714Y-41366904D01*
X123318095Y-41462142D01*
X123270476Y-41509761D01*
X123175238Y-41557380D01*
X122889523Y-41557380D01*
X122794285Y-41509761D01*
X122746666Y-41462142D01*
G04 #@! TO.C,R5*
X122388333Y-55527380D02*
X122055000Y-55051190D01*
X121816904Y-55527380D02*
X121816904Y-54527380D01*
X122197857Y-54527380D01*
X122293095Y-54575000D01*
X122340714Y-54622619D01*
X122388333Y-54717857D01*
X122388333Y-54860714D01*
X122340714Y-54955952D01*
X122293095Y-55003571D01*
X122197857Y-55051190D01*
X121816904Y-55051190D01*
X123293095Y-54527380D02*
X122816904Y-54527380D01*
X122769285Y-55003571D01*
X122816904Y-54955952D01*
X122912142Y-54908333D01*
X123150238Y-54908333D01*
X123245476Y-54955952D01*
X123293095Y-55003571D01*
X123340714Y-55098809D01*
X123340714Y-55336904D01*
X123293095Y-55432142D01*
X123245476Y-55479761D01*
X123150238Y-55527380D01*
X122912142Y-55527380D01*
X122816904Y-55479761D01*
X122769285Y-55432142D01*
G04 #@! TO.C,SW1*
X166306666Y-80414761D02*
X166449523Y-80462380D01*
X166687619Y-80462380D01*
X166782857Y-80414761D01*
X166830476Y-80367142D01*
X166878095Y-80271904D01*
X166878095Y-80176666D01*
X166830476Y-80081428D01*
X166782857Y-80033809D01*
X166687619Y-79986190D01*
X166497142Y-79938571D01*
X166401904Y-79890952D01*
X166354285Y-79843333D01*
X166306666Y-79748095D01*
X166306666Y-79652857D01*
X166354285Y-79557619D01*
X166401904Y-79510000D01*
X166497142Y-79462380D01*
X166735238Y-79462380D01*
X166878095Y-79510000D01*
X167211428Y-79462380D02*
X167449523Y-80462380D01*
X167640000Y-79748095D01*
X167830476Y-80462380D01*
X168068571Y-79462380D01*
X168973333Y-80462380D02*
X168401904Y-80462380D01*
X168687619Y-80462380D02*
X168687619Y-79462380D01*
X168592380Y-79605238D01*
X168497142Y-79700476D01*
X168401904Y-79748095D01*
X170466190Y-83907380D02*
X170656666Y-83907380D01*
X170751904Y-83955000D01*
X170847142Y-84050238D01*
X170894761Y-84240714D01*
X170894761Y-84574047D01*
X170847142Y-84764523D01*
X170751904Y-84859761D01*
X170656666Y-84907380D01*
X170466190Y-84907380D01*
X170370952Y-84859761D01*
X170275714Y-84764523D01*
X170228095Y-84574047D01*
X170228095Y-84240714D01*
X170275714Y-84050238D01*
X170370952Y-83955000D01*
X170466190Y-83907380D01*
X171323333Y-84907380D02*
X171323333Y-83907380D01*
X171894761Y-84907380D01*
X171894761Y-83907380D01*
X175609047Y-83907380D02*
X175799523Y-83907380D01*
X175894761Y-83955000D01*
X175990000Y-84050238D01*
X176037619Y-84240714D01*
X176037619Y-84574047D01*
X175990000Y-84764523D01*
X175894761Y-84859761D01*
X175799523Y-84907380D01*
X175609047Y-84907380D01*
X175513809Y-84859761D01*
X175418571Y-84764523D01*
X175370952Y-84574047D01*
X175370952Y-84240714D01*
X175418571Y-84050238D01*
X175513809Y-83955000D01*
X175609047Y-83907380D01*
X176799523Y-84383571D02*
X176466190Y-84383571D01*
X176466190Y-84907380D02*
X176466190Y-83907380D01*
X176942380Y-83907380D01*
X177656666Y-84383571D02*
X177323333Y-84383571D01*
X177323333Y-84907380D02*
X177323333Y-83907380D01*
X177799523Y-83907380D01*
G04 #@! TO.C,SW2*
X152336666Y-80414761D02*
X152479523Y-80462380D01*
X152717619Y-80462380D01*
X152812857Y-80414761D01*
X152860476Y-80367142D01*
X152908095Y-80271904D01*
X152908095Y-80176666D01*
X152860476Y-80081428D01*
X152812857Y-80033809D01*
X152717619Y-79986190D01*
X152527142Y-79938571D01*
X152431904Y-79890952D01*
X152384285Y-79843333D01*
X152336666Y-79748095D01*
X152336666Y-79652857D01*
X152384285Y-79557619D01*
X152431904Y-79510000D01*
X152527142Y-79462380D01*
X152765238Y-79462380D01*
X152908095Y-79510000D01*
X153241428Y-79462380D02*
X153479523Y-80462380D01*
X153670000Y-79748095D01*
X153860476Y-80462380D01*
X154098571Y-79462380D01*
X154431904Y-79557619D02*
X154479523Y-79510000D01*
X154574761Y-79462380D01*
X154812857Y-79462380D01*
X154908095Y-79510000D01*
X154955714Y-79557619D01*
X155003333Y-79652857D01*
X155003333Y-79748095D01*
X154955714Y-79890952D01*
X154384285Y-80462380D01*
X155003333Y-80462380D01*
X155194285Y-84907380D02*
X155194285Y-83907380D01*
X155765714Y-84907380D01*
X155765714Y-83907380D01*
X156670476Y-84907380D02*
X156670476Y-84383571D01*
X156622857Y-84288333D01*
X156527619Y-84240714D01*
X156337142Y-84240714D01*
X156241904Y-84288333D01*
X156670476Y-84859761D02*
X156575238Y-84907380D01*
X156337142Y-84907380D01*
X156241904Y-84859761D01*
X156194285Y-84764523D01*
X156194285Y-84669285D01*
X156241904Y-84574047D01*
X156337142Y-84526428D01*
X156575238Y-84526428D01*
X156670476Y-84478809D01*
X157146666Y-84907380D02*
X157146666Y-84240714D01*
X157146666Y-84335952D02*
X157194285Y-84288333D01*
X157289523Y-84240714D01*
X157432380Y-84240714D01*
X157527619Y-84288333D01*
X157575238Y-84383571D01*
X157575238Y-84907380D01*
X157575238Y-84383571D02*
X157622857Y-84288333D01*
X157718095Y-84240714D01*
X157860952Y-84240714D01*
X157956190Y-84288333D01*
X158003809Y-84383571D01*
X158003809Y-84907380D01*
X158860952Y-84859761D02*
X158765714Y-84907380D01*
X158575238Y-84907380D01*
X158480000Y-84859761D01*
X158432380Y-84764523D01*
X158432380Y-84383571D01*
X158480000Y-84288333D01*
X158575238Y-84240714D01*
X158765714Y-84240714D01*
X158860952Y-84288333D01*
X158908571Y-84383571D01*
X158908571Y-84478809D01*
X158432380Y-84574047D01*
X161575238Y-84859761D02*
X161718095Y-84907380D01*
X161956190Y-84907380D01*
X162051428Y-84859761D01*
X162099047Y-84812142D01*
X162146666Y-84716904D01*
X162146666Y-84621666D01*
X162099047Y-84526428D01*
X162051428Y-84478809D01*
X161956190Y-84431190D01*
X161765714Y-84383571D01*
X161670476Y-84335952D01*
X161622857Y-84288333D01*
X161575238Y-84193095D01*
X161575238Y-84097857D01*
X161622857Y-84002619D01*
X161670476Y-83955000D01*
X161765714Y-83907380D01*
X162003809Y-83907380D01*
X162146666Y-83955000D01*
X163003809Y-84859761D02*
X162908571Y-84907380D01*
X162718095Y-84907380D01*
X162622857Y-84859761D01*
X162575238Y-84812142D01*
X162527619Y-84716904D01*
X162527619Y-84431190D01*
X162575238Y-84335952D01*
X162622857Y-84288333D01*
X162718095Y-84240714D01*
X162908571Y-84240714D01*
X163003809Y-84288333D01*
X163860952Y-84907380D02*
X163860952Y-84383571D01*
X163813333Y-84288333D01*
X163718095Y-84240714D01*
X163527619Y-84240714D01*
X163432380Y-84288333D01*
X163860952Y-84859761D02*
X163765714Y-84907380D01*
X163527619Y-84907380D01*
X163432380Y-84859761D01*
X163384761Y-84764523D01*
X163384761Y-84669285D01*
X163432380Y-84574047D01*
X163527619Y-84526428D01*
X163765714Y-84526428D01*
X163860952Y-84478809D01*
X164337142Y-84240714D02*
X164337142Y-84907380D01*
X164337142Y-84335952D02*
X164384761Y-84288333D01*
X164480000Y-84240714D01*
X164622857Y-84240714D01*
X164718095Y-84288333D01*
X164765714Y-84383571D01*
X164765714Y-84907380D01*
G04 #@! TD*
M02*
